<?xml version="1.0" standalone="no"?>
 <!DOCTYPE svg PUBLIC "-//W3C//DTD SVG 1.1//EN" 
 "http://www.w3.org/Graphics/SVG/1.1/DTD/svg11.dtd"> 
<svg xmlns="http://www.w3.org/2000/svg" version="1.1" 
    width="21.59cm" height="16.51cm" viewBox="0 0 85000 65000 ">
<title>SVG Picture created as buffer-Buffer 1.svg date 2015/06/15 15:13:54 </title>
  <desc>Picture generated by Eeschema-SVG </desc>
<g style="fill:#000000; fill-opacity:1;stroke:#000000; stroke-opacity:1;
stroke-linecap:round; stroke-linejoin:round; "
 transform="translate(0 0) scale(1 1)">
</g>
<g style="fill:#A00000; fill-opacity:0.0; 
stroke:#A00000; stroke-width:100; stroke-opacity:1; 
stroke-linecap:round; stroke-linejoin:round;">
<path d="M4000 4000
L81000 4000
L81000 61000
L4000 61000
L4000 4000
" />
<path d="M4700 4700
L80300 4700
L80300 60300
L4700 60300
L4700 4700
" />
<path d="M29660 4000
L29660 4700
" />
<path d="M16970 4550
L16690 4550
" />
<path d="M16830 4550
L16830 4050
L16780 4120
L16730 4170
L16690 4200
" />
<path d="M29660 61000
L29660 60300
" />
<path d="M16970 60850
L16690 60850
" />
<path d="M16830 60850
L16830 60350
L16780 60420
L16730 60470
L16690 60500
" />
<path d="M55320 4000
L55320 4700
" />
<path d="M42350 4100
L42370 4080
L42420 4050
L42540 4050
L42580 4080
L42610 4100
L42630 4150
L42630 4200
L42610 4270
L42320 4550
L42630 4550
" />
<path d="M55320 61000
L55320 60300
" />
<path d="M42350 60400
L42370 60380
L42420 60350
L42540 60350
L42580 60380
L42610 60400
L42630 60450
L42630 60500
L42610 60570
L42320 60850
L42630 60850
" />
<path d="M67980 4050
L68290 4050
L68120 4240
L68200 4240
L68240 4270
L68270 4290
L68290 4340
L68290 4460
L68270 4500
L68240 4530
L68200 4550
L68050 4550
L68010 4530
L67980 4500
" />
<path d="M67980 60350
L68290 60350
L68120 60540
L68200 60540
L68240 60570
L68270 60590
L68290 60640
L68290 60760
L68270 60800
L68240 60830
L68200 60850
L68050 60850
L68010 60830
L67980 60800
" />
<path d="M4000 32500
L4700 32500
" />
<path d="M4240 18310
L4470 18310
" />
<path d="M4190 18450
L4350 17950
L4520 18450
" />
<path d="M81000 32500
L80300 32500
" />
<path d="M80540 18310
L80770 18310
" />
<path d="M80490 18450
L80650 17950
L80820 18450
" />
<path d="M4390 46690
L4460 46710
L4480 46740
L4500 46790
L4500 46860
L4480 46900
L4460 46930
L4410 46950
L4220 46950
L4220 46450
L4390 46450
L4430 46480
L4460 46500
L4480 46550
L4480 46600
L4460 46640
L4430 46670
L4390 46690
L4220 46690
" />
<path d="M80690 46690
L80760 46710
L80780 46740
L80800 46790
L80800 46860
L80780 46900
L80760 46930
L80710 46950
L80520 46950
L80520 46450
L80690 46450
L80730 46480
L80760 46500
L80780 46550
L80780 46600
L80760 46640
L80730 46670
L80690 46690
L80520 46690
" />
<path d="M47450 58740
L47520 58140
L47670 58140
L47750 58170
L47800 58230
L47820 58290
L47840 58400
L47830 58490
L47790 58600
L47750 58660
L47680 58710
L47600 58740
L47450 58740
" />
<path d="M48310 58740
L48350 58430
L48320 58370
L48270 58340
L48160 58340
L48090 58370
" />
<path d="M48310 58710
L48250 58740
L48110 58740
L48050 58710
L48030 58660
L48040 58600
L48070 58540
L48140 58510
L48280 58510
L48340 58490
" />
<path d="M48560 58340
L48790 58340
" />
<path d="M48660 58140
L48600 58660
L48620 58710
L48680 58740
L48740 58740
" />
<path d="M49160 58710
L49100 58740
L48990 58740
L48930 58710
L48910 58660
L48940 58430
L48970 58370
L49040 58340
L49150 58340
L49200 58370
L49230 58430
L49220 58490
L48920 58540
" />
<path d="M49440 58690
L49470 58710
L49440 58740
L49410 58710
L49440 58690
L49440 58740
" />
<path d="M49480 58370
L49510 58400
L49480 58430
L49450 58400
L49480 58370
L49480 58430
" />
<path d="M50510 58740
L50160 58740
" />
<path d="M50340 58740
L50410 58140
L50340 58230
L50270 58290
L50210 58310
" />
<path d="M51120 58140
L50830 58140
L50770 58430
L50800 58400
L50860 58370
L51000 58370
L51060 58400
L51090 58430
L51110 58490
L51090 58630
L51050 58690
L51020 58710
L50960 58740
L50820 58740
L50760 58710
L50730 58690
" />
<path d="M51840 58340
L51770 58860
L51740 58910
L51680 58940
L51650 58940
" />
<path d="M51860 58140
L51830 58170
L51860 58200
L51890 58170
L51860 58140
L51860 58200
" />
<path d="M52390 58340
L52340 58740
" />
<path d="M52130 58340
L52090 58660
L52110 58710
L52170 58740
L52250 58740
L52310 58710
L52340 58690
" />
<path d="M52670 58340
L52620 58740
" />
<path d="M52660 58400
L52690 58370
L52760 58340
L52840 58340
L52890 58370
L52920 58430
L52880 58740
" />
<path d="M53660 58200
L53690 58170
L53750 58140
L53890 58140
L53950 58170
L53980 58200
L54000 58260
L53990 58310
L53950 58400
L53570 58740
L53940 58740
" />
<path d="M54380 58140
L54430 58140
L54490 58170
L54520 58200
L54540 58260
L54550 58370
L54540 58510
L54490 58630
L54450 58690
L54420 58710
L54360 58740
L54310 58740
L54250 58710
L54220 58690
L54200 58630
L54190 58510
L54200 58370
L54250 58260
L54290 58200
L54320 58170
L54380 58140
" />
<path d="M55080 58740
L54730 58740
" />
<path d="M54910 58740
L54980 58140
L54910 58230
L54840 58290
L54780 58310
" />
<path d="M55690 58140
L55400 58140
L55340 58430
L55370 58400
L55430 58370
L55570 58370
L55630 58400
L55660 58430
L55680 58490
L55660 58630
L55620 58690
L55590 58710
L55530 58740
L55390 58740
L55330 58710
L55300 58690
" />
<path d="M39040 59940
L39040 59340
" />
<path d="M39390 59940
L39130 59600
" />
<path d="M39390 59340
L39040 59690
" />
<path d="M39640 59940
L39640 59540
" />
<path d="M39640 59340
L39610 59370
L39640 59400
L39670 59370
L39640 59340
L39640 59400
" />
<path d="M40280 59890
L40250 59910
L40160 59940
L40100 59940
L40020 59910
L39960 59860
L39930 59800
L39900 59690
L39900 59600
L39930 59490
L39960 59430
L40020 59370
L40100 59340
L40160 59340
L40250 59370
L40280 59400
" />
<path d="M40790 59940
L40790 59630
L40760 59570
L40700 59540
L40590 59540
L40530 59570
" />
<path d="M40790 59910
L40730 59940
L40590 59940
L40530 59910
L40500 59860
L40500 59800
L40530 59740
L40590 59710
L40730 59710
L40790 59690
" />
<path d="M41330 59940
L41330 59340
" />
<path d="M41330 59910
L41270 59940
L41160 59940
L41100 59910
L41070 59890
L41040 59830
L41040 59660
L41070 59600
L41100 59570
L41160 59540
L41270 59540
L41330 59570
" />
<path d="M42070 59630
L42270 59630
" />
<path d="M42360 59940
L42070 59940
L42070 59340
L42360 59340
" />
<path d="M42610 59890
L42640 59910
L42610 59940
L42580 59910
L42610 59890
L42610 59940
" />
<path d="M42900 59940
L42900 59340
L43050 59340
L43130 59370
L43190 59430
L43220 59490
L43250 59600
L43250 59690
L43220 59800
L43190 59860
L43130 59910
L43050 59940
L42900 59940
" />
<path d="M43500 59890
L43530 59910
L43500 59940
L43470 59910
L43500 59890
L43500 59940
" />
<path d="M43760 59770
L44050 59770
" />
<path d="M43710 59940
L43910 59340
L44110 59940
" />
<path d="M44300 59890
L44330 59910
L44300 59940
L44270 59910
L44300 59890
L44300 59940
" />
<path d="M72600 58740
L72430 58460
" />
<path d="M72250 58740
L72320 58140
L72550 58140
L72610 58170
L72640 58200
L72660 58260
L72650 58340
L72610 58400
L72580 58430
L72510 58460
L72280 58460
" />
<path d="M73080 58710
L73020 58740
L72910 58740
L72850 58710
L72830 58660
L72860 58430
L72890 58370
L72960 58340
L73070 58340
L73120 58370
L73150 58430
L73140 58490
L72840 58540
" />
<path d="M73360 58340
L73450 58740
L73640 58340
" />
<path d="M73820 58690
L73850 58710
L73820 58740
L73790 58710
L73820 58690
L73820 58740
" />
<path d="M73860 58370
L73890 58400
L73860 58430
L73830 58400
L73860 58370
L73860 58430
" />
<path d="M39010 58710
L39100 58740
L39240 58740
L39300 58710
L39330 58690
L39360 58630
L39360 58570
L39330 58510
L39300 58490
L39240 58460
L39130 58430
L39070 58400
L39040 58370
L39010 58310
L39010 58260
L39040 58200
L39070 58170
L39130 58140
L39270 58140
L39360 58170
" />
<path d="M39610 58740
L39610 58340
" />
<path d="M39610 58140
L39580 58170
L39610 58200
L39640 58170
L39610 58140
L39610 58200
" />
<path d="M39850 58340
L40160 58340
L39850 58740
L40160 58740
" />
<path d="M40620 58710
L40560 58740
L40450 58740
L40390 58710
L40360 58660
L40360 58430
L40390 58370
L40450 58340
L40560 58340
L40620 58370
L40650 58430
L40650 58490
L40360 58540
" />
<path d="M40900 58690
L40930 58710
L40900 58740
L40870 58710
L40900 58690
L40900 58740
" />
<path d="M40900 58370
L40930 58400
L40900 58430
L40870 58400
L40900 58370
L40900 58430
" />
<path d="M41650 58140
L41650 58630
L41680 58690
L41710 58710
L41770 58740
L41880 58740
L41940 58710
L41970 58690
L42000 58630
L42000 58140
" />
<path d="M42250 58710
L42310 58740
L42430 58740
L42480 58710
L42510 58660
L42510 58630
L42480 58570
L42430 58540
L42340 58540
L42280 58510
L42250 58460
L42250 58430
L42280 58370
L42340 58340
L42430 58340
L42480 58370
" />
<path d="M43000 58710
L42940 58740
L42830 58740
L42770 58710
L42740 58660
L42740 58430
L42770 58370
L42830 58340
L42940 58340
L43000 58370
L43030 58430
L43030 58490
L42740 58540
" />
<path d="M43280 58740
L43280 58340
" />
<path d="M43280 58460
L43310 58400
L43340 58370
L43400 58340
L43450 58340
" />
<path d="M72240 59940
L72240 59340
" />
<path d="M72790 59940
L72790 59340
" />
<path d="M72790 59910
L72730 59940
L72620 59940
L72560 59910
L72530 59890
L72500 59830
L72500 59660
L72530 59600
L72560 59570
L72620 59540
L72730 59540
L72790 59570
" />
<path d="M73070 59890
L73100 59910
L73070 59940
L73040 59910
L73070 59890
L73070 59940
" />
<path d="M73070 59570
L73100 59600
L73070 59630
L73040 59600
L73070 59570
L73070 59630
" />
<path d="M73790 59400
L73820 59370
L73880 59340
L74020 59340
L74080 59370
L74110 59400
L74140 59460
L74140 59510
L74110 59600
L73770 59940
L74140 59940
" />
<path d="M74820 59310
L74310 60090
" />
<path d="M75110 59600
L75050 59570
L75020 59540
L74990 59490
L74990 59460
L75020 59400
L75050 59370
L75110 59340
L75220 59340
L75280 59370
L75310 59400
L75340 59460
L75340 59490
L75310 59540
L75280 59570
L75220 59600
L75110 59600
L75050 59630
L75020 59660
L74990 59710
L74990 59830
L75020 59890
L75050 59910
L75110 59940
L75220 59940
L75280 59910
L75310 59890
L75340 59830
L75340 59710
L75310 59660
L75280 59630
L75220 59600
" />
<path d="M39040 56940
L39380 56940
" />
<path d="M39140 57540
L39210 56940
" />
<path d="M39510 57540
L39560 57140
" />
<path d="M39580 56940
L39550 56970
L39580 57000
L39610 56970
L39580 56940
L39580 57000
" />
<path d="M39770 57140
L40000 57140
" />
<path d="M39870 56940
L39810 57460
L39830 57510
L39890 57540
L39950 57540
" />
<path d="M40230 57540
L40170 57510
L40150 57460
L40210 56940
" />
<path d="M40680 57510
L40620 57540
L40510 57540
L40450 57510
L40430 57460
L40460 57230
L40490 57170
L40560 57140
L40670 57140
L40720 57170
L40750 57230
L40740 57290
L40440 57340
" />
<path d="M40960 57490
L40990 57510
L40960 57540
L40930 57510
L40960 57490
L40960 57540
" />
<path d="M41000 57170
L41030 57200
L41000 57230
L40970 57200
L41000 57170
L41000 57230
" />
<path d="M41760 57140
L41710 57540
" />
<path d="M41750 57200
L41780 57170
L41850 57140
L41930 57140
L41980 57170
L42010 57230
L41970 57540
" />
<path d="M42340 57540
L42280 57510
L42250 57490
L42230 57430
L42250 57260
L42290 57200
L42320 57170
L42390 57140
L42470 57140
L42520 57170
L42550 57200
L42570 57260
L42550 57430
L42510 57490
L42480 57510
L42420 57540
L42340 57540
" />
<path d="M42840 57140
L42790 57540
" />
<path d="M42830 57200
L42860 57170
L42930 57140
L43010 57140
L43060 57170
L43090 57230
L43050 57540
" />
<path d="M43590 57540
L43630 57230
L43600 57170
L43550 57140
L43440 57140
L43370 57170
" />
<path d="M43590 57510
L43530 57540
L43390 57540
L43330 57510
L43310 57460
L43320 57400
L43350 57340
L43420 57310
L43560 57310
L43620 57290
" />
<path d="M43870 57540
L43920 57140
" />
<path d="M43910 57200
L43940 57170
L44010 57140
L44090 57140
L44140 57170
L44170 57230
L44130 57540
" />
<path d="M44170 57230
L44200 57170
L44270 57140
L44350 57140
L44400 57170
L44430 57230
L44390 57540
" />
<path d="M44900 57510
L44840 57540
L44730 57540
L44670 57510
L44650 57460
L44680 57230
L44710 57170
L44780 57140
L44890 57140
L44940 57170
L44970 57230
L44960 57290
L44660 57340
" />
<path d="M45180 57490
L45210 57510
L45180 57540
L45150 57510
L45180 57490
L45180 57540
" />
<path d="M45440 57510
L45500 57540
L45620 57540
L45670 57510
L45710 57460
L45710 57430
L45690 57370
L45640 57340
L45550 57340
L45500 57310
L45470 57260
L45480 57230
L45510 57170
L45580 57140
L45670 57140
L45710 57170
" />
<path d="M46220 57510
L46160 57540
L46050 57540
L45990 57510
L45960 57490
L45940 57430
L45960 57260
L46000 57200
L46030 57170
L46100 57140
L46210 57140
L46260 57170
" />
<path d="M46470 57540
L46540 56940
" />
<path d="M46730 57540
L46770 57230
L46740 57170
L46690 57140
L46610 57140
L46540 57170
L46510 57200
" />
<path d="M39240 54830
L39040 54830
" />
<path d="M39040 55140
L39040 54540
L39330 54540
" />
<path d="M39550 55140
L39550 54740
" />
<path d="M39550 54540
L39520 54570
L39550 54600
L39580 54570
L39550 54540
L39550 54600
" />
<path d="M39930 55140
L39870 55110
L39840 55060
L39840 54540
" />
<path d="M40380 55110
L40320 55140
L40210 55140
L40150 55110
L40120 55060
L40120 54830
L40150 54770
L40210 54740
L40320 54740
L40380 54770
L40410 54830
L40410 54890
L40120 54940
" />
<path d="M40660 55090
L40690 55110
L40660 55140
L40630 55110
L40660 55090
L40660 55140
" />
<path d="M40660 54770
L40690 54800
L40660 54830
L40630 54800
L40660 54770
L40660 54830
" />
<path d="M41410 55140
L41410 54540
" />
<path d="M41410 54770
L41470 54740
L41580 54740
L41640 54770
L41670 54800
L41700 54860
L41700 55030
L41670 55090
L41640 55110
L41580 55140
L41470 55140
L41410 55110
" />
<path d="M42210 54740
L42210 55140
" />
<path d="M41950 54740
L41950 55060
L41980 55110
L42040 55140
L42120 55140
L42180 55110
L42210 55090
" />
<path d="M42410 54740
L42640 54740
" />
<path d="M42490 55140
L42490 54630
L42520 54570
L42580 54540
L42640 54540
" />
<path d="M42750 54740
L42980 54740
" />
<path d="M42830 55140
L42830 54630
L42860 54570
L42920 54540
L42980 54540
" />
<path d="M43400 55110
L43340 55140
L43230 55140
L43170 55110
L43140 55060
L43140 54830
L43170 54770
L43230 54740
L43340 54740
L43400 54770
L43430 54830
L43430 54890
L43140 54940
" />
<path d="M43680 55140
L43680 54740
" />
<path d="M43680 54860
L43710 54800
L43740 54770
L43800 54740
L43850 54740
" />
<path d="M44050 55090
L44080 55110
L44050 55140
L44020 55110
L44050 55090
L44050 55140
" />
<path d="M44310 55110
L44370 55140
L44490 55140
L44540 55110
L44570 55060
L44570 55030
L44540 54970
L44490 54940
L44400 54940
L44340 54910
L44310 54860
L44310 54830
L44340 54770
L44400 54740
L44490 54740
L44540 54770
" />
<path d="M45090 55110
L45030 55140
L44920 55140
L44860 55110
L44830 55090
L44800 55030
L44800 54860
L44830 54800
L44860 54770
L44920 54740
L45030 54740
L45090 54770
" />
<path d="M45340 55140
L45340 54540
" />
<path d="M45600 55140
L45600 54830
L45570 54770
L45510 54740
L45430 54740
L45370 54770
L45340 54800
" />
<path d="M39010 56310
L39100 56340
L39240 56340
L39300 56310
L39330 56290
L39360 56230
L39360 56170
L39330 56110
L39300 56090
L39240 56060
L39130 56030
L39070 56000
L39040 55970
L39010 55910
L39010 55860
L39040 55800
L39070 55770
L39130 55740
L39270 55740
L39360 55770
" />
<path d="M39610 56340
L39610 55740
" />
<path d="M39870 56340
L39870 56030
L39840 55970
L39780 55940
L39700 55940
L39640 55970
L39610 56000
" />
<path d="M40380 56310
L40320 56340
L40210 56340
L40150 56310
L40120 56260
L40120 56030
L40150 55970
L40210 55940
L40320 55940
L40380 55970
L40410 56030
L40410 56090
L40120 56140
" />
<path d="M40890 56310
L40830 56340
L40720 56340
L40660 56310
L40630 56260
L40630 56030
L40660 55970
L40720 55940
L40830 55940
L40890 55970
L40920 56030
L40920 56090
L40630 56140
" />
<path d="M41090 55940
L41320 55940
" />
<path d="M41170 55740
L41170 56260
L41200 56310
L41260 56340
L41320 56340
" />
<path d="M41510 56290
L41540 56310
L41510 56340
L41480 56310
L41510 56290
L41510 56340
" />
<path d="M41510 55970
L41540 56000
L41510 56030
L41480 56000
L41510 55970
L41510 56030
" />
<path d="M42690 55710
L42180 56490
" />
<path d="M43090 56030
L43180 56060
L43210 56090
L43240 56140
L43240 56230
L43210 56290
L43180 56310
L43120 56340
L42890 56340
L42890 55740
L43090 55740
L43150 55770
L43180 55800
L43210 55860
L43210 55910
L43180 55970
L43150 56000
L43090 56030
L42890 56030
" />
<path d="M43750 55940
L43750 56340
" />
<path d="M43490 55940
L43490 56260
L43520 56310
L43580 56340
L43660 56340
L43720 56310
L43750 56290
" />
<path d="M43950 55940
L44180 55940
" />
<path d="M44030 56340
L44030 55830
L44060 55770
L44120 55740
L44180 55740
" />
<path d="M44290 55940
L44520 55940
" />
<path d="M44370 56340
L44370 55830
L44400 55770
L44460 55740
L44520 55740
" />
<path d="M44940 56310
L44880 56340
L44770 56340
L44710 56310
L44680 56260
L44680 56030
L44710 55970
L44770 55940
L44880 55940
L44940 55970
L44970 56030
L44970 56090
L44680 56140
" />
<path d="M45220 56340
L45220 55940
" />
<path d="M45220 56060
L45250 56000
L45280 55970
L45340 55940
L45390 55940
" />
<path d="M46370 56340
L46020 56340
" />
<path d="M46200 56340
L46200 55740
L46140 55830
L46080 55890
L46020 55910
" />
<path d="M47050 55710
L46540 56490
" />
<path d="M38300 54300
L38300 60300
" />
<path d="M38300 54300
L80300 54300
" />
<path d="M38300 54300
L80300 54300
" />
<path d="M38300 56700
L80300 56700
" />
<path d="M71500 57900
L71500 60300
" />
<path d="M38300 59100
L80300 59100
" />
<path d="M38300 57900
L80300 57900
" />
<path d="M44900 57900
L44900 59100
" />
</g>
<g style="fill:#A00000; fill-opacity:0.0; 
stroke:#A00000; stroke-width:0; stroke-opacity:1; 
stroke-linecap:round; stroke-linejoin:round;">
</g>
<g style="fill:#FFFF80; fill-opacity:0.6; 
stroke:#FFFF80; stroke-width:0; stroke-opacity:1; 
stroke-linecap:round; stroke-linejoin:round;">
<polyline style="fill-rule:evenodd;"
points="40000,31000
36000,29000
36000,33000
40000,31000
" /> 
</g>
<g style="fill:#A00000; fill-opacity:0.0; 
stroke:#A00000; stroke-width:60; stroke-opacity:1; 
stroke-linecap:round; stroke-linejoin:round;">
<polyline fill="none;"
points="40000,31000
36000,29000
36000,33000
40000,31000
" /> 
<path d="M38000 32000
L38000 33000
" />
</g>
<g style="fill:#00A0A0; fill-opacity:0.0; 
stroke:#00A0A0; stroke-width:60; stroke-opacity:1; 
stroke-linecap:round; stroke-linejoin:round;">
</g>
<g style="fill:#00A0A0; fill-opacity:0.0; 
stroke:#00A0A0; stroke-width:50; stroke-opacity:1; 
stroke-linecap:round; stroke-linejoin:round;">
<path d="M37820 31770
L38120 31670
L37820 31570
" />
<path d="M38010 31470
L38010 31240
" />
</g>
<g style="fill:#00A0A0; fill-opacity:0.0; 
stroke:#00A0A0; stroke-width:60; stroke-opacity:1; 
stroke-linecap:round; stroke-linejoin:round;">
</g>
<g style="fill:#A00000; fill-opacity:0.0; 
stroke:#A00000; stroke-width:60; stroke-opacity:1; 
stroke-linecap:round; stroke-linejoin:round;">
</g>
<g style="fill:#A00000; fill-opacity:0.0; 
stroke:#A00000; stroke-width:50; stroke-opacity:1; 
stroke-linecap:round; stroke-linejoin:round;">
<path d="M37670 32440
L37870 32440
" />
<path d="M37560 32510
L37770 32580
L37770 32400
" />
</g>
<g style="fill:#A00000; fill-opacity:0.0; 
stroke:#A00000; stroke-width:60; stroke-opacity:1; 
stroke-linecap:round; stroke-linejoin:round;">
<path d="M38000 30000
L38000 29000
" />
</g>
<g style="fill:#00A0A0; fill-opacity:0.0; 
stroke:#00A0A0; stroke-width:60; stroke-opacity:1; 
stroke-linecap:round; stroke-linejoin:round;">
</g>
<g style="fill:#00A0A0; fill-opacity:0.0; 
stroke:#00A0A0; stroke-width:50; stroke-opacity:1; 
stroke-linecap:round; stroke-linejoin:round;">
<path d="M37820 30800
L38120 30700
L37820 30600
" />
<path d="M38010 30500
L38010 30270
" />
<path d="M38120 30380
L37890 30380
" />
</g>
<g style="fill:#00A0A0; fill-opacity:0.0; 
stroke:#00A0A0; stroke-width:60; stroke-opacity:1; 
stroke-linecap:round; stroke-linejoin:round;">
</g>
<g style="fill:#A00000; fill-opacity:0.0; 
stroke:#A00000; stroke-width:60; stroke-opacity:1; 
stroke-linecap:round; stroke-linejoin:round;">
</g>
<g style="fill:#A00000; fill-opacity:0.0; 
stroke:#A00000; stroke-width:50; stroke-opacity:1; 
stroke-linecap:round; stroke-linejoin:round;">
<path d="M37700 29530
L37690 29550
L37670 29570
L37640 29580
L37630 29580
L37600 29570
L37590 29550
L37570 29530
L37570 29470
L37590 29440
L37600 29430
L37630 29410
L37640 29410
L37670 29430
L37690 29440
L37700 29470
L37700 29530
L37710 29550
L37730 29570
L37760 29580
L37810 29580
L37840 29570
L37860 29550
L37870 29530
L37870 29470
L37860 29440
L37840 29430
L37810 29410
L37760 29410
L37730 29430
L37710 29440
L37700 29470
" />
</g>
<g style="fill:#A00000; fill-opacity:0.0; 
stroke:#A00000; stroke-width:60; stroke-opacity:1; 
stroke-linecap:round; stroke-linejoin:round;">
<path d="M40000 31000
L41000 31000
" />
</g>
<g style="fill:#00A0A0; fill-opacity:0.0; 
stroke:#00A0A0; stroke-width:60; stroke-opacity:1; 
stroke-linecap:round; stroke-linejoin:round;">
</g>
<g style="fill:#00A0A0; fill-opacity:0.0; 
stroke:#00A0A0; stroke-width:50; stroke-opacity:1; 
stroke-linecap:round; stroke-linejoin:round;">
</g>
<g style="fill:#00A0A0; fill-opacity:0.0; 
stroke:#00A0A0; stroke-width:60; stroke-opacity:1; 
stroke-linecap:round; stroke-linejoin:round;">
</g>
<g style="fill:#A00000; fill-opacity:0.0; 
stroke:#A00000; stroke-width:60; stroke-opacity:1; 
stroke-linecap:round; stroke-linejoin:round;">
</g>
<g style="fill:#A00000; fill-opacity:0.0; 
stroke:#A00000; stroke-width:50; stroke-opacity:1; 
stroke-linecap:round; stroke-linejoin:round;">
<path d="M40590 30870
L40420 30870
" />
<path d="M40500 30870
L40500 30570
L40470 30610
L40450 30640
L40420 30660
" />
</g>
<g style="fill:#A00000; fill-opacity:0.0; 
stroke:#A00000; stroke-width:60; stroke-opacity:1; 
stroke-linecap:round; stroke-linejoin:round;">
<path d="M36000 30000
L35000 30000
" />
</g>
<g style="fill:#00A0A0; fill-opacity:0.0; 
stroke:#00A0A0; stroke-width:60; stroke-opacity:1; 
stroke-linecap:round; stroke-linejoin:round;">
</g>
<g style="fill:#00A0A0; fill-opacity:0.0; 
stroke:#00A0A0; stroke-width:50; stroke-opacity:1; 
stroke-linecap:round; stroke-linejoin:round;">
<path d="M36270 30010
L36500 30010
" />
</g>
<g style="fill:#00A0A0; fill-opacity:0.0; 
stroke:#00A0A0; stroke-width:60; stroke-opacity:1; 
stroke-linecap:round; stroke-linejoin:round;">
</g>
<g style="fill:#A00000; fill-opacity:0.0; 
stroke:#A00000; stroke-width:60; stroke-opacity:1; 
stroke-linecap:round; stroke-linejoin:round;">
</g>
<g style="fill:#A00000; fill-opacity:0.0; 
stroke:#A00000; stroke-width:50; stroke-opacity:1; 
stroke-linecap:round; stroke-linejoin:round;">
<path d="M35420 29600
L35430 29590
L35460 29570
L35530 29570
L35560 29590
L35570 29600
L35590 29630
L35590 29660
L35570 29700
L35400 29870
L35590 29870
" />
</g>
<g style="fill:#A00000; fill-opacity:0.0; 
stroke:#A00000; stroke-width:60; stroke-opacity:1; 
stroke-linecap:round; stroke-linejoin:round;">
<path d="M36000 32000
L35000 32000
" />
</g>
<g style="fill:#00A0A0; fill-opacity:0.0; 
stroke:#00A0A0; stroke-width:60; stroke-opacity:1; 
stroke-linecap:round; stroke-linejoin:round;">
</g>
<g style="fill:#00A0A0; fill-opacity:0.0; 
stroke:#00A0A0; stroke-width:50; stroke-opacity:1; 
stroke-linecap:round; stroke-linejoin:round;">
<path d="M36270 32010
L36500 32010
" />
<path d="M36390 32120
L36390 31890
" />
</g>
<g style="fill:#00A0A0; fill-opacity:0.0; 
stroke:#00A0A0; stroke-width:60; stroke-opacity:1; 
stroke-linecap:round; stroke-linejoin:round;">
</g>
<g style="fill:#A00000; fill-opacity:0.0; 
stroke:#A00000; stroke-width:60; stroke-opacity:1; 
stroke-linecap:round; stroke-linejoin:round;">
</g>
<g style="fill:#A00000; fill-opacity:0.0; 
stroke:#A00000; stroke-width:50; stroke-opacity:1; 
stroke-linecap:round; stroke-linejoin:round;">
<path d="M35400 31570
L35590 31570
L35490 31690
L35530 31690
L35560 31700
L35570 31710
L35590 31740
L35590 31810
L35570 31840
L35560 31860
L35530 31870
L35450 31870
L35420 31860
L35400 31840
" />
</g>
<g style="fill:#A00000; fill-opacity:0.0; 
stroke:#A00000; stroke-width:60; stroke-opacity:1; 
stroke-linecap:round; stroke-linejoin:round;">
</g>
<g style="fill:#00A0A0; fill-opacity:0.0; 
stroke:#00A0A0; stroke-width:60; stroke-opacity:1; 
stroke-linecap:round; stroke-linejoin:round;">
<path d="M38910 29170
L38910 29580
L38930 29620
L38960 29650
L39000 29670
L39100 29670
L39150 29650
L39170 29620
L39190 29580
L39190 29170
" />
<path d="M39690 29670
L39410 29670
" />
<path d="M39550 29670
L39550 29170
L39500 29240
L39450 29290
L39410 29320
" />
<path d="M39890 29530
L40120 29530
" />
<path d="M39840 29670
L40000 29170
L40170 29670
" />
<path d="M39180 32670
L38940 32670
L38940 32170
" />
<path d="M39340 32670
L39340 32170
L39510 32530
L39670 32170
L39670 32670
" />
<path d="M39860 32170
L40170 32170
L40000 32360
L40080 32360
L40120 32390
L40150 32410
L40170 32460
L40170 32580
L40150 32620
L40120 32650
L40080 32670
L39930 32670
L39890 32650
L39860 32620
" />
<path d="M40630 32170
L40390 32170
L40370 32410
L40390 32390
L40440 32360
L40560 32360
L40600 32390
L40630 32410
L40650 32460
L40650 32580
L40630 32620
L40600 32650
L40560 32670
L40440 32670
L40390 32650
L40370 32620
" />
<path d="M40940 32390
L40890 32360
L40870 32340
L40850 32290
L40850 32270
L40870 32220
L40890 32200
L40940 32170
L41040 32170
L41080 32200
L41110 32220
L41130 32270
L41130 32290
L41110 32340
L41080 32360
L41040 32390
L40940 32390
L40890 32410
L40870 32430
L40850 32480
L40850 32580
L40870 32620
L40890 32650
L40940 32670
L41040 32670
L41080 32650
L41110 32620
L41130 32580
L41130 32480
L41110 32430
L41080 32410
L41040 32390
" />
<path d="M41330 32530
L41560 32530
" />
<path d="M41280 32670
L41440 32170
L41610 32670
" />
<path d="M41780 32670
L41780 32170
L42060 32670
L42060 32170
" />
</g>
<g style="fill:#00A0A0; fill-opacity:0.0; 
stroke:#00A0A0; stroke-width:0; stroke-opacity:1; 
stroke-linecap:round; stroke-linejoin:round;">
</g>
<g style="fill:#A00000; fill-opacity:0.0; 
stroke:#A00000; stroke-width:60; stroke-opacity:1; 
stroke-linecap:round; stroke-linejoin:round;">
<circle cx="38000" cy="34750" r="250" /> 
<polyline fill="none;"
points="38000,34000
38000,34500
" /> 
</g>
<g style="fill:#00A0A0; fill-opacity:0.0; 
stroke:#00A0A0; stroke-width:60; stroke-opacity:1; 
stroke-linecap:round; stroke-linejoin:round;">
<path d="M37350 35230
L37510 35730
L37680 35230
" />
<path d="M37830 35710
L37900 35730
L38020 35730
L38060 35710
L38090 35680
L38110 35640
L38110 35590
L38090 35540
L38060 35520
L38020 35490
L37920 35470
L37870 35450
L37850 35420
L37830 35380
L37830 35330
L37850 35280
L37870 35260
L37920 35230
L38040 35230
L38110 35260
" />
<path d="M38310 35710
L38380 35730
L38500 35730
L38540 35710
L38570 35680
L38590 35640
L38590 35590
L38570 35540
L38540 35520
L38500 35490
L38400 35470
L38350 35450
L38330 35420
L38310 35380
L38310 35330
L38330 35280
L38350 35260
L38400 35230
L38520 35230
L38590 35260
" />
</g>
<g style="fill:#00A0A0; fill-opacity:0.0; 
stroke:#00A0A0; stroke-width:0; stroke-opacity:1; 
stroke-linecap:round; stroke-linejoin:round;">
</g>
<g style="fill:#A00000; fill-opacity:0.0; 
stroke:#A00000; stroke-width:60; stroke-opacity:1; 
stroke-linecap:round; stroke-linejoin:round;">
<circle cx="38000" cy="27250" r="250" /> 
<polyline fill="none;"
points="38000,28000
38000,27500
" /> 
</g>
<g style="fill:#00A0A0; fill-opacity:0.0; 
stroke:#00A0A0; stroke-width:60; stroke-opacity:1; 
stroke-linecap:round; stroke-linejoin:round;">
<path d="M37340 26170
L37500 26670
L37670 26170
" />
<path d="M37840 26670
L37840 26170
L37960 26170
L38030 26200
L38080 26240
L38100 26290
L38120 26390
L38120 26460
L38100 26550
L38080 26600
L38030 26650
L37960 26670
L37840 26670
" />
<path d="M38340 26670
L38340 26170
L38460 26170
L38530 26200
L38580 26240
L38600 26290
L38620 26390
L38620 26460
L38600 26550
L38580 26600
L38530 26650
L38460 26670
L38340 26670
" />
</g>
<g style="fill:#00A0A0; fill-opacity:0.0; 
stroke:#00A0A0; stroke-width:0; stroke-opacity:1; 
stroke-linecap:round; stroke-linejoin:round;">
</g>
<g style="fill:#A00000; fill-opacity:0.0; 
stroke:#A00000; stroke-width:80; stroke-opacity:1; 
stroke-linecap:round; stroke-linejoin:round;">
<rect x="45700" y="32300" width="600" height="1400" rx="0" />
</g>
<g style="fill:#A00000; fill-opacity:0.0; 
stroke:#A00000; stroke-width:60; stroke-opacity:1; 
stroke-linecap:round; stroke-linejoin:round;">
<path d="M46000 32300
L46000 32000
" />
<path d="M46000 33700
L46000 34000
" />
</g>
<g style="fill:#00A0A0; fill-opacity:0.0; 
stroke:#00A0A0; stroke-width:60; stroke-opacity:1; 
stroke-linecap:round; stroke-linejoin:round;">
<path d="M46900 32670
L46740 32430
" />
<path d="M46620 32670
L46620 32170
L46810 32170
L46860 32200
L46880 32220
L46900 32270
L46900 32340
L46880 32390
L46860 32410
L46810 32430
L46620 32430
" />
<path d="M47070 32170
L47380 32170
L47210 32360
L47290 32360
L47330 32390
L47360 32410
L47380 32460
L47380 32580
L47360 32620
L47330 32650
L47290 32670
L47140 32670
L47100 32650
L47070 32620
" />
<path d="M46880 33670
L46600 33670
" />
<path d="M46740 33670
L46740 33170
L46690 33240
L46640 33290
L46600 33320
" />
<path d="M47100 33670
L47100 33170
" />
<path d="M47150 33480
L47290 33670
" />
<path d="M47290 33340
L47100 33530
" />
</g>
<g style="fill:#00A0A0; fill-opacity:0.0; 
stroke:#00A0A0; stroke-width:0; stroke-opacity:1; 
stroke-linecap:round; stroke-linejoin:round;">
</g>
<g style="fill:#A00000; fill-opacity:0.0; 
stroke:#A00000; stroke-width:60; stroke-opacity:1; 
stroke-linecap:round; stroke-linejoin:round;">
<polyline fill="none;"
points="46000,35000
46000,35500
46500,35500
46000,36000
45500,35500
46000,35500
" /> 
</g>
<g style="fill:#00A0A0; fill-opacity:0.0; 
stroke:#00A0A0; stroke-width:60; stroke-opacity:1; 
stroke-linecap:round; stroke-linejoin:round;">
<path d="M45620 36200
L45570 36170
L45500 36170
L45430 36200
L45380 36240
L45360 36290
L45340 36390
L45340 36460
L45360 36550
L45380 36600
L45430 36650
L45500 36670
L45550 36670
L45620 36650
L45640 36620
L45640 36460
L45550 36460
" />
<path d="M45860 36670
L45860 36170
L46140 36670
L46140 36170
" />
<path d="M46380 36670
L46380 36170
L46500 36170
L46570 36200
L46620 36240
L46640 36290
L46660 36390
L46660 36460
L46640 36550
L46620 36600
L46570 36650
L46500 36670
L46380 36670
" />
</g>
<g style="fill:#808000; fill-opacity:0.0; 
stroke:#808000; stroke-width:60; stroke-opacity:1; 
stroke-linecap:round; stroke-linejoin:round;">
<path d="M48100 30930
L48190 30960
L48220 30990
L48250 31040
L48250 31130
L48220 31190
L48190 31210
L48130 31240
L47900 31240
L47900 30640
L48100 30640
L48160 30670
L48190 30700
L48220 30760
L48220 30810
L48190 30870
L48160 30900
L48100 30930
L47900 30930
" />
<path d="M48500 30640
L48500 31130
L48530 31190
L48560 31210
L48620 31240
L48730 31240
L48790 31210
L48820 31190
L48850 31130
L48850 30640
" />
<path d="M49330 30930
L49130 30930
" />
<path d="M49130 31240
L49130 30640
L49420 30640
" />
<path d="M49840 30930
L49640 30930
" />
<path d="M49640 31240
L49640 30640
L49930 30640
" />
<path d="M50150 30930
L50350 30930
" />
<path d="M50440 31240
L50150 31240
L50150 30640
L50440 30640
" />
<path d="M51040 31240
L50840 30960
" />
<path d="M50690 31240
L50690 30640
L50920 30640
L50980 30670
L51010 30700
L51040 30760
L51040 30840
L51010 30900
L50980 30930
L50920 30960
L50690 30960
" />
<path d="M51150 31300
L51610 31300
" />
<path d="M51870 30640
L51980 30640
L52040 30670
L52100 30730
L52120 30840
L52120 31040
L52100 31160
L52040 31210
L51980 31240
L51870 31240
L51810 31210
L51750 31160
L51720 31040
L51720 30840
L51750 30730
L51810 30670
L51870 30640
" />
<path d="M52380 30640
L52380 31130
L52410 31190
L52440 31210
L52500 31240
L52610 31240
L52670 31210
L52700 31190
L52730 31130
L52730 30640
" />
<path d="M52930 30640
L53270 30640
" />
<path d="M53100 31240
L53100 30640
" />
</g>
<g style="fill:#808000; fill-opacity:0.0; 
stroke:#808000; stroke-width:100; stroke-opacity:1; 
stroke-linecap:round; stroke-linejoin:round;">
<polyline fill="none;"
points="47600,31000
47300,30700
47000,30700
47000,31300
47300,31300
47600,31000
" /> 
</g>
<g style="fill:#808000; fill-opacity:0.0; 
stroke:#808000; stroke-width:60; stroke-opacity:1; 
stroke-linecap:round; stroke-linejoin:round;">
<path d="M28810 31930
L28900 31960
L28930 31990
L28960 32040
L28960 32130
L28930 32190
L28900 32210
L28840 32240
L28610 32240
L28610 31640
L28810 31640
L28870 31670
L28900 31700
L28930 31760
L28930 31810
L28900 31870
L28870 31900
L28810 31930
L28610 31930
" />
<path d="M29210 31640
L29210 32130
L29240 32190
L29270 32210
L29330 32240
L29440 32240
L29500 32210
L29530 32190
L29560 32130
L29560 31640
" />
<path d="M30040 31930
L29840 31930
" />
<path d="M29840 32240
L29840 31640
L30130 31640
" />
<path d="M30550 31930
L30350 31930
" />
<path d="M30350 32240
L30350 31640
L30640 31640
" />
<path d="M30860 31930
L31060 31930
" />
<path d="M31150 32240
L30860 32240
L30860 31640
L31150 31640
" />
<path d="M31750 32240
L31550 31960
" />
<path d="M31400 32240
L31400 31640
L31630 31640
L31690 31670
L31720 31700
L31750 31760
L31750 31840
L31720 31900
L31690 31930
L31630 31960
L31400 31960
" />
<path d="M31860 32300
L32320 32300
" />
<path d="M32460 32240
L32460 31640
" />
<path d="M32750 32240
L32750 31640
L33100 32240
L33100 31640
" />
</g>
<g style="fill:#808000; fill-opacity:0.0; 
stroke:#808000; stroke-width:100; stroke-opacity:1; 
stroke-linecap:round; stroke-linejoin:round;">
<polyline fill="none;"
points="34000,32000
33700,31700
33400,31700
33400,32300
33700,32300
34000,32000
" /> 
</g>
<g style="fill:#808000; fill-opacity:0.0; 
stroke:#808000; stroke-width:0; stroke-opacity:1; 
stroke-linecap:round; stroke-linejoin:round;">
</g>
<g style="fill:#A00000; fill-opacity:0.0; 
stroke:#A00000; stroke-width:120; stroke-opacity:1; 
stroke-linecap:round; stroke-linejoin:round;">
<path d="M44303.6 30399.7 A1250 1250 0.0 0 0 44302.5 31598.4 " />
<polyline fill="none;"
points="43800,31600
43800,30400
" /> 
</g>
<g style="fill:#A00000; fill-opacity:0.0; 
stroke:#A00000; stroke-width:60; stroke-opacity:1; 
stroke-linecap:round; stroke-linejoin:round;">
<polyline fill="none;"
points="43400,31500
43400,31300
" /> 
<polyline fill="none;"
points="43500,31400
43300,31400
" /> 
<path d="M43800 31000
L43000 31000
" />
<path d="M44200 31000
L45000 31000
" />
</g>
<g style="fill:#00A0A0; fill-opacity:0.0; 
stroke:#00A0A0; stroke-width:60; stroke-opacity:1; 
stroke-linecap:round; stroke-linejoin:round;">
<path d="M43920 29680
L43900 29710
L43830 29730
L43780 29730
L43710 29710
L43660 29660
L43640 29610
L43620 29520
L43620 29450
L43640 29350
L43660 29300
L43710 29260
L43780 29230
L43830 29230
L43900 29260
L43920 29280
" />
<path d="M44400 29730
L44120 29730
" />
<path d="M44260 29730
L44260 29230
L44210 29300
L44160 29350
L44120 29380
" />
<path d="M43880 32730
L43600 32730
" />
<path d="M43740 32730
L43740 32230
L43690 32300
L43640 32350
L43600 32380
" />
<path d="M44100 32400
L44100 32900
" />
<path d="M44340 32660
L44360 32710
L44410 32730
" />
<path d="M44100 32660
L44120 32710
L44170 32730
L44270 32730
L44310 32710
L44340 32660
L44340 32400
" />
</g>
<g style="fill:#00A000; fill-opacity:0.0; 
stroke:#00A000; stroke-width:60; stroke-opacity:1; 
stroke-linecap:round; stroke-linejoin:round;">
<path d="M35000 30000
L34000 30000
" />
<path d="M34000 30000
L34000 25000
" />
<path d="M34000 25000
L42000 25000
" />
<path d="M42000 25000
L42000 31000
" />
</g>
<g style="fill:#00A000; fill-opacity:0.0; 
stroke:#00A000; stroke-width:0; stroke-opacity:1; 
stroke-linecap:round; stroke-linejoin:round;">
</g>
<g style="fill:#00A000; fill-opacity:1.0; 
stroke:#00A000; stroke-width:100; stroke-opacity:1; 
stroke-linecap:round; stroke-linejoin:round;">
<circle cx="42000" cy="31000" r="160" /> 
</g>
<g style="fill:#00A000; fill-opacity:1.0; 
stroke:#00A000; stroke-width:60; stroke-opacity:1; 
stroke-linecap:round; stroke-linejoin:round;">
<path d="M41000 31000
L42000 31000
" />
<path d="M42000 31000
L43000 31000
" />
<path d="M35000 32000
L34000 32000
" />
<path d="M46000 35000
L46000 34000
" />
<path d="M45000 31000
L46000 31000
" />
<path d="M46000 31000
L47000 31000
" />
<path d="M46000 31000
L46000 32000
" />
</g>
<g style="fill:#00A000; fill-opacity:1.0; 
stroke:#00A000; stroke-width:0; stroke-opacity:1; 
stroke-linecap:round; stroke-linejoin:round;">
</g>
<g style="fill:#00A000; fill-opacity:1.0; 
stroke:#00A000; stroke-width:100; stroke-opacity:1; 
stroke-linecap:round; stroke-linejoin:round;">
<circle cx="46000" cy="31000" r="160" /> 
</g>
<g style="fill:#00A000; fill-opacity:1.0; 
stroke:#00A000; stroke-width:60; stroke-opacity:1; 
stroke-linecap:round; stroke-linejoin:round;">
<path d="M38000 34000
L38000 33000
" />
<path d="M38000 29000
L38000 28000
" />
</g> 
</svg>
