<?xml version="1.0" standalone="no"?>
 <!DOCTYPE svg PUBLIC "-//W3C//DTD SVG 1.1//EN" 
 "http://www.w3.org/Graphics/SVG/1.1/DTD/svg11.dtd"> 
<svg xmlns="http://www.w3.org/2000/svg" version="1.1" 
    width="21.59cm" height="16.51cm" viewBox="0 0 85000 65000 ">
<title>SVG Picture created as power-Power supply.svg date 2015/06/15 15:13:54 </title>
  <desc>Picture generated by Eeschema-SVG </desc>
<g style="fill:#000000; fill-opacity:1;stroke:#000000; stroke-opacity:1;
stroke-linecap:round; stroke-linejoin:round; "
 transform="translate(0 0) scale(1 1)">
</g>
<g style="fill:#A00000; fill-opacity:0.0; 
stroke:#A00000; stroke-width:100; stroke-opacity:1; 
stroke-linecap:round; stroke-linejoin:round;">
<path d="M4000 4000
L81000 4000
L81000 61000
L4000 61000
L4000 4000
" />
<path d="M4700 4700
L80300 4700
L80300 60300
L4700 60300
L4700 4700
" />
<path d="M29660 4000
L29660 4700
" />
<path d="M16970 4550
L16690 4550
" />
<path d="M16830 4550
L16830 4050
L16780 4120
L16730 4170
L16690 4200
" />
<path d="M29660 61000
L29660 60300
" />
<path d="M16970 60850
L16690 60850
" />
<path d="M16830 60850
L16830 60350
L16780 60420
L16730 60470
L16690 60500
" />
<path d="M55320 4000
L55320 4700
" />
<path d="M42350 4100
L42370 4080
L42420 4050
L42540 4050
L42580 4080
L42610 4100
L42630 4150
L42630 4200
L42610 4270
L42320 4550
L42630 4550
" />
<path d="M55320 61000
L55320 60300
" />
<path d="M42350 60400
L42370 60380
L42420 60350
L42540 60350
L42580 60380
L42610 60400
L42630 60450
L42630 60500
L42610 60570
L42320 60850
L42630 60850
" />
<path d="M67980 4050
L68290 4050
L68120 4240
L68200 4240
L68240 4270
L68270 4290
L68290 4340
L68290 4460
L68270 4500
L68240 4530
L68200 4550
L68050 4550
L68010 4530
L67980 4500
" />
<path d="M67980 60350
L68290 60350
L68120 60540
L68200 60540
L68240 60570
L68270 60590
L68290 60640
L68290 60760
L68270 60800
L68240 60830
L68200 60850
L68050 60850
L68010 60830
L67980 60800
" />
<path d="M4000 32500
L4700 32500
" />
<path d="M4240 18310
L4470 18310
" />
<path d="M4190 18450
L4350 17950
L4520 18450
" />
<path d="M81000 32500
L80300 32500
" />
<path d="M80540 18310
L80770 18310
" />
<path d="M80490 18450
L80650 17950
L80820 18450
" />
<path d="M4390 46690
L4460 46710
L4480 46740
L4500 46790
L4500 46860
L4480 46900
L4460 46930
L4410 46950
L4220 46950
L4220 46450
L4390 46450
L4430 46480
L4460 46500
L4480 46550
L4480 46600
L4460 46640
L4430 46670
L4390 46690
L4220 46690
" />
<path d="M80690 46690
L80760 46710
L80780 46740
L80800 46790
L80800 46860
L80780 46900
L80760 46930
L80710 46950
L80520 46950
L80520 46450
L80690 46450
L80730 46480
L80760 46500
L80780 46550
L80780 46600
L80760 46640
L80730 46670
L80690 46690
L80520 46690
" />
<path d="M47450 58740
L47520 58140
L47670 58140
L47750 58170
L47800 58230
L47820 58290
L47840 58400
L47830 58490
L47790 58600
L47750 58660
L47680 58710
L47600 58740
L47450 58740
" />
<path d="M48310 58740
L48350 58430
L48320 58370
L48270 58340
L48160 58340
L48090 58370
" />
<path d="M48310 58710
L48250 58740
L48110 58740
L48050 58710
L48030 58660
L48040 58600
L48070 58540
L48140 58510
L48280 58510
L48340 58490
" />
<path d="M48560 58340
L48790 58340
" />
<path d="M48660 58140
L48600 58660
L48620 58710
L48680 58740
L48740 58740
" />
<path d="M49160 58710
L49100 58740
L48990 58740
L48930 58710
L48910 58660
L48940 58430
L48970 58370
L49040 58340
L49150 58340
L49200 58370
L49230 58430
L49220 58490
L48920 58540
" />
<path d="M49440 58690
L49470 58710
L49440 58740
L49410 58710
L49440 58690
L49440 58740
" />
<path d="M49480 58370
L49510 58400
L49480 58430
L49450 58400
L49480 58370
L49480 58430
" />
<path d="M50510 58740
L50160 58740
" />
<path d="M50340 58740
L50410 58140
L50340 58230
L50270 58290
L50210 58310
" />
<path d="M51120 58140
L50830 58140
L50770 58430
L50800 58400
L50860 58370
L51000 58370
L51060 58400
L51090 58430
L51110 58490
L51090 58630
L51050 58690
L51020 58710
L50960 58740
L50820 58740
L50760 58710
L50730 58690
" />
<path d="M51840 58340
L51770 58860
L51740 58910
L51680 58940
L51650 58940
" />
<path d="M51860 58140
L51830 58170
L51860 58200
L51890 58170
L51860 58140
L51860 58200
" />
<path d="M52390 58340
L52340 58740
" />
<path d="M52130 58340
L52090 58660
L52110 58710
L52170 58740
L52250 58740
L52310 58710
L52340 58690
" />
<path d="M52670 58340
L52620 58740
" />
<path d="M52660 58400
L52690 58370
L52760 58340
L52840 58340
L52890 58370
L52920 58430
L52880 58740
" />
<path d="M53660 58200
L53690 58170
L53750 58140
L53890 58140
L53950 58170
L53980 58200
L54000 58260
L53990 58310
L53950 58400
L53570 58740
L53940 58740
" />
<path d="M54380 58140
L54430 58140
L54490 58170
L54520 58200
L54540 58260
L54550 58370
L54540 58510
L54490 58630
L54450 58690
L54420 58710
L54360 58740
L54310 58740
L54250 58710
L54220 58690
L54200 58630
L54190 58510
L54200 58370
L54250 58260
L54290 58200
L54320 58170
L54380 58140
" />
<path d="M55080 58740
L54730 58740
" />
<path d="M54910 58740
L54980 58140
L54910 58230
L54840 58290
L54780 58310
" />
<path d="M55690 58140
L55400 58140
L55340 58430
L55370 58400
L55430 58370
L55570 58370
L55630 58400
L55660 58430
L55680 58490
L55660 58630
L55620 58690
L55590 58710
L55530 58740
L55390 58740
L55330 58710
L55300 58690
" />
<path d="M39040 59940
L39040 59340
" />
<path d="M39390 59940
L39130 59600
" />
<path d="M39390 59340
L39040 59690
" />
<path d="M39640 59940
L39640 59540
" />
<path d="M39640 59340
L39610 59370
L39640 59400
L39670 59370
L39640 59340
L39640 59400
" />
<path d="M40280 59890
L40250 59910
L40160 59940
L40100 59940
L40020 59910
L39960 59860
L39930 59800
L39900 59690
L39900 59600
L39930 59490
L39960 59430
L40020 59370
L40100 59340
L40160 59340
L40250 59370
L40280 59400
" />
<path d="M40790 59940
L40790 59630
L40760 59570
L40700 59540
L40590 59540
L40530 59570
" />
<path d="M40790 59910
L40730 59940
L40590 59940
L40530 59910
L40500 59860
L40500 59800
L40530 59740
L40590 59710
L40730 59710
L40790 59690
" />
<path d="M41330 59940
L41330 59340
" />
<path d="M41330 59910
L41270 59940
L41160 59940
L41100 59910
L41070 59890
L41040 59830
L41040 59660
L41070 59600
L41100 59570
L41160 59540
L41270 59540
L41330 59570
" />
<path d="M42070 59630
L42270 59630
" />
<path d="M42360 59940
L42070 59940
L42070 59340
L42360 59340
" />
<path d="M42610 59890
L42640 59910
L42610 59940
L42580 59910
L42610 59890
L42610 59940
" />
<path d="M42900 59940
L42900 59340
L43050 59340
L43130 59370
L43190 59430
L43220 59490
L43250 59600
L43250 59690
L43220 59800
L43190 59860
L43130 59910
L43050 59940
L42900 59940
" />
<path d="M43500 59890
L43530 59910
L43500 59940
L43470 59910
L43500 59890
L43500 59940
" />
<path d="M43760 59770
L44050 59770
" />
<path d="M43710 59940
L43910 59340
L44110 59940
" />
<path d="M44300 59890
L44330 59910
L44300 59940
L44270 59910
L44300 59890
L44300 59940
" />
<path d="M72600 58740
L72430 58460
" />
<path d="M72250 58740
L72320 58140
L72550 58140
L72610 58170
L72640 58200
L72660 58260
L72650 58340
L72610 58400
L72580 58430
L72510 58460
L72280 58460
" />
<path d="M73080 58710
L73020 58740
L72910 58740
L72850 58710
L72830 58660
L72860 58430
L72890 58370
L72960 58340
L73070 58340
L73120 58370
L73150 58430
L73140 58490
L72840 58540
" />
<path d="M73360 58340
L73450 58740
L73640 58340
" />
<path d="M73820 58690
L73850 58710
L73820 58740
L73790 58710
L73820 58690
L73820 58740
" />
<path d="M73860 58370
L73890 58400
L73860 58430
L73830 58400
L73860 58370
L73860 58430
" />
<path d="M39010 58710
L39100 58740
L39240 58740
L39300 58710
L39330 58690
L39360 58630
L39360 58570
L39330 58510
L39300 58490
L39240 58460
L39130 58430
L39070 58400
L39040 58370
L39010 58310
L39010 58260
L39040 58200
L39070 58170
L39130 58140
L39270 58140
L39360 58170
" />
<path d="M39610 58740
L39610 58340
" />
<path d="M39610 58140
L39580 58170
L39610 58200
L39640 58170
L39610 58140
L39610 58200
" />
<path d="M39850 58340
L40160 58340
L39850 58740
L40160 58740
" />
<path d="M40620 58710
L40560 58740
L40450 58740
L40390 58710
L40360 58660
L40360 58430
L40390 58370
L40450 58340
L40560 58340
L40620 58370
L40650 58430
L40650 58490
L40360 58540
" />
<path d="M40900 58690
L40930 58710
L40900 58740
L40870 58710
L40900 58690
L40900 58740
" />
<path d="M40900 58370
L40930 58400
L40900 58430
L40870 58400
L40900 58370
L40900 58430
" />
<path d="M41650 58140
L41650 58630
L41680 58690
L41710 58710
L41770 58740
L41880 58740
L41940 58710
L41970 58690
L42000 58630
L42000 58140
" />
<path d="M42250 58710
L42310 58740
L42430 58740
L42480 58710
L42510 58660
L42510 58630
L42480 58570
L42430 58540
L42340 58540
L42280 58510
L42250 58460
L42250 58430
L42280 58370
L42340 58340
L42430 58340
L42480 58370
" />
<path d="M43000 58710
L42940 58740
L42830 58740
L42770 58710
L42740 58660
L42740 58430
L42770 58370
L42830 58340
L42940 58340
L43000 58370
L43030 58430
L43030 58490
L42740 58540
" />
<path d="M43280 58740
L43280 58340
" />
<path d="M43280 58460
L43310 58400
L43340 58370
L43400 58340
L43450 58340
" />
<path d="M72240 59940
L72240 59340
" />
<path d="M72790 59940
L72790 59340
" />
<path d="M72790 59910
L72730 59940
L72620 59940
L72560 59910
L72530 59890
L72500 59830
L72500 59660
L72530 59600
L72560 59570
L72620 59540
L72730 59540
L72790 59570
" />
<path d="M73070 59890
L73100 59910
L73070 59940
L73040 59910
L73070 59890
L73070 59940
" />
<path d="M73070 59570
L73100 59600
L73070 59630
L73040 59600
L73070 59570
L73070 59630
" />
<path d="M73910 59600
L73850 59570
L73820 59540
L73790 59490
L73790 59460
L73820 59400
L73850 59370
L73910 59340
L74020 59340
L74080 59370
L74110 59400
L74140 59460
L74140 59490
L74110 59540
L74080 59570
L74020 59600
L73910 59600
L73850 59630
L73820 59660
L73790 59710
L73790 59830
L73820 59890
L73850 59910
L73910 59940
L74020 59940
L74080 59910
L74110 59890
L74140 59830
L74140 59710
L74110 59660
L74080 59630
L74020 59600
" />
<path d="M74820 59310
L74310 60090
" />
<path d="M75110 59600
L75050 59570
L75020 59540
L74990 59490
L74990 59460
L75020 59400
L75050 59370
L75110 59340
L75220 59340
L75280 59370
L75310 59400
L75340 59460
L75340 59490
L75310 59540
L75280 59570
L75220 59600
L75110 59600
L75050 59630
L75020 59660
L74990 59710
L74990 59830
L75020 59890
L75050 59910
L75110 59940
L75220 59940
L75280 59910
L75310 59890
L75340 59830
L75340 59710
L75310 59660
L75280 59630
L75220 59600
" />
<path d="M39040 56940
L39380 56940
" />
<path d="M39140 57540
L39210 56940
" />
<path d="M39510 57540
L39560 57140
" />
<path d="M39580 56940
L39550 56970
L39580 57000
L39610 56970
L39580 56940
L39580 57000
" />
<path d="M39770 57140
L40000 57140
" />
<path d="M39870 56940
L39810 57460
L39830 57510
L39890 57540
L39950 57540
" />
<path d="M40230 57540
L40170 57510
L40150 57460
L40210 56940
" />
<path d="M40680 57510
L40620 57540
L40510 57540
L40450 57510
L40430 57460
L40460 57230
L40490 57170
L40560 57140
L40670 57140
L40720 57170
L40750 57230
L40740 57290
L40440 57340
" />
<path d="M40960 57490
L40990 57510
L40960 57540
L40930 57510
L40960 57490
L40960 57540
" />
<path d="M41000 57170
L41030 57200
L41000 57230
L40970 57200
L41000 57170
L41000 57230
" />
<path d="M41710 57540
L41780 56940
L42010 56940
L42070 56970
L42100 57000
L42120 57060
L42110 57140
L42070 57200
L42040 57230
L41970 57260
L41740 57260
" />
<path d="M42400 57540
L42340 57510
L42310 57490
L42290 57430
L42310 57260
L42350 57200
L42380 57170
L42450 57140
L42530 57140
L42580 57170
L42610 57200
L42630 57260
L42610 57430
L42570 57490
L42540 57510
L42480 57540
L42400 57540
" />
<path d="M42850 57140
L42910 57540
L43050 57260
L43140 57540
L43300 57140
" />
<path d="M43710 57510
L43650 57540
L43540 57540
L43480 57510
L43460 57460
L43490 57230
L43520 57170
L43590 57140
L43700 57140
L43750 57170
L43780 57230
L43770 57290
L43470 57340
" />
<path d="M43990 57540
L44040 57140
" />
<path d="M44020 57260
L44060 57200
L44090 57170
L44160 57140
L44210 57140
" />
<path d="M44790 57510
L44850 57540
L44970 57540
L45020 57510
L45060 57460
L45060 57430
L45040 57370
L44990 57340
L44900 57340
L44850 57310
L44820 57260
L44830 57230
L44860 57170
L44930 57140
L45020 57140
L45060 57170
" />
<path d="M45620 57140
L45570 57540
" />
<path d="M45360 57140
L45320 57460
L45340 57510
L45400 57540
L45480 57540
L45540 57510
L45570 57490
" />
<path d="M45900 57140
L45820 57740
" />
<path d="M45890 57170
L45960 57140
L46070 57140
L46120 57170
L46150 57200
L46170 57260
L46150 57430
L46110 57490
L46080 57510
L46020 57540
L45910 57540
L45850 57510
" />
<path d="M46440 57140
L46360 57740
" />
<path d="M46430 57170
L46500 57140
L46610 57140
L46660 57170
L46690 57200
L46710 57260
L46690 57430
L46650 57490
L46620 57510
L46560 57540
L46450 57540
L46390 57510
" />
<path d="M47020 57540
L46960 57510
L46940 57460
L47000 56940
" />
<path d="M47240 57140
L47330 57540
" />
<path d="M47520 57140
L47330 57540
L47250 57690
L47220 57710
L47160 57740
" />
<path d="M39240 54830
L39040 54830
" />
<path d="M39040 55140
L39040 54540
L39330 54540
" />
<path d="M39550 55140
L39550 54740
" />
<path d="M39550 54540
L39520 54570
L39550 54600
L39580 54570
L39550 54540
L39550 54600
" />
<path d="M39930 55140
L39870 55110
L39840 55060
L39840 54540
" />
<path d="M40380 55110
L40320 55140
L40210 55140
L40150 55110
L40120 55060
L40120 54830
L40150 54770
L40210 54740
L40320 54740
L40380 54770
L40410 54830
L40410 54890
L40120 54940
" />
<path d="M40660 55090
L40690 55110
L40660 55140
L40630 55110
L40660 55090
L40660 55140
" />
<path d="M40660 54770
L40690 54800
L40660 54830
L40630 54800
L40660 54770
L40660 54830
" />
<path d="M41410 54740
L41410 55340
" />
<path d="M41410 54770
L41470 54740
L41580 54740
L41640 54770
L41670 54800
L41700 54860
L41700 55030
L41670 55090
L41640 55110
L41580 55140
L41470 55140
L41410 55110
" />
<path d="M42040 55140
L41980 55110
L41950 55090
L41920 55030
L41920 54860
L41950 54800
L41980 54770
L42040 54740
L42120 54740
L42180 54770
L42210 54800
L42240 54860
L42240 55030
L42210 55090
L42180 55110
L42120 55140
L42040 55140
" />
<path d="M42440 54740
L42550 55140
L42660 54860
L42780 55140
L42890 54740
" />
<path d="M43350 55110
L43290 55140
L43180 55140
L43120 55110
L43090 55060
L43090 54830
L43120 54770
L43180 54740
L43290 54740
L43350 54770
L43380 54830
L43380 54890
L43090 54940
" />
<path d="M43630 55140
L43630 54740
" />
<path d="M43630 54860
L43660 54800
L43690 54770
L43750 54740
L43800 54740
" />
<path d="M44000 55090
L44030 55110
L44000 55140
L43970 55110
L44000 55090
L44000 55140
" />
<path d="M44260 55110
L44320 55140
L44440 55140
L44490 55110
L44520 55060
L44520 55030
L44490 54970
L44440 54940
L44350 54940
L44290 54910
L44260 54860
L44260 54830
L44290 54770
L44350 54740
L44440 54740
L44490 54770
" />
<path d="M45040 55110
L44980 55140
L44870 55140
L44810 55110
L44780 55090
L44750 55030
L44750 54860
L44780 54800
L44810 54770
L44870 54740
L44980 54740
L45040 54770
" />
<path d="M45290 55140
L45290 54540
" />
<path d="M45550 55140
L45550 54830
L45520 54770
L45460 54740
L45380 54740
L45320 54770
L45290 54800
" />
<path d="M39010 56310
L39100 56340
L39240 56340
L39300 56310
L39330 56290
L39360 56230
L39360 56170
L39330 56110
L39300 56090
L39240 56060
L39130 56030
L39070 56000
L39040 55970
L39010 55910
L39010 55860
L39040 55800
L39070 55770
L39130 55740
L39270 55740
L39360 55770
" />
<path d="M39610 56340
L39610 55740
" />
<path d="M39870 56340
L39870 56030
L39840 55970
L39780 55940
L39700 55940
L39640 55970
L39610 56000
" />
<path d="M40380 56310
L40320 56340
L40210 56340
L40150 56310
L40120 56260
L40120 56030
L40150 55970
L40210 55940
L40320 55940
L40380 55970
L40410 56030
L40410 56090
L40120 56140
" />
<path d="M40890 56310
L40830 56340
L40720 56340
L40660 56310
L40630 56260
L40630 56030
L40660 55970
L40720 55940
L40830 55940
L40890 55970
L40920 56030
L40920 56090
L40630 56140
" />
<path d="M41090 55940
L41320 55940
" />
<path d="M41170 55740
L41170 56260
L41200 56310
L41260 56340
L41320 56340
" />
<path d="M41510 56290
L41540 56310
L41510 56340
L41480 56310
L41510 56290
L41510 56340
" />
<path d="M41510 55970
L41540 56000
L41510 56030
L41480 56000
L41510 55970
L41510 56030
" />
<path d="M42690 55710
L42180 56490
" />
<path d="M42890 56340
L42890 55740
L43120 55740
L43180 55770
L43210 55800
L43240 55860
L43240 55940
L43210 56000
L43180 56030
L43120 56060
L42890 56060
" />
<path d="M43580 56340
L43520 56310
L43490 56290
L43460 56230
L43460 56060
L43490 56000
L43520 55970
L43580 55940
L43660 55940
L43720 55970
L43750 56000
L43780 56060
L43780 56230
L43750 56290
L43720 56310
L43660 56340
L43580 56340
" />
<path d="M43980 55940
L44090 56340
L44200 56060
L44320 56340
L44430 55940
" />
<path d="M44890 56310
L44830 56340
L44720 56340
L44660 56310
L44630 56260
L44630 56030
L44660 55970
L44720 55940
L44830 55940
L44890 55970
L44920 56030
L44920 56090
L44630 56140
" />
<path d="M45170 56340
L45170 55940
" />
<path d="M45170 56060
L45200 56000
L45230 55970
L45290 55940
L45340 55940
" />
<path d="M45970 56310
L46030 56340
L46150 56340
L46200 56310
L46230 56260
L46230 56230
L46200 56170
L46150 56140
L46060 56140
L46000 56110
L45970 56060
L45970 56030
L46000 55970
L46060 55940
L46150 55940
L46200 55970
" />
<path d="M46750 55940
L46750 56340
" />
<path d="M46490 55940
L46490 56260
L46520 56310
L46580 56340
L46660 56340
L46720 56310
L46750 56290
" />
<path d="M47030 55940
L47030 56540
" />
<path d="M47030 55970
L47090 55940
L47200 55940
L47260 55970
L47290 56000
L47320 56060
L47320 56230
L47290 56290
L47260 56310
L47200 56340
L47090 56340
L47030 56310
" />
<path d="M47570 55940
L47570 56540
" />
<path d="M47570 55970
L47630 55940
L47740 55940
L47800 55970
L47830 56000
L47860 56060
L47860 56230
L47830 56290
L47800 56310
L47740 56340
L47630 56340
L47570 56310
" />
<path d="M48200 56340
L48140 56310
L48110 56260
L48110 55740
" />
<path d="M48370 55940
L48510 56340
" />
<path d="M48650 55940
L48510 56340
L48450 56490
L48420 56510
L48370 56540
" />
<path d="M49310 55710
L48800 56490
" />
<path d="M38300 54300
L38300 60300
" />
<path d="M38300 54300
L80300 54300
" />
<path d="M38300 54300
L80300 54300
" />
<path d="M38300 56700
L80300 56700
" />
<path d="M71500 57900
L71500 60300
" />
<path d="M38300 59100
L80300 59100
" />
<path d="M38300 57900
L80300 57900
" />
<path d="M44900 57900
L44900 59100
" />
</g>
<g style="fill:#A00000; fill-opacity:0.0; 
stroke:#A00000; stroke-width:0; stroke-opacity:1; 
stroke-linecap:round; stroke-linejoin:round;">
</g>
<g style="fill:#A00000; fill-opacity:0.0; 
stroke:#A00000; stroke-width:60; stroke-opacity:1; 
stroke-linecap:round; stroke-linejoin:round;">
<polyline fill="none;"
points="41500,29500
40500,29500
" /> 
<polyline fill="none;"
points="40750,29800
40350,30250
40600,30200
" /> 
<polyline fill="none;"
points="40600,29650
40200,30100
40450,30050
" /> 
</g>
<g style="fill:#A00000; fill-opacity:1.0; 
stroke:#A00000; stroke-width:60; stroke-opacity:1; 
stroke-linecap:round; stroke-linejoin:round;">
<polyline style="fill-rule:evenodd;"
points="41500,28500
41000,29500
40500,28500
" /> 
<path d="M41000 29500
L41000 31000
" />
</g>
<g style="fill:#A00000; fill-opacity:0.0; 
stroke:#A00000; stroke-width:60; stroke-opacity:1; 
stroke-linecap:round; stroke-linejoin:round;">
<path d="M40860 30140
L40860 30360
" />
<path d="M40860 30250
L40460 30250
L40520 30290
L40560 30330
L40580 30360
" />
<path d="M41000 28500
L41000 27000
" />
<path d="M40500 27860
L40480 27840
L40460 27810
L40460 27710
L40480 27670
L40500 27650
L40540 27640
L40580 27640
L40630 27650
L40860 27880
L40860 27640
" />
</g>
<g style="fill:#00A0A0; fill-opacity:0.0; 
stroke:#00A0A0; stroke-width:60; stroke-opacity:1; 
stroke-linecap:round; stroke-linejoin:round;">
<path d="M42130 28730
L42130 28230
L42250 28230
L42320 28260
L42370 28300
L42390 28350
L42410 28450
L42410 28520
L42390 28610
L42370 28660
L42320 28710
L42250 28730
L42130 28730
" />
<path d="M42580 28230
L42890 28230
L42720 28420
L42800 28420
L42840 28450
L42870 28470
L42890 28520
L42890 28640
L42870 28680
L42840 28710
L42800 28730
L42650 28730
L42610 28710
L42580 28680
" />
<path d="M41780 29280
L41800 29260
L41850 29230
L41970 29230
L42010 29260
L42040 29280
L42060 29330
L42060 29380
L42040 29450
L41750 29730
L42060 29730
" />
<path d="M42370 29230
L42420 29230
L42470 29260
L42490 29280
L42520 29330
L42540 29420
L42540 29540
L42520 29640
L42490 29680
L42470 29710
L42420 29730
L42370 29730
L42330 29710
L42300 29680
L42280 29640
L42260 29540
L42260 29420
L42280 29330
L42300 29280
L42330 29260
L42370 29230
" />
<path d="M42760 29540
L43140 29540
" />
<path d="M43590 29400
L43590 29730
" />
<path d="M43470 29210
L43360 29570
L43660 29570
" />
<path d="M43950 29230
L44000 29230
L44050 29260
L44070 29280
L44100 29330
L44120 29420
L44120 29540
L44100 29640
L44070 29680
L44050 29710
L44000 29730
L43950 29730
L43910 29710
L43880 29680
L43860 29640
L43840 29540
L43840 29420
L43860 29330
L43880 29280
L43910 29260
L43950 29230
" />
<path d="M44340 29730
L44340 29400
" />
<path d="M44340 29450
L44360 29420
L44410 29400
L44480 29400
L44530 29420
L44550 29470
L44550 29730
" />
<path d="M44550 29470
L44580 29420
L44620 29400
L44700 29400
L44740 29420
L44770 29470
L44770 29730
" />
<path d="M44990 29590
L45220 29590
" />
<path d="M44940 29730
L45100 29230
L45270 29730
" />
</g>
<g style="fill:#00A0A0; fill-opacity:0.0; 
stroke:#00A0A0; stroke-width:0; stroke-opacity:1; 
stroke-linecap:round; stroke-linejoin:round;">
</g>
<g style="fill:#A00000; fill-opacity:0.0; 
stroke:#A00000; stroke-width:100; stroke-opacity:1; 
stroke-linecap:round; stroke-linejoin:round;">
<circle cx="41500" cy="34000" r="1110" /> 
</g>
<g style="fill:#A00000; fill-opacity:0.0; 
stroke:#A00000; stroke-width:200; stroke-opacity:1; 
stroke-linecap:round; stroke-linejoin:round;">
<polyline fill="none;"
points="41750,33250
41750,34750
41750,34750
" /> 
</g>
<g style="fill:#A00000; fill-opacity:1.0; 
stroke:#A00000; stroke-width:60; stroke-opacity:1; 
stroke-linecap:round; stroke-linejoin:round;">
<polyline style="fill-rule:evenodd;"
points="41800,34500
42200,34350
42200,34650
41800,34500
" /> 
</g>
<g style="fill:#A00000; fill-opacity:0.0; 
stroke:#A00000; stroke-width:60; stroke-opacity:1; 
stroke-linecap:round; stroke-linejoin:round;">
<polyline fill="none;"
points="41700,34500
41000,34500
41000,35000
41000,35000
" /> 
<polyline fill="none;"
points="41700,33500
41000,33500
41000,33000
41000,33000
" /> 
<path d="M41000 33000
L41000 32000
" />
</g>
<g style="fill:#00A0A0; fill-opacity:0.0; 
stroke:#00A0A0; stroke-width:60; stroke-opacity:1; 
stroke-linecap:round; stroke-linejoin:round;">
<path d="M40850 32630
L40350 32630
L40350 32510
L40380 32440
L40420 32390
L40470 32370
L40570 32350
L40640 32350
L40730 32370
L40780 32390
L40830 32440
L40850 32510
L40850 32630
" />
</g>
<g style="fill:#A00000; fill-opacity:0.0; 
stroke:#A00000; stroke-width:60; stroke-opacity:1; 
stroke-linecap:round; stroke-linejoin:round;">
<path d="M41550 32360
L41550 32640
" />
<path d="M41550 32500
L41050 32500
L41120 32550
L41170 32600
L41200 32640
" />
<path d="M42000 34500
L44000 34500
" />
</g>
<g style="fill:#00A0A0; fill-opacity:0.0; 
stroke:#00A0A0; stroke-width:60; stroke-opacity:1; 
stroke-linecap:round; stroke-linejoin:round;">
<path d="M43130 33880
L43080 33850
L43010 33850
L42940 33880
L42890 33920
L42870 33970
L42850 34070
L42850 34140
L42870 34230
L42890 34280
L42940 34330
L43010 34350
L43060 34350
L43130 34330
L43150 34300
L43150 34140
L43060 34140
" />
</g>
<g style="fill:#A00000; fill-opacity:0.0; 
stroke:#A00000; stroke-width:60; stroke-opacity:1; 
stroke-linecap:round; stroke-linejoin:round;">
<path d="M42860 34600
L42880 34580
L42930 34550
L43050 34550
L43090 34580
L43120 34600
L43140 34650
L43140 34700
L43120 34770
L42830 35050
L43140 35050
" />
<path d="M41000 35000
L41000 36000
" />
</g>
<g style="fill:#00A0A0; fill-opacity:0.0; 
stroke:#00A0A0; stroke-width:60; stroke-opacity:1; 
stroke-linecap:round; stroke-linejoin:round;">
<path d="M40830 35640
L40850 35570
L40850 35450
L40830 35410
L40800 35380
L40760 35360
L40710 35360
L40660 35380
L40640 35410
L40610 35450
L40590 35550
L40570 35600
L40540 35620
L40500 35640
L40450 35640
L40400 35620
L40380 35600
L40350 35550
L40350 35430
L40380 35360
" />
</g>
<g style="fill:#A00000; fill-opacity:0.0; 
stroke:#A00000; stroke-width:60; stroke-opacity:1; 
stroke-linecap:round; stroke-linejoin:round;">
<path d="M41050 35670
L41050 35360
L41240 35530
L41240 35450
L41270 35410
L41290 35380
L41340 35360
L41460 35360
L41500 35380
L41530 35410
L41550 35450
L41550 35600
L41530 35640
L41500 35670
" />
</g>
<g style="fill:#00A0A0; fill-opacity:0.0; 
stroke:#00A0A0; stroke-width:60; stroke-opacity:1; 
stroke-linecap:round; stroke-linejoin:round;">
<path d="M39450 33470
L39400 33450
L39360 33400
L39290 33330
L39240 33300
L39190 33300
" />
<path d="M39210 33420
L39170 33400
L39120 33350
L39100 33260
L39100 33090
L39120 32990
L39170 32950
L39210 32920
L39310 32920
L39360 32950
L39400 32990
L39430 33090
L39430 33260
L39400 33350
L39360 33400
L39310 33420
L39210 33420
" />
<path d="M39900 33420
L39620 33420
" />
<path d="M39760 33420
L39760 32920
L39710 32990
L39660 33040
L39620 33070
" />
<path d="M38440 33670
L38440 34030
L38420 34100
L38370 34150
L38300 34170
L38250 34170
" />
<path d="M38630 33670
L38940 33670
L38770 33860
L38850 33860
L38890 33890
L38920 33910
L38940 33960
L38940 34080
L38920 34120
L38890 34150
L38850 34170
L38700 34170
L38660 34150
L38630 34120
" />
<path d="M39250 33670
L39300 33670
L39350 33700
L39370 33720
L39400 33770
L39420 33860
L39420 33980
L39400 34080
L39370 34120
L39350 34150
L39300 34170
L39250 34170
L39210 34150
L39180 34120
L39160 34080
L39140 33980
L39140 33860
L39160 33770
L39180 33720
L39210 33700
L39250 33670
" />
<path d="M39660 34170
L39760 34170
L39810 34150
L39830 34120
L39880 34050
L39900 33960
L39900 33770
L39880 33720
L39850 33700
L39810 33670
L39710 33670
L39660 33700
L39640 33720
L39620 33770
L39620 33890
L39640 33930
L39660 33960
L39710 33980
L39810 33980
L39850 33960
L39880 33930
L39900 33890
" />
</g>
<g style="fill:#A000A0; fill-opacity:0.0; 
stroke:#A000A0; stroke-width:60; stroke-opacity:1; 
stroke-linecap:round; stroke-linejoin:round;">
<path d="M37580 34420
L37860 34420
" />
<path d="M37660 34920
L37720 34420
" />
<path d="M38120 34420
L38220 34420
L38270 34450
L38300 34490
L38320 34590
L38300 34760
L38260 34850
L38210 34900
L38160 34920
L38060 34920
L38020 34900
L37980 34850
L37970 34760
L37990 34590
L38020 34490
L38080 34450
L38120 34420
" />
<path d="M38510 34730
L38890 34730
" />
<path d="M39130 34920
L39230 34920
L39280 34900
L39300 34870
L39360 34800
L39390 34710
L39420 34520
L39400 34470
L39380 34450
L39340 34420
L39240 34420
L39190 34450
L39160 34470
L39140 34520
L39120 34640
L39140 34680
L39150 34710
L39200 34730
L39300 34730
L39340 34710
L39380 34680
L39400 34640
" />
<path d="M39620 34470
L39650 34450
L39700 34420
L39820 34420
L39860 34450
L39880 34470
L39900 34520
L39890 34570
L39860 34640
L39540 34920
L39850 34920
" />
</g>
<g style="fill:#A000A0; fill-opacity:0.0; 
stroke:#A000A0; stroke-width:0; stroke-opacity:1; 
stroke-linecap:round; stroke-linejoin:round;">
</g>
<g style="fill:#A00000; fill-opacity:0.0; 
stroke:#A00000; stroke-width:200; stroke-opacity:1; 
stroke-linecap:round; stroke-linejoin:round;">
<path d="M51802.1 29002.4 A1280 1280 0.0 0 0 50201.4 28999.7 " />
<polyline fill="none;"
points="51800,28200
50200,28200
" /> 
</g>
<g style="fill:#A00000; fill-opacity:0.0; 
stroke:#A00000; stroke-width:60; stroke-opacity:1; 
stroke-linecap:round; stroke-linejoin:round;">
<polyline fill="none;"
points="51700,27600
51300,27600
" /> 
<polyline fill="none;"
points="51500,27800
51500,27400
" /> 
<path d="M51000 28100
L51000 27000
" />
<path d="M51000 28700
L51000 30000
" />
</g>
<g style="fill:#00A0A0; fill-opacity:0.0; 
stroke:#00A0A0; stroke-width:60; stroke-opacity:1; 
stroke-linecap:round; stroke-linejoin:round;">
<path d="M52420 28120
L52400 28150
L52330 28170
L52280 28170
L52210 28150
L52160 28100
L52140 28050
L52120 27960
L52120 27890
L52140 27790
L52160 27740
L52210 27700
L52280 27670
L52330 27670
L52400 27700
L52420 27720
" />
<path d="M52590 27670
L52920 27670
L52710 28170
" />
<path d="M52420 29170
L52140 29170
" />
<path d="M52280 29170
L52280 28670
L52230 28740
L52180 28790
L52140 28820
" />
<path d="M52730 28670
L52780 28670
L52830 28700
L52850 28720
L52880 28770
L52900 28860
L52900 28980
L52880 29080
L52850 29120
L52830 29150
L52780 29170
L52730 29170
L52690 29150
L52660 29120
L52640 29080
L52620 28980
L52620 28860
L52640 28770
L52660 28720
L52690 28700
L52730 28670
" />
<path d="M53210 28670
L53260 28670
L53310 28700
L53330 28720
L53360 28770
L53380 28860
L53380 28980
L53360 29080
L53330 29120
L53310 29150
L53260 29170
L53210 29170
L53170 29150
L53140 29120
L53120 29080
L53100 28980
L53100 28860
L53120 28770
L53140 28720
L53170 28700
L53210 28670
" />
<path d="M53600 28840
L53600 29340
" />
<path d="M53840 29100
L53860 29150
L53910 29170
" />
<path d="M53600 29100
L53620 29150
L53670 29170
L53770 29170
L53810 29150
L53840 29100
L53840 28840
" />
</g>
<g style="fill:#00A0A0; fill-opacity:0.0; 
stroke:#00A0A0; stroke-width:0; stroke-opacity:1; 
stroke-linecap:round; stroke-linejoin:round;">
</g>
<g style="fill:#A00000; fill-opacity:0.0; 
stroke:#A00000; stroke-width:200; stroke-opacity:1; 
stroke-linecap:round; stroke-linejoin:round;">
<path d="M51802.1 34002.4 A1280 1280 0.0 0 0 50201.4 33999.7 " />
<polyline fill="none;"
points="51800,33200
50200,33200
" /> 
</g>
<g style="fill:#A00000; fill-opacity:0.0; 
stroke:#A00000; stroke-width:60; stroke-opacity:1; 
stroke-linecap:round; stroke-linejoin:round;">
<polyline fill="none;"
points="51700,32600
51300,32600
" /> 
<polyline fill="none;"
points="51500,32800
51500,32400
" /> 
<path d="M51000 33100
L51000 32000
" />
<path d="M51000 33700
L51000 35000
" />
</g>
<g style="fill:#00A0A0; fill-opacity:0.0; 
stroke:#00A0A0; stroke-width:60; stroke-opacity:1; 
stroke-linecap:round; stroke-linejoin:round;">
<path d="M52420 33120
L52400 33150
L52330 33170
L52280 33170
L52210 33150
L52160 33100
L52140 33050
L52120 32960
L52120 32890
L52140 32790
L52160 32740
L52210 32700
L52280 32670
L52330 32670
L52400 32700
L52420 32720
" />
<path d="M52710 32890
L52660 32860
L52640 32840
L52620 32790
L52620 32770
L52640 32720
L52660 32700
L52710 32670
L52810 32670
L52850 32700
L52880 32720
L52900 32770
L52900 32790
L52880 32840
L52850 32860
L52810 32890
L52710 32890
L52660 32910
L52640 32930
L52620 32980
L52620 33080
L52640 33120
L52660 33150
L52710 33170
L52810 33170
L52850 33150
L52880 33120
L52900 33080
L52900 32980
L52880 32930
L52850 32910
L52810 32890
" />
<path d="M52420 34170
L52140 34170
" />
<path d="M52280 34170
L52280 33670
L52230 33740
L52180 33790
L52140 33820
" />
<path d="M52730 33670
L52780 33670
L52830 33700
L52850 33720
L52880 33770
L52900 33860
L52900 33980
L52880 34080
L52850 34120
L52830 34150
L52780 34170
L52730 34170
L52690 34150
L52660 34120
L52640 34080
L52620 33980
L52620 33860
L52640 33770
L52660 33720
L52690 33700
L52730 33670
" />
<path d="M53210 33670
L53260 33670
L53310 33700
L53330 33720
L53360 33770
L53380 33860
L53380 33980
L53360 34080
L53330 34120
L53310 34150
L53260 34170
L53210 34170
L53170 34150
L53140 34120
L53120 34080
L53100 33980
L53100 33860
L53120 33770
L53140 33720
L53170 33700
L53210 33670
" />
<path d="M53600 33840
L53600 34340
" />
<path d="M53840 34100
L53860 34150
L53910 34170
" />
<path d="M53600 34100
L53620 34150
L53670 34170
L53770 34170
L53810 34150
L53840 34100
L53840 33840
" />
</g>
<g style="fill:#00A0A0; fill-opacity:0.0; 
stroke:#00A0A0; stroke-width:0; stroke-opacity:1; 
stroke-linecap:round; stroke-linejoin:round;">
</g>
<g style="fill:#A00000; fill-opacity:0.0; 
stroke:#A00000; stroke-width:100; stroke-opacity:1; 
stroke-linecap:round; stroke-linejoin:round;">
<rect x="46600" y="27500" width="800" height="2000" rx="0" />
</g>
<g style="fill:#A00000; fill-opacity:0.0; 
stroke:#A00000; stroke-width:60; stroke-opacity:1; 
stroke-linecap:round; stroke-linejoin:round;">
<path d="M47000 27500
L47000 27000
" />
</g>
<g style="fill:#00A0A0; fill-opacity:0.0; 
stroke:#00A0A0; stroke-width:60; stroke-opacity:1; 
stroke-linecap:round; stroke-linejoin:round;">
</g>
<g style="fill:#A00000; fill-opacity:0.0; 
stroke:#A00000; stroke-width:60; stroke-opacity:1; 
stroke-linecap:round; stroke-linejoin:round;">
<path d="M47000 29500
L47000 30000
" />
</g>
<g style="fill:#00A0A0; fill-opacity:0.0; 
stroke:#00A0A0; stroke-width:60; stroke-opacity:1; 
stroke-linecap:round; stroke-linejoin:round;">
<path d="M47670 28170
L47510 27930
" />
<path d="M47390 28170
L47390 27670
L47580 27670
L47630 27700
L47650 27720
L47670 27770
L47670 27840
L47650 27890
L47630 27910
L47580 27930
L47390 27930
" />
<path d="M47840 27670
L48150 27670
L47980 27860
L48060 27860
L48100 27890
L48130 27910
L48150 27960
L48150 28080
L48130 28120
L48100 28150
L48060 28170
L47910 28170
L47870 28150
L47840 28120
" />
<path d="M48460 27670
L48510 27670
L48560 27700
L48580 27720
L48610 27770
L48630 27860
L48630 27980
L48610 28080
L48580 28120
L48560 28150
L48510 28170
L48460 28170
L48420 28150
L48390 28120
L48370 28080
L48350 27980
L48350 27860
L48370 27770
L48390 27720
L48420 27700
L48460 27670
" />
<path d="M47940 29170
L47660 29170
" />
<path d="M47800 29170
L47800 28670
L47750 28740
L47700 28790
L47660 28820
" />
<path d="M48160 29170
L48160 28670
" />
<path d="M48210 28980
L48350 29170
" />
<path d="M48350 28840
L48160 29030
" />
</g>
<g style="fill:#00A0A0; fill-opacity:0.0; 
stroke:#00A0A0; stroke-width:0; stroke-opacity:1; 
stroke-linecap:round; stroke-linejoin:round;">
</g>
<g style="fill:#A00000; fill-opacity:0.0; 
stroke:#A00000; stroke-width:100; stroke-opacity:1; 
stroke-linecap:round; stroke-linejoin:round;">
<rect x="46600" y="32500" width="800" height="2000" rx="0" />
</g>
<g style="fill:#A00000; fill-opacity:0.0; 
stroke:#A00000; stroke-width:60; stroke-opacity:1; 
stroke-linecap:round; stroke-linejoin:round;">
<path d="M47000 32500
L47000 32000
" />
</g>
<g style="fill:#00A0A0; fill-opacity:0.0; 
stroke:#00A0A0; stroke-width:60; stroke-opacity:1; 
stroke-linecap:round; stroke-linejoin:round;">
</g>
<g style="fill:#A00000; fill-opacity:0.0; 
stroke:#A00000; stroke-width:60; stroke-opacity:1; 
stroke-linecap:round; stroke-linejoin:round;">
<path d="M47000 34500
L47000 35000
" />
</g>
<g style="fill:#00A0A0; fill-opacity:0.0; 
stroke:#00A0A0; stroke-width:60; stroke-opacity:1; 
stroke-linecap:round; stroke-linejoin:round;">
<path d="M47670 33170
L47510 32930
" />
<path d="M47390 33170
L47390 32670
L47580 32670
L47630 32700
L47650 32720
L47670 32770
L47670 32840
L47650 32890
L47630 32910
L47580 32930
L47390 32930
" />
<path d="M47840 32670
L48150 32670
L47980 32860
L48060 32860
L48100 32890
L48130 32910
L48150 32960
L48150 33080
L48130 33120
L48100 33150
L48060 33170
L47910 33170
L47870 33150
L47840 33120
" />
<path d="M48630 33170
L48350 33170
" />
<path d="M48490 33170
L48490 32670
L48440 32740
L48390 32790
L48350 32820
" />
<path d="M47940 34170
L47660 34170
" />
<path d="M47800 34170
L47800 33670
L47750 33740
L47700 33790
L47660 33820
" />
<path d="M48160 34170
L48160 33670
" />
<path d="M48210 33980
L48350 34170
" />
<path d="M48350 33840
L48160 34030
" />
</g>
<g style="fill:#00A000; fill-opacity:0.0; 
stroke:#00A000; stroke-width:60; stroke-opacity:1; 
stroke-linecap:round; stroke-linejoin:round;">
<path d="M51000 30000
L51000 32000
" />
<path d="M47000 32000
L47000 30000
" />
<path d="M56500 31000
L47000 31000
" />
</g>
<g style="fill:#00A000; fill-opacity:0.0; 
stroke:#00A000; stroke-width:0; stroke-opacity:1; 
stroke-linecap:round; stroke-linejoin:round;">
</g>
<g style="fill:#00A000; fill-opacity:1.0; 
stroke:#00A000; stroke-width:100; stroke-opacity:1; 
stroke-linecap:round; stroke-linejoin:round;">
<circle cx="47000" cy="31000" r="160" /> 
</g>
<g style="fill:#00A000; fill-opacity:1.0; 
stroke:#00A000; stroke-width:0; stroke-opacity:1; 
stroke-linecap:round; stroke-linejoin:round;">
</g>
<g style="fill:#00A000; fill-opacity:1.0; 
stroke:#00A000; stroke-width:100; stroke-opacity:1; 
stroke-linecap:round; stroke-linejoin:round;">
<circle cx="51000" cy="31000" r="160" /> 
</g>
<g style="fill:#00A000; fill-opacity:1.0; 
stroke:#00A000; stroke-width:60; stroke-opacity:1; 
stroke-linecap:round; stroke-linejoin:round;">
<path d="M41000 31000
L41000 32000
" />
<path d="M44000 34500
L44000 37000
" />
<path d="M41000 37000
L41000 36000
" />
</g>
<g style="fill:#00A000; fill-opacity:1.0; 
stroke:#00A000; stroke-width:0; stroke-opacity:1; 
stroke-linecap:round; stroke-linejoin:round;">
</g>
<g style="fill:#00A000; fill-opacity:1.0; 
stroke:#00A000; stroke-width:100; stroke-opacity:1; 
stroke-linecap:round; stroke-linejoin:round;">
<circle cx="44000" cy="37000" r="160" /> 
</g>
<g style="fill:#00A000; fill-opacity:1.0; 
stroke:#00A000; stroke-width:60; stroke-opacity:1; 
stroke-linecap:round; stroke-linejoin:round;">
<path d="M47000 35000
L47000 37000
" />
</g>
<g style="fill:#00A000; fill-opacity:1.0; 
stroke:#00A000; stroke-width:0; stroke-opacity:1; 
stroke-linecap:round; stroke-linejoin:round;">
</g>
<g style="fill:#00A000; fill-opacity:1.0; 
stroke:#00A000; stroke-width:100; stroke-opacity:1; 
stroke-linecap:round; stroke-linejoin:round;">
<circle cx="47000" cy="37000" r="160" /> 
</g>
<g style="fill:#00A000; fill-opacity:1.0; 
stroke:#00A000; stroke-width:60; stroke-opacity:1; 
stroke-linecap:round; stroke-linejoin:round;">
<path d="M51000 35000
L51000 37000
" />
</g>
<g style="fill:#00A000; fill-opacity:1.0; 
stroke:#00A000; stroke-width:0; stroke-opacity:1; 
stroke-linecap:round; stroke-linejoin:round;">
</g>
<g style="fill:#00A000; fill-opacity:1.0; 
stroke:#00A000; stroke-width:100; stroke-opacity:1; 
stroke-linecap:round; stroke-linejoin:round;">
<circle cx="51000" cy="37000" r="160" /> 
</g>
<g style="fill:#00A000; fill-opacity:1.0; 
stroke:#00A000; stroke-width:60; stroke-opacity:1; 
stroke-linecap:round; stroke-linejoin:round;">
<path d="M41000 27000
L41000 25000
" />
<path d="M51000 27000
L51000 25000
" />
</g>
<g style="fill:#00A000; fill-opacity:1.0; 
stroke:#00A000; stroke-width:0; stroke-opacity:1; 
stroke-linecap:round; stroke-linejoin:round;">
</g>
<g style="fill:#00A000; fill-opacity:1.0; 
stroke:#00A000; stroke-width:100; stroke-opacity:1; 
stroke-linecap:round; stroke-linejoin:round;">
<circle cx="51000" cy="25000" r="160" /> 
</g>
<g style="fill:#00A000; fill-opacity:1.0; 
stroke:#00A000; stroke-width:60; stroke-opacity:1; 
stroke-linecap:round; stroke-linejoin:round;">
<path d="M47000 27000
L47000 25000
" />
</g>
<g style="fill:#00A000; fill-opacity:1.0; 
stroke:#00A000; stroke-width:0; stroke-opacity:1; 
stroke-linecap:round; stroke-linejoin:round;">
</g>
<g style="fill:#00A000; fill-opacity:1.0; 
stroke:#00A000; stroke-width:100; stroke-opacity:1; 
stroke-linecap:round; stroke-linejoin:round;">
<circle cx="47000" cy="25000" r="160" /> 
</g>
<g style="fill:#00A000; fill-opacity:1.0; 
stroke:#00A000; stroke-width:0; stroke-opacity:1; 
stroke-linecap:round; stroke-linejoin:round;">
</g>
<g style="fill:#A00000; fill-opacity:1.0; 
stroke:#A00000; stroke-width:60; stroke-opacity:1; 
stroke-linecap:round; stroke-linejoin:round;">
<rect x="35100" y="33570" width="1800" height="100" rx="0" />
<rect x="35100" y="33000" width="1800" height="100" rx="0" />
<rect x="35420" y="33800" width="1200" height="200" rx="0" />
<rect x="35420" y="33230" width="1200" height="200" rx="0" />
</g>
<g style="fill:#A00000; fill-opacity:0.0; 
stroke:#A00000; stroke-width:100; stroke-opacity:1; 
stroke-linecap:round; stroke-linejoin:round;">
<polyline fill="none;"
points="35800,32550
35400,32550
" /> 
<polyline fill="none;"
points="35600,32350
35600,32750
" /> 
</g>
<g style="fill:#A00000; fill-opacity:0.0; 
stroke:#A00000; stroke-width:60; stroke-opacity:1; 
stroke-linecap:round; stroke-linejoin:round;">
<path d="M36000 33000
L36000 32000
" />
</g>
<g style="fill:#00A0A0; fill-opacity:0.0; 
stroke:#00A0A0; stroke-width:60; stroke-opacity:1; 
stroke-linecap:round; stroke-linejoin:round;">
</g>
<g style="fill:#A00000; fill-opacity:0.0; 
stroke:#A00000; stroke-width:60; stroke-opacity:1; 
stroke-linecap:round; stroke-linejoin:round;">
<path d="M36000 34000
L36000 35000
" />
</g>
<g style="fill:#00A0A0; fill-opacity:0.0; 
stroke:#00A0A0; stroke-width:60; stroke-opacity:1; 
stroke-linecap:round; stroke-linejoin:round;">
<path d="M33500 32910
L33570 32930
L33590 32960
L33610 33010
L33610 33080
L33590 33120
L33570 33150
L33520 33170
L33330 33170
L33330 32670
L33500 32670
L33540 32700
L33570 32720
L33590 32770
L33590 32820
L33570 32860
L33540 32890
L33500 32910
L33330 32910
" />
<path d="M33810 33030
L34040 33030
" />
<path d="M33760 33170
L33920 32670
L34090 33170
" />
<path d="M34190 32670
L34470 32670
" />
<path d="M34330 33170
L34330 32670
" />
<path d="M34900 33170
L34620 33170
" />
<path d="M34760 33170
L34760 32670
L34710 32740
L34660 32790
L34620 32820
" />
<path d="M32840 33840
L32840 34170
" />
<path d="M32720 33650
L32610 34010
L32910 34010
" />
<path d="M33110 33980
L33490 33980
" />
<path d="M33990 34170
L33710 34170
" />
<path d="M33850 34170
L33850 33670
L33800 33740
L33750 33790
L33710 33820
" />
<path d="M34190 33720
L34210 33700
L34260 33670
L34380 33670
L34420 33700
L34450 33720
L34470 33770
L34470 33820
L34450 33890
L34160 34170
L34470 34170
" />
<path d="M34620 33670
L34780 34170
L34950 33670
" />
</g>
<g style="fill:#00A0A0; fill-opacity:0.0; 
stroke:#00A0A0; stroke-width:0; stroke-opacity:1; 
stroke-linecap:round; stroke-linejoin:round;">
</g>
<g style="fill:#00A000; fill-opacity:1.0; 
stroke:#00A000; stroke-width:100; stroke-opacity:1; 
stroke-linecap:round; stroke-linejoin:round;">
<circle cx="41000" cy="25000" r="160" /> 
</g>
<g style="fill:#00A000; fill-opacity:1.0; 
stroke:#00A000; stroke-width:0; stroke-opacity:1; 
stroke-linecap:round; stroke-linejoin:round;">
</g>
<g style="fill:#00A000; fill-opacity:1.0; 
stroke:#00A000; stroke-width:100; stroke-opacity:1; 
stroke-linecap:round; stroke-linejoin:round;">
<circle cx="41000" cy="37000" r="160" /> 
</g>
<g style="fill:#00A000; fill-opacity:1.0; 
stroke:#00A000; stroke-width:0; stroke-opacity:1; 
stroke-linecap:round; stroke-linejoin:round;">
</g>
<g style="fill:#A00000; fill-opacity:1.0; 
stroke:#A00000; stroke-width:60; stroke-opacity:1; 
stroke-linecap:round; stroke-linejoin:round;">
<polyline style="fill-rule:evenodd;"
points="33000,24500
34000,25000
33000,25500
" /> 
</g>
<g style="fill:#A00000; fill-opacity:0.0; 
stroke:#A00000; stroke-width:80; stroke-opacity:1; 
stroke-linecap:round; stroke-linejoin:round;">
<polyline fill="none;"
points="34250,24750
34250,24500
34000,24500
34000,25500
33750,25500
33750,25250
" /> 
</g>
<g style="fill:#A00000; fill-opacity:0.0; 
stroke:#A00000; stroke-width:60; stroke-opacity:1; 
stroke-linecap:round; stroke-linejoin:round;">
<path d="M34000 25000
L35000 25000
" />
<path d="M33000 25000
L32000 25000
" />
</g>
<g style="fill:#00A0A0; fill-opacity:0.0; 
stroke:#00A0A0; stroke-width:60; stroke-opacity:1; 
stroke-linecap:round; stroke-linejoin:round;">
<path d="M33130 24170
L33130 23670
L33250 23670
L33320 23700
L33370 23740
L33390 23790
L33410 23890
L33410 23960
L33390 24050
L33370 24100
L33320 24150
L33250 24170
L33130 24170
" />
<path d="M33890 24170
L33610 24170
" />
<path d="M33750 24170
L33750 23670
L33700 23740
L33650 23790
L33610 23820
" />
</g>
<g style="fill:#00A0A0; fill-opacity:0.0; 
stroke:#00A0A0; stroke-width:0; stroke-opacity:1; 
stroke-linecap:round; stroke-linejoin:round;">
</g>
<g style="fill:#A00000; fill-opacity:0.0; 
stroke:#A00000; stroke-width:60; stroke-opacity:1; 
stroke-linecap:round; stroke-linejoin:round;">
<rect x="25500" y="29500" width="3000" height="5000" rx="0" />
<rect x="28200" y="29950" width="300" height="100" rx="0" />
<rect x="28200" y="30950" width="300" height="100" rx="0" />
<rect x="28200" y="31950" width="300" height="100" rx="0" />
<rect x="28200" y="32950" width="300" height="100" rx="0" />
<rect x="28200" y="33950" width="300" height="100" rx="0" />
<path d="M28500 30000
L30000 30000
" />
</g>
<g style="fill:#00A0A0; fill-opacity:0.0; 
stroke:#00A0A0; stroke-width:60; stroke-opacity:1; 
stroke-linecap:round; stroke-linejoin:round;">
<path d="M26720 29700
L26880 30200
L27050 29700
" />
<path d="M27500 30150
L27480 30180
L27410 30200
L27360 30200
L27290 30180
L27240 30130
L27220 30080
L27200 29990
L27200 29920
L27220 29820
L27240 29770
L27290 29730
L27360 29700
L27410 29700
L27480 29730
L27500 29750
" />
<path d="M28000 30150
L27980 30180
L27910 30200
L27860 30200
L27790 30180
L27740 30130
L27720 30080
L27700 29990
L27700 29920
L27720 29820
L27740 29770
L27790 29730
L27860 29700
L27910 29700
L27980 29730
L28000 29750
" />
</g>
<g style="fill:#A00000; fill-opacity:0.0; 
stroke:#A00000; stroke-width:60; stroke-opacity:1; 
stroke-linecap:round; stroke-linejoin:round;">
<path d="M29390 29850
L29110 29850
" />
<path d="M29250 29850
L29250 29350
L29200 29420
L29150 29470
L29110 29500
" />
<path d="M28500 31000
L30000 31000
" />
</g>
<g style="fill:#00A0A0; fill-opacity:0.0; 
stroke:#00A0A0; stroke-width:60; stroke-opacity:1; 
stroke-linecap:round; stroke-linejoin:round;">
<path d="M27100 31200
L27100 30700
L27220 30700
L27290 30730
L27340 30770
L27360 30820
L27380 30920
L27380 30990
L27360 31080
L27340 31130
L27290 31180
L27220 31200
L27100 31200
" />
<path d="M27600 31010
L27980 31010
" />
</g>
<g style="fill:#A00000; fill-opacity:0.0; 
stroke:#A00000; stroke-width:60; stroke-opacity:1; 
stroke-linecap:round; stroke-linejoin:round;">
<path d="M29110 30400
L29130 30380
L29180 30350
L29300 30350
L29340 30380
L29370 30400
L29390 30450
L29390 30500
L29370 30570
L29080 30850
L29390 30850
" />
<path d="M28500 32000
L30000 32000
" />
</g>
<g style="fill:#00A0A0; fill-opacity:0.0; 
stroke:#00A0A0; stroke-width:60; stroke-opacity:1; 
stroke-linecap:round; stroke-linejoin:round;">
<path d="M27100 32200
L27100 31700
L27220 31700
L27290 31730
L27340 31770
L27360 31820
L27380 31920
L27380 31990
L27360 32080
L27340 32130
L27290 32180
L27220 32200
L27100 32200
" />
<path d="M27600 32010
L27980 32010
" />
<path d="M27790 32200
L27790 31820
" />
</g>
<g style="fill:#A00000; fill-opacity:0.0; 
stroke:#A00000; stroke-width:60; stroke-opacity:1; 
stroke-linecap:round; stroke-linejoin:round;">
<path d="M29080 31350
L29390 31350
L29220 31540
L29300 31540
L29340 31570
L29370 31590
L29390 31640
L29390 31760
L29370 31800
L29340 31830
L29300 31850
L29150 31850
L29110 31830
L29080 31800
" />
<path d="M28500 33000
L30000 33000
" />
</g>
<g style="fill:#00A0A0; fill-opacity:0.0; 
stroke:#00A0A0; stroke-width:60; stroke-opacity:1; 
stroke-linecap:round; stroke-linejoin:round;">
<path d="M27480 33200
L27480 32700
" />
<path d="M27720 33200
L27720 32700
L27840 32700
L27910 32730
L27960 32770
L27980 32820
L28000 32920
L28000 32990
L27980 33080
L27960 33130
L27910 33180
L27840 33200
L27720 33200
" />
</g>
<g style="fill:#A00000; fill-opacity:0.0; 
stroke:#A00000; stroke-width:60; stroke-opacity:1; 
stroke-linecap:round; stroke-linejoin:round;">
<path d="M29340 32520
L29340 32850
" />
<path d="M29220 32330
L29110 32690
L29410 32690
" />
<path d="M28500 34000
L30000 34000
" />
</g>
<g style="fill:#00A0A0; fill-opacity:0.0; 
stroke:#00A0A0; stroke-width:60; stroke-opacity:1; 
stroke-linecap:round; stroke-linejoin:round;">
<path d="M26960 33730
L26910 33700
L26840 33700
L26770 33730
L26720 33770
L26700 33820
L26680 33920
L26680 33990
L26700 34080
L26720 34130
L26770 34180
L26840 34200
L26890 34200
L26960 34180
L26980 34150
L26980 33990
L26890 33990
" />
<path d="M27200 34200
L27200 33700
L27480 34200
L27480 33700
" />
<path d="M27720 34200
L27720 33700
L27840 33700
L27910 33730
L27960 33770
L27980 33820
L28000 33920
L28000 33990
L27980 34080
L27960 34130
L27910 34180
L27840 34200
L27720 34200
" />
</g>
<g style="fill:#A00000; fill-opacity:0.0; 
stroke:#A00000; stroke-width:60; stroke-opacity:1; 
stroke-linecap:round; stroke-linejoin:round;">
<path d="M29370 33350
L29130 33350
L29110 33590
L29130 33570
L29180 33540
L29300 33540
L29340 33570
L29370 33590
L29390 33640
L29390 33760
L29370 33800
L29340 33830
L29300 33850
L29180 33850
L29130 33830
L29110 33800
" />
<path d="M26000 34500
L26000 36000
" />
</g>
<g style="fill:#00A0A0; fill-opacity:0.0; 
stroke:#00A0A0; stroke-width:60; stroke-opacity:1; 
stroke-linecap:round; stroke-linejoin:round;">
<path d="M26180 34000
L26200 33960
L26200 33860
L26180 33810
L26130 33790
L26110 33790
L26060 33810
L26040 33860
L26040 33930
L26010 33980
L25960 34000
L25940 34000
L25890 33980
L25870 33930
L25870 33860
L25890 33810
" />
<path d="M26200 33580
L25700 33580
" />
<path d="M26200 33370
L25940 33370
L25890 33390
L25870 33440
L25870 33510
L25890 33560
L25920 33580
" />
<path d="M26200 33130
L25870 33130
" />
<path d="M25700 33130
L25730 33150
L25750 33130
L25730 33110
L25700 33130
L25750 33130
" />
<path d="M26180 32700
L26200 32750
L26200 32840
L26180 32890
L26130 32910
L25940 32910
L25890 32890
L25870 32840
L25870 32750
L25890 32700
L25940 32680
L25990 32680
L26040 32910
" />
<path d="M26200 32390
L26180 32440
L26130 32460
L25700 32460
" />
<path d="M26200 31990
L25700 31990
" />
<path d="M26180 31990
L26200 32030
L26200 32130
L26180 32180
L26150 32200
L26110 32220
L25960 32220
L25920 32200
L25890 32180
L25870 32130
L25870 32030
L25890 31990
" />
</g>
<g style="fill:#A00000; fill-opacity:0.0; 
stroke:#A00000; stroke-width:60; stroke-opacity:1; 
stroke-linecap:round; stroke-linejoin:round;">
<path d="M25350 35160
L25350 35250
L25380 35300
L25400 35320
L25470 35370
L25570 35390
L25760 35390
L25800 35370
L25830 35350
L25850 35300
L25850 35200
L25830 35160
L25800 35130
L25760 35110
L25640 35110
L25590 35130
L25570 35160
L25540 35200
L25540 35300
L25570 35350
L25590 35370
L25640 35390
" />
</g>
<g style="fill:#00A0A0; fill-opacity:0.0; 
stroke:#00A0A0; stroke-width:60; stroke-opacity:1; 
stroke-linecap:round; stroke-linejoin:round;">
<path d="M26630 29170
L26630 28670
L26820 28670
L26870 28700
L26890 28720
L26910 28770
L26910 28840
L26890 28890
L26870 28910
L26820 28930
L26630 28930
" />
<path d="M27390 29170
L27110 29170
" />
<path d="M27250 29170
L27250 28670
L27200 28740
L27150 28790
L27110 28820
" />
<path d="M24830 37170
L24830 36670
L25000 37030
L25160 36670
L25160 37170
" />
<path d="M25400 37170
L25400 36670
" />
<path d="M25920 37120
L25900 37150
L25830 37170
L25780 37170
L25710 37150
L25660 37100
L25640 37050
L25620 36960
L25620 36890
L25640 36790
L25660 36740
L25710 36700
L25780 36670
L25830 36670
L25900 36700
L25920 36720
" />
<path d="M26420 37170
L26260 36930
" />
<path d="M26140 37170
L26140 36670
L26330 36670
L26380 36700
L26400 36720
L26420 36770
L26420 36840
L26400 36890
L26380 36910
L26330 36930
L26140 36930
" />
<path d="M26730 36670
L26830 36670
L26880 36700
L26920 36740
L26950 36840
L26950 37010
L26920 37100
L26880 37150
L26830 37170
L26730 37170
L26690 37150
L26640 37100
L26620 37010
L26620 36840
L26640 36740
L26690 36700
L26730 36670
" />
<path d="M27160 36980
L27540 36980
" />
<path d="M27780 36670
L27780 37080
L27800 37120
L27830 37150
L27870 37170
L27970 37170
L28020 37150
L28040 37120
L28060 37080
L28060 36670
" />
<path d="M28280 37150
L28350 37170
L28470 37170
L28510 37150
L28540 37120
L28560 37080
L28560 37030
L28540 36980
L28510 36960
L28470 36930
L28370 36910
L28320 36890
L28300 36860
L28280 36820
L28280 36770
L28300 36720
L28320 36700
L28370 36670
L28490 36670
L28560 36700
" />
<path d="M28950 36910
L29020 36930
L29040 36960
L29060 37010
L29060 37080
L29040 37120
L29020 37150
L28970 37170
L28780 37170
L28780 36670
L28950 36670
L28990 36700
L29020 36720
L29040 36770
L29040 36820
L29020 36860
L28990 36890
L28950 36910
L28780 36910
" />
<path d="M29280 36980
L29660 36980
" />
<path d="M30070 36910
L30140 36930
L30160 36960
L30180 37010
L30180 37080
L30160 37120
L30140 37150
L30090 37170
L29900 37170
L29900 36670
L30070 36670
L30110 36700
L30140 36720
L30160 36770
L30160 36820
L30140 36860
L30110 36890
L30070 36910
L29900 36910
" />
</g>
<g style="fill:#00A0A0; fill-opacity:0.0; 
stroke:#00A0A0; stroke-width:0; stroke-opacity:1; 
stroke-linecap:round; stroke-linejoin:round;">
</g>
<g style="fill:#00A000; fill-opacity:1.0; 
stroke:#00A000; stroke-width:100; stroke-opacity:1; 
stroke-linecap:round; stroke-linejoin:round;">
<circle cx="36000" cy="25000" r="160" /> 
</g>
<g style="fill:#00A000; fill-opacity:1.0; 
stroke:#00A000; stroke-width:60; stroke-opacity:1; 
stroke-linecap:round; stroke-linejoin:round;">
<path d="M31000 25000
L32000 25000
" />
</g>
<g style="fill:#00A000; fill-opacity:1.0; 
stroke:#00A000; stroke-width:0; stroke-opacity:1; 
stroke-linecap:round; stroke-linejoin:round;">
</g>
<g style="fill:#00A000; fill-opacity:1.0; 
stroke:#00A000; stroke-width:100; stroke-opacity:1; 
stroke-linecap:round; stroke-linejoin:round;">
<circle cx="36000" cy="37000" r="160" /> 
</g>
<g style="fill:#00A000; fill-opacity:1.0; 
stroke:#00A000; stroke-width:0; stroke-opacity:1; 
stroke-linecap:round; stroke-linejoin:round;">
</g>
<g style="fill:#A00000; fill-opacity:0.0; 
stroke:#A00000; stroke-width:100; stroke-opacity:1; 
stroke-linecap:round; stroke-linejoin:round;">
<rect x="30600" y="26500" width="800" height="2000" rx="0" />
</g>
<g style="fill:#A00000; fill-opacity:0.0; 
stroke:#A00000; stroke-width:60; stroke-opacity:1; 
stroke-linecap:round; stroke-linejoin:round;">
<path d="M31000 26500
L31000 26000
" />
</g>
<g style="fill:#00A0A0; fill-opacity:0.0; 
stroke:#00A0A0; stroke-width:60; stroke-opacity:1; 
stroke-linecap:round; stroke-linejoin:round;">
</g>
<g style="fill:#A00000; fill-opacity:0.0; 
stroke:#A00000; stroke-width:60; stroke-opacity:1; 
stroke-linecap:round; stroke-linejoin:round;">
<path d="M31000 28500
L31000 29000
" />
</g>
<g style="fill:#00A0A0; fill-opacity:0.0; 
stroke:#00A0A0; stroke-width:60; stroke-opacity:1; 
stroke-linecap:round; stroke-linejoin:round;">
<path d="M31670 27170
L31510 26930
" />
<path d="M31390 27170
L31390 26670
L31580 26670
L31630 26700
L31650 26720
L31670 26770
L31670 26840
L31650 26890
L31630 26910
L31580 26930
L31390 26930
" />
<path d="M31870 26720
L31890 26700
L31940 26670
L32060 26670
L32100 26700
L32130 26720
L32150 26770
L32150 26820
L32130 26890
L31840 27170
L32150 27170
" />
<path d="M32390 27170
L32490 27170
L32540 27150
L32560 27120
L32610 27050
L32630 26960
L32630 26770
L32610 26720
L32580 26700
L32540 26670
L32440 26670
L32390 26700
L32370 26720
L32350 26770
L32350 26890
L32370 26930
L32390 26960
L32440 26980
L32540 26980
L32580 26960
L32610 26930
L32630 26890
" />
<path d="M31900 28170
L31620 28170
" />
<path d="M31760 28170
L31760 27670
L31710 27740
L31660 27790
L31620 27820
" />
<path d="M32210 27670
L32260 27670
L32310 27700
L32330 27720
L32360 27770
L32380 27860
L32380 27980
L32360 28080
L32330 28120
L32310 28150
L32260 28170
L32210 28170
L32170 28150
L32140 28120
L32120 28080
L32100 27980
L32100 27860
L32120 27770
L32140 27720
L32170 27700
L32210 27670
" />
</g>
<g style="fill:#00A000; fill-opacity:0.0; 
stroke:#00A000; stroke-width:60; stroke-opacity:1; 
stroke-linecap:round; stroke-linejoin:round;">
<path d="M30000 30000
L31000 30000
" />
<path d="M31000 30000
L31000 29000
" />
<path d="M31000 26000
L31000 25000
" />
<path d="M29760 30760
L30240 31240
" />
<path d="M30240 30760
L29760 31240
" />
</g>
<g style="fill:#0000C0; fill-opacity:0.0; 
stroke:#0000C0; stroke-width:60; stroke-opacity:1; 
stroke-linecap:round; stroke-linejoin:round;">
<path d="M29760 31760
L30240 32240
" />
<path d="M30240 31760
L29760 32240
" />
<path d="M29760 32760
L30240 33240
" />
<path d="M30240 32760
L29760 33240
" />
<path d="M25760 35760
L26240 36240
" />
<path d="M26240 35760
L25760 36240
" />
</g>
<g style="fill:#0000C0; fill-opacity:0.0; 
stroke:#0000C0; stroke-width:0; stroke-opacity:1; 
stroke-linecap:round; stroke-linejoin:round;">
</g>
<g style="fill:#A00000; fill-opacity:1.0; 
stroke:#A00000; stroke-width:60; stroke-opacity:1; 
stroke-linecap:round; stroke-linejoin:round;">
<polyline style="fill-rule:evenodd;"
points="35500,29000
36000,28000
36500,29000
" /> 
</g>
<g style="fill:#A00000; fill-opacity:0.0; 
stroke:#A00000; stroke-width:80; stroke-opacity:1; 
stroke-linecap:round; stroke-linejoin:round;">
<polyline fill="none;"
points="35750,27750
35500,27750
35500,28000
36500,28000
36500,28250
36250,28250
" /> 
</g>
<g style="fill:#A00000; fill-opacity:0.0; 
stroke:#A00000; stroke-width:60; stroke-opacity:1; 
stroke-linecap:round; stroke-linejoin:round;">
<path d="M36000 28000
L36000 27000
" />
<path d="M36000 29000
L36000 30000
" />
</g>
<g style="fill:#00A0A0; fill-opacity:0.0; 
stroke:#00A0A0; stroke-width:60; stroke-opacity:1; 
stroke-linecap:round; stroke-linejoin:round;">
<path d="M35170 28870
L34670 28870
L34670 28750
L34700 28680
L34740 28630
L34790 28610
L34890 28590
L34960 28590
L35050 28610
L35100 28630
L35150 28680
L35170 28750
L35170 28870
" />
<path d="M34720 28390
L34700 28370
L34670 28320
L34670 28200
L34700 28160
L34720 28130
L34770 28110
L34820 28110
L34890 28130
L35170 28420
L35170 28110
" />
</g>
<g style="fill:#00A000; fill-opacity:0.0; 
stroke:#00A000; stroke-width:60; stroke-opacity:1; 
stroke-linecap:round; stroke-linejoin:round;">
<path d="M36000 25000
L36000 27000
" />
<path d="M36000 30000
L36000 32000
" />
<path d="M36000 35000
L36000 37000
" />
</g>
<g style="fill:#808000; fill-opacity:0.0; 
stroke:#808000; stroke-width:60; stroke-opacity:1; 
stroke-linecap:round; stroke-linejoin:round;">
<path d="M57520 30640
L57570 30640
L57630 30670
L57660 30700
L57690 30760
L57720 30870
L57720 31010
L57690 31130
L57660 31190
L57630 31210
L57570 31240
L57520 31240
L57460 31210
L57430 31190
L57400 31130
L57370 31010
L57370 30870
L57400 30760
L57430 30700
L57460 30670
L57520 30640
" />
<path d="M57890 30640
L58090 31240
L58290 30640
" />
</g>
<g style="fill:#808000; fill-opacity:0.0; 
stroke:#808000; stroke-width:100; stroke-opacity:1; 
stroke-linecap:round; stroke-linejoin:round;">
<polyline fill="none;"
points="57100,31000
56800,30700
56500,30700
56500,31300
56800,31300
57100,31000
" /> 
</g>
<g style="fill:#808000; fill-opacity:0.0; 
stroke:#808000; stroke-width:60; stroke-opacity:1; 
stroke-linecap:round; stroke-linejoin:round;">
<path d="M57400 25010
L57860 25010
" />
<path d="M57630 25240
L57630 24790
" />
<path d="M58060 24640
L58260 25240
L58460 24640
" />
</g>
<g style="fill:#808000; fill-opacity:0.0; 
stroke:#808000; stroke-width:100; stroke-opacity:1; 
stroke-linecap:round; stroke-linejoin:round;">
<polyline fill="none;"
points="57100,25000
56800,24700
56500,24700
56500,25300
56800,25300
57100,25000
" /> 
</g>
<g style="fill:#808000; fill-opacity:0.0; 
stroke:#808000; stroke-width:60; stroke-opacity:1; 
stroke-linecap:round; stroke-linejoin:round;">
<path d="M57400 37010
L57860 37010
" />
<path d="M58060 36640
L58260 37240
L58460 36640
" />
</g>
<g style="fill:#808000; fill-opacity:0.0; 
stroke:#808000; stroke-width:100; stroke-opacity:1; 
stroke-linecap:round; stroke-linejoin:round;">
<polyline fill="none;"
points="57100,37000
56800,36700
56500,36700
56500,37300
56800,37300
57100,37000
" /> 
</g>
<g style="fill:#808000; fill-opacity:0.0; 
stroke:#808000; stroke-width:60; stroke-opacity:1; 
stroke-linecap:round; stroke-linejoin:round;">
</g>
<g style="fill:#00A000; fill-opacity:0.0; 
stroke:#00A000; stroke-width:60; stroke-opacity:1; 
stroke-linecap:round; stroke-linejoin:round;">
<path d="M35000 25000
L56500 25000
" />
<path d="M30000 34000
L31000 34000
" />
<path d="M31000 34000
L31000 37000
" />
<path d="M31000 37000
L56500 37000
" />
</g> 
</svg>
