<?xml version="1.0" standalone="no"?>
 <!DOCTYPE svg PUBLIC "-//W3C//DTD SVG 1.1//EN" 
 "http://www.w3.org/Graphics/SVG/1.1/DTD/svg11.dtd"> 
<svg xmlns="http://www.w3.org/2000/svg" version="1.1" 
    width="21.59cm" height="16.51cm" viewBox="0 0 85000 65000 ">
<title>SVG Picture created as preamp-Preamp 1.svg date 2015/06/15 15:13:54 </title>
  <desc>Picture generated by Eeschema-SVG </desc>
<g style="fill:#000000; fill-opacity:1;stroke:#000000; stroke-opacity:1;
stroke-linecap:round; stroke-linejoin:round; "
 transform="translate(0 0) scale(1 1)">
</g>
<g style="fill:#A00000; fill-opacity:0.0; 
stroke:#A00000; stroke-width:100; stroke-opacity:1; 
stroke-linecap:round; stroke-linejoin:round;">
<path d="M4000 4000
L81000 4000
L81000 61000
L4000 61000
L4000 4000
" />
<path d="M4700 4700
L80300 4700
L80300 60300
L4700 60300
L4700 4700
" />
<path d="M29660 4000
L29660 4700
" />
<path d="M16970 4550
L16690 4550
" />
<path d="M16830 4550
L16830 4050
L16780 4120
L16730 4170
L16690 4200
" />
<path d="M29660 61000
L29660 60300
" />
<path d="M16970 60850
L16690 60850
" />
<path d="M16830 60850
L16830 60350
L16780 60420
L16730 60470
L16690 60500
" />
<path d="M55320 4000
L55320 4700
" />
<path d="M42350 4100
L42370 4080
L42420 4050
L42540 4050
L42580 4080
L42610 4100
L42630 4150
L42630 4200
L42610 4270
L42320 4550
L42630 4550
" />
<path d="M55320 61000
L55320 60300
" />
<path d="M42350 60400
L42370 60380
L42420 60350
L42540 60350
L42580 60380
L42610 60400
L42630 60450
L42630 60500
L42610 60570
L42320 60850
L42630 60850
" />
<path d="M67980 4050
L68290 4050
L68120 4240
L68200 4240
L68240 4270
L68270 4290
L68290 4340
L68290 4460
L68270 4500
L68240 4530
L68200 4550
L68050 4550
L68010 4530
L67980 4500
" />
<path d="M67980 60350
L68290 60350
L68120 60540
L68200 60540
L68240 60570
L68270 60590
L68290 60640
L68290 60760
L68270 60800
L68240 60830
L68200 60850
L68050 60850
L68010 60830
L67980 60800
" />
<path d="M4000 32500
L4700 32500
" />
<path d="M4240 18310
L4470 18310
" />
<path d="M4190 18450
L4350 17950
L4520 18450
" />
<path d="M81000 32500
L80300 32500
" />
<path d="M80540 18310
L80770 18310
" />
<path d="M80490 18450
L80650 17950
L80820 18450
" />
<path d="M4390 46690
L4460 46710
L4480 46740
L4500 46790
L4500 46860
L4480 46900
L4460 46930
L4410 46950
L4220 46950
L4220 46450
L4390 46450
L4430 46480
L4460 46500
L4480 46550
L4480 46600
L4460 46640
L4430 46670
L4390 46690
L4220 46690
" />
<path d="M80690 46690
L80760 46710
L80780 46740
L80800 46790
L80800 46860
L80780 46900
L80760 46930
L80710 46950
L80520 46950
L80520 46450
L80690 46450
L80730 46480
L80760 46500
L80780 46550
L80780 46600
L80760 46640
L80730 46670
L80690 46690
L80520 46690
" />
<path d="M47450 58740
L47520 58140
L47670 58140
L47750 58170
L47800 58230
L47820 58290
L47840 58400
L47830 58490
L47790 58600
L47750 58660
L47680 58710
L47600 58740
L47450 58740
" />
<path d="M48310 58740
L48350 58430
L48320 58370
L48270 58340
L48160 58340
L48090 58370
" />
<path d="M48310 58710
L48250 58740
L48110 58740
L48050 58710
L48030 58660
L48040 58600
L48070 58540
L48140 58510
L48280 58510
L48340 58490
" />
<path d="M48560 58340
L48790 58340
" />
<path d="M48660 58140
L48600 58660
L48620 58710
L48680 58740
L48740 58740
" />
<path d="M49160 58710
L49100 58740
L48990 58740
L48930 58710
L48910 58660
L48940 58430
L48970 58370
L49040 58340
L49150 58340
L49200 58370
L49230 58430
L49220 58490
L48920 58540
" />
<path d="M49440 58690
L49470 58710
L49440 58740
L49410 58710
L49440 58690
L49440 58740
" />
<path d="M49480 58370
L49510 58400
L49480 58430
L49450 58400
L49480 58370
L49480 58430
" />
<path d="M50510 58740
L50160 58740
" />
<path d="M50340 58740
L50410 58140
L50340 58230
L50270 58290
L50210 58310
" />
<path d="M51120 58140
L50830 58140
L50770 58430
L50800 58400
L50860 58370
L51000 58370
L51060 58400
L51090 58430
L51110 58490
L51090 58630
L51050 58690
L51020 58710
L50960 58740
L50820 58740
L50760 58710
L50730 58690
" />
<path d="M51840 58340
L51770 58860
L51740 58910
L51680 58940
L51650 58940
" />
<path d="M51860 58140
L51830 58170
L51860 58200
L51890 58170
L51860 58140
L51860 58200
" />
<path d="M52390 58340
L52340 58740
" />
<path d="M52130 58340
L52090 58660
L52110 58710
L52170 58740
L52250 58740
L52310 58710
L52340 58690
" />
<path d="M52670 58340
L52620 58740
" />
<path d="M52660 58400
L52690 58370
L52760 58340
L52840 58340
L52890 58370
L52920 58430
L52880 58740
" />
<path d="M53660 58200
L53690 58170
L53750 58140
L53890 58140
L53950 58170
L53980 58200
L54000 58260
L53990 58310
L53950 58400
L53570 58740
L53940 58740
" />
<path d="M54380 58140
L54430 58140
L54490 58170
L54520 58200
L54540 58260
L54550 58370
L54540 58510
L54490 58630
L54450 58690
L54420 58710
L54360 58740
L54310 58740
L54250 58710
L54220 58690
L54200 58630
L54190 58510
L54200 58370
L54250 58260
L54290 58200
L54320 58170
L54380 58140
" />
<path d="M55080 58740
L54730 58740
" />
<path d="M54910 58740
L54980 58140
L54910 58230
L54840 58290
L54780 58310
" />
<path d="M55690 58140
L55400 58140
L55340 58430
L55370 58400
L55430 58370
L55570 58370
L55630 58400
L55660 58430
L55680 58490
L55660 58630
L55620 58690
L55590 58710
L55530 58740
L55390 58740
L55330 58710
L55300 58690
" />
<path d="M39040 59940
L39040 59340
" />
<path d="M39390 59940
L39130 59600
" />
<path d="M39390 59340
L39040 59690
" />
<path d="M39640 59940
L39640 59540
" />
<path d="M39640 59340
L39610 59370
L39640 59400
L39670 59370
L39640 59340
L39640 59400
" />
<path d="M40280 59890
L40250 59910
L40160 59940
L40100 59940
L40020 59910
L39960 59860
L39930 59800
L39900 59690
L39900 59600
L39930 59490
L39960 59430
L40020 59370
L40100 59340
L40160 59340
L40250 59370
L40280 59400
" />
<path d="M40790 59940
L40790 59630
L40760 59570
L40700 59540
L40590 59540
L40530 59570
" />
<path d="M40790 59910
L40730 59940
L40590 59940
L40530 59910
L40500 59860
L40500 59800
L40530 59740
L40590 59710
L40730 59710
L40790 59690
" />
<path d="M41330 59940
L41330 59340
" />
<path d="M41330 59910
L41270 59940
L41160 59940
L41100 59910
L41070 59890
L41040 59830
L41040 59660
L41070 59600
L41100 59570
L41160 59540
L41270 59540
L41330 59570
" />
<path d="M42070 59630
L42270 59630
" />
<path d="M42360 59940
L42070 59940
L42070 59340
L42360 59340
" />
<path d="M42610 59890
L42640 59910
L42610 59940
L42580 59910
L42610 59890
L42610 59940
" />
<path d="M42900 59940
L42900 59340
L43050 59340
L43130 59370
L43190 59430
L43220 59490
L43250 59600
L43250 59690
L43220 59800
L43190 59860
L43130 59910
L43050 59940
L42900 59940
" />
<path d="M43500 59890
L43530 59910
L43500 59940
L43470 59910
L43500 59890
L43500 59940
" />
<path d="M43760 59770
L44050 59770
" />
<path d="M43710 59940
L43910 59340
L44110 59940
" />
<path d="M44300 59890
L44330 59910
L44300 59940
L44270 59910
L44300 59890
L44300 59940
" />
<path d="M72600 58740
L72430 58460
" />
<path d="M72250 58740
L72320 58140
L72550 58140
L72610 58170
L72640 58200
L72660 58260
L72650 58340
L72610 58400
L72580 58430
L72510 58460
L72280 58460
" />
<path d="M73080 58710
L73020 58740
L72910 58740
L72850 58710
L72830 58660
L72860 58430
L72890 58370
L72960 58340
L73070 58340
L73120 58370
L73150 58430
L73140 58490
L72840 58540
" />
<path d="M73360 58340
L73450 58740
L73640 58340
" />
<path d="M73820 58690
L73850 58710
L73820 58740
L73790 58710
L73820 58690
L73820 58740
" />
<path d="M73860 58370
L73890 58400
L73860 58430
L73830 58400
L73860 58370
L73860 58430
" />
<path d="M39010 58710
L39100 58740
L39240 58740
L39300 58710
L39330 58690
L39360 58630
L39360 58570
L39330 58510
L39300 58490
L39240 58460
L39130 58430
L39070 58400
L39040 58370
L39010 58310
L39010 58260
L39040 58200
L39070 58170
L39130 58140
L39270 58140
L39360 58170
" />
<path d="M39610 58740
L39610 58340
" />
<path d="M39610 58140
L39580 58170
L39610 58200
L39640 58170
L39610 58140
L39610 58200
" />
<path d="M39850 58340
L40160 58340
L39850 58740
L40160 58740
" />
<path d="M40620 58710
L40560 58740
L40450 58740
L40390 58710
L40360 58660
L40360 58430
L40390 58370
L40450 58340
L40560 58340
L40620 58370
L40650 58430
L40650 58490
L40360 58540
" />
<path d="M40900 58690
L40930 58710
L40900 58740
L40870 58710
L40900 58690
L40900 58740
" />
<path d="M40900 58370
L40930 58400
L40900 58430
L40870 58400
L40900 58370
L40900 58430
" />
<path d="M41650 58140
L41650 58630
L41680 58690
L41710 58710
L41770 58740
L41880 58740
L41940 58710
L41970 58690
L42000 58630
L42000 58140
" />
<path d="M42250 58710
L42310 58740
L42430 58740
L42480 58710
L42510 58660
L42510 58630
L42480 58570
L42430 58540
L42340 58540
L42280 58510
L42250 58460
L42250 58430
L42280 58370
L42340 58340
L42430 58340
L42480 58370
" />
<path d="M43000 58710
L42940 58740
L42830 58740
L42770 58710
L42740 58660
L42740 58430
L42770 58370
L42830 58340
L42940 58340
L43000 58370
L43030 58430
L43030 58490
L42740 58540
" />
<path d="M43280 58740
L43280 58340
" />
<path d="M43280 58460
L43310 58400
L43340 58370
L43400 58340
L43450 58340
" />
<path d="M72240 59940
L72240 59340
" />
<path d="M72790 59940
L72790 59340
" />
<path d="M72790 59910
L72730 59940
L72620 59940
L72560 59910
L72530 59890
L72500 59830
L72500 59660
L72530 59600
L72560 59570
L72620 59540
L72730 59540
L72790 59570
" />
<path d="M73070 59890
L73100 59910
L73070 59940
L73040 59910
L73070 59890
L73070 59940
" />
<path d="M73070 59570
L73100 59600
L73070 59630
L73040 59600
L73070 59570
L73070 59630
" />
<path d="M73770 59340
L74140 59340
L73940 59570
L74020 59570
L74080 59600
L74110 59630
L74140 59690
L74140 59830
L74110 59890
L74080 59910
L74020 59940
L73850 59940
L73790 59910
L73770 59890
" />
<path d="M74820 59310
L74310 60090
" />
<path d="M75110 59600
L75050 59570
L75020 59540
L74990 59490
L74990 59460
L75020 59400
L75050 59370
L75110 59340
L75220 59340
L75280 59370
L75310 59400
L75340 59460
L75340 59490
L75310 59540
L75280 59570
L75220 59600
L75110 59600
L75050 59630
L75020 59660
L74990 59710
L74990 59830
L75020 59890
L75050 59910
L75110 59940
L75220 59940
L75280 59910
L75310 59890
L75340 59830
L75340 59710
L75310 59660
L75280 59630
L75220 59600
" />
<path d="M39040 56940
L39380 56940
" />
<path d="M39140 57540
L39210 56940
" />
<path d="M39510 57540
L39560 57140
" />
<path d="M39580 56940
L39550 56970
L39580 57000
L39610 56970
L39580 56940
L39580 57000
" />
<path d="M39770 57140
L40000 57140
" />
<path d="M39870 56940
L39810 57460
L39830 57510
L39890 57540
L39950 57540
" />
<path d="M40230 57540
L40170 57510
L40150 57460
L40210 56940
" />
<path d="M40680 57510
L40620 57540
L40510 57540
L40450 57510
L40430 57460
L40460 57230
L40490 57170
L40560 57140
L40670 57140
L40720 57170
L40750 57230
L40740 57290
L40440 57340
" />
<path d="M40960 57490
L40990 57510
L40960 57540
L40930 57510
L40960 57490
L40960 57540
" />
<path d="M41000 57170
L41030 57200
L41000 57230
L40970 57200
L41000 57170
L41000 57230
" />
<path d="M42100 56970
L42040 56940
L41950 56940
L41870 56970
L41800 57030
L41760 57090
L41720 57200
L41710 57290
L41730 57400
L41750 57460
L41800 57510
L41880 57540
L41940 57540
L42030 57510
L42060 57490
L42090 57290
L41970 57290
" />
<path d="M42540 57510
L42480 57540
L42370 57540
L42310 57510
L42290 57460
L42320 57230
L42350 57170
L42420 57140
L42530 57140
L42580 57170
L42610 57230
L42600 57290
L42300 57340
" />
<path d="M42870 57140
L42820 57540
" />
<path d="M42860 57200
L42890 57170
L42960 57140
L43040 57140
L43090 57170
L43120 57230
L43080 57540
" />
<path d="M43590 57510
L43530 57540
L43420 57540
L43360 57510
L43340 57460
L43370 57230
L43400 57170
L43470 57140
L43580 57140
L43630 57170
L43660 57230
L43650 57290
L43350 57340
" />
<path d="M43870 57540
L43920 57140
" />
<path d="M43900 57260
L43940 57200
L43970 57170
L44040 57140
L44090 57140
" />
<path d="M44500 57540
L44540 57230
L44510 57170
L44460 57140
L44350 57140
L44280 57170
" />
<path d="M44500 57510
L44440 57540
L44300 57540
L44240 57510
L44220 57460
L44230 57400
L44260 57340
L44330 57310
L44470 57310
L44530 57290
" />
<path d="M44870 57540
L44810 57510
L44790 57460
L44850 56940
" />
<path d="M45600 57140
L45520 57740
" />
<path d="M45590 57170
L45660 57140
L45770 57140
L45820 57170
L45850 57200
L45870 57260
L45850 57430
L45810 57490
L45780 57510
L45720 57540
L45610 57540
L45550 57510
" />
<path d="M46400 57140
L46350 57540
" />
<path d="M46140 57140
L46100 57460
L46120 57510
L46180 57540
L46260 57540
L46320 57510
L46350 57490
" />
<path d="M46630 57540
L46680 57140
" />
<path d="M46660 57260
L46700 57200
L46730 57170
L46800 57140
L46850 57140
" />
<path d="M47050 57140
L46970 57740
" />
<path d="M47040 57170
L47110 57140
L47220 57140
L47270 57170
L47300 57200
L47320 57260
L47300 57430
L47260 57490
L47230 57510
L47170 57540
L47060 57540
L47000 57510
" />
<path d="M47630 57540
L47570 57510
L47540 57490
L47520 57430
L47540 57260
L47580 57200
L47610 57170
L47680 57140
L47760 57140
L47810 57170
L47840 57200
L47860 57260
L47840 57430
L47800 57490
L47770 57510
L47710 57540
L47630 57540
" />
<path d="M48050 57510
L48110 57540
L48230 57540
L48280 57510
L48320 57460
L48320 57430
L48300 57370
L48250 57340
L48160 57340
L48110 57310
L48080 57260
L48090 57230
L48120 57170
L48190 57140
L48280 57140
L48320 57170
" />
<path d="M48800 57510
L48740 57540
L48630 57540
L48570 57510
L48550 57460
L48580 57230
L48610 57170
L48680 57140
L48790 57140
L48840 57170
L48870 57230
L48860 57290
L48560 57340
" />
<path d="M49800 57540
L49840 57230
L49810 57170
L49760 57140
L49650 57140
L49580 57170
" />
<path d="M49800 57510
L49740 57540
L49600 57540
L49540 57510
L49520 57460
L49530 57400
L49560 57340
L49630 57310
L49770 57310
L49830 57290
" />
<path d="M50390 57140
L50340 57540
" />
<path d="M50130 57140
L50090 57460
L50110 57510
L50170 57540
L50250 57540
L50310 57510
L50340 57490
" />
<path d="M50880 57540
L50950 56940
" />
<path d="M50880 57510
L50820 57540
L50710 57540
L50650 57510
L50620 57490
L50600 57430
L50620 57260
L50660 57200
L50690 57170
L50760 57140
L50870 57140
L50920 57170
" />
<path d="M51160 57540
L51210 57140
" />
<path d="M51230 56940
L51200 56970
L51230 57000
L51260 56970
L51230 56940
L51230 57000
" />
<path d="M51540 57540
L51480 57510
L51450 57490
L51430 57430
L51450 57260
L51490 57200
L51520 57170
L51590 57140
L51670 57140
L51720 57170
L51750 57200
L51770 57260
L51750 57430
L51710 57490
L51680 57510
L51620 57540
L51540 57540
" />
<path d="M52500 57140
L52420 57740
" />
<path d="M52490 57170
L52560 57140
L52670 57140
L52720 57170
L52750 57200
L52770 57260
L52750 57430
L52710 57490
L52680 57510
L52620 57540
L52510 57540
L52450 57510
" />
<path d="M52990 57540
L53040 57140
" />
<path d="M53020 57260
L53060 57200
L53090 57170
L53160 57140
L53210 57140
" />
<path d="M53590 57510
L53530 57540
L53420 57540
L53360 57510
L53340 57460
L53370 57230
L53400 57170
L53470 57140
L53580 57140
L53630 57170
L53660 57230
L53650 57290
L53350 57340
" />
<path d="M54130 57540
L54170 57230
L54140 57170
L54090 57140
L53980 57140
L53910 57170
" />
<path d="M54130 57510
L54070 57540
L53930 57540
L53870 57510
L53850 57460
L53860 57400
L53890 57340
L53960 57310
L54100 57310
L54160 57290
" />
<path d="M54410 57540
L54460 57140
" />
<path d="M54450 57200
L54480 57170
L54550 57140
L54630 57140
L54680 57170
L54710 57230
L54670 57540
" />
<path d="M54710 57230
L54740 57170
L54810 57140
L54890 57140
L54940 57170
L54970 57230
L54930 57540
" />
<path d="M55260 57140
L55180 57740
" />
<path d="M55250 57170
L55320 57140
L55430 57140
L55480 57170
L55510 57200
L55530 57260
L55510 57430
L55470 57490
L55440 57510
L55380 57540
L55270 57540
L55210 57510
" />
<path d="M55840 57540
L55780 57510
L55760 57460
L55820 56940
" />
<path d="M56060 57540
L56110 57140
" />
<path d="M56130 56940
L56100 56970
L56130 57000
L56160 56970
L56130 56940
L56130 57000
" />
<path d="M56320 57140
L56550 57140
" />
<path d="M56350 57540
L56410 57030
L56450 56970
L56510 56940
L56570 56940
" />
<path d="M56690 57540
L56740 57140
" />
<path d="M56760 56940
L56730 56970
L56760 57000
L56790 56970
L56760 56940
L56760 57000
" />
<path d="M57210 57510
L57150 57540
L57040 57540
L56980 57510
L56960 57460
L56990 57230
L57020 57170
L57090 57140
L57200 57140
L57250 57170
L57280 57230
L57270 57290
L56970 57340
" />
<path d="M57490 57540
L57540 57140
" />
<path d="M57520 57260
L57560 57200
L57590 57170
L57660 57140
L57710 57140
" />
<path d="M58320 57140
L58380 57540
L58520 57260
L58610 57540
L58770 57140
" />
<path d="M58950 57540
L59000 57140
" />
<path d="M59020 56940
L58990 56970
L59020 57000
L59050 56970
L59020 56940
L59020 57000
" />
<path d="M59210 57140
L59440 57140
" />
<path d="M59310 56940
L59250 57460
L59270 57510
L59330 57540
L59390 57540
" />
<path d="M59580 57540
L59650 56940
" />
<path d="M59840 57540
L59880 57230
L59850 57170
L59800 57140
L59720 57140
L59650 57170
L59620 57200
" />
<path d="M60580 57540
L60630 57140
" />
<path d="M60620 57200
L60650 57170
L60720 57140
L60800 57140
L60850 57170
L60880 57230
L60840 57540
" />
<path d="M60880 57230
L60910 57170
L60980 57140
L61060 57140
L61110 57170
L61140 57230
L61100 57540
" />
<path d="M61380 57540
L61430 57140
" />
<path d="M61450 56940
L61420 56970
L61450 57000
L61480 56970
L61450 56940
L61450 57000
" />
<path d="M61930 57510
L61870 57540
L61760 57540
L61700 57510
L61670 57490
L61650 57430
L61670 57260
L61710 57200
L61740 57170
L61810 57140
L61920 57140
L61970 57170
" />
<path d="M62640 57540
L62710 56940
" />
<path d="M62680 57170
L62750 57140
L62860 57140
L62910 57170
L62940 57200
L62960 57260
L62940 57430
L62900 57490
L62870 57510
L62810 57540
L62700 57540
L62640 57510
" />
<path d="M63270 57540
L63210 57510
L63180 57490
L63160 57430
L63180 57260
L63220 57200
L63250 57170
L63320 57140
L63400 57140
L63450 57170
L63480 57200
L63500 57260
L63480 57430
L63440 57490
L63410 57510
L63350 57540
L63270 57540
" />
<path d="M63810 57540
L63750 57510
L63720 57490
L63700 57430
L63720 57260
L63760 57200
L63790 57170
L63860 57140
L63940 57140
L63990 57170
L64020 57200
L64040 57260
L64020 57430
L63980 57490
L63950 57510
L63890 57540
L63810 57540
" />
<path d="M64230 57510
L64290 57540
L64410 57540
L64460 57510
L64500 57460
L64500 57430
L64480 57370
L64430 57340
L64340 57340
L64290 57310
L64260 57260
L64270 57230
L64300 57170
L64370 57140
L64460 57140
L64500 57170
" />
<path d="M64720 57140
L64950 57140
" />
<path d="M64820 56940
L64760 57460
L64780 57510
L64840 57540
L64900 57540
" />
<path d="M65120 57310
L65580 57310
" />
<path d="M65320 57540
L65370 57090
" />
<path d="M66090 57510
L66030 57540
L65920 57540
L65860 57510
L65830 57490
L65810 57430
L65830 57260
L65870 57200
L65900 57170
L65970 57140
L66080 57140
L66130 57170
" />
<path d="M66430 57540
L66370 57510
L66340 57490
L66320 57430
L66340 57260
L66380 57200
L66410 57170
L66480 57140
L66560 57140
L66610 57170
L66640 57200
L66660 57260
L66640 57430
L66600 57490
L66570 57510
L66510 57540
L66430 57540
" />
<path d="M67190 57140
L67140 57540
" />
<path d="M66930 57140
L66890 57460
L66910 57510
L66970 57540
L67050 57540
L67110 57510
L67140 57490
" />
<path d="M67470 57140
L67390 57740
" />
<path d="M67460 57170
L67530 57140
L67640 57140
L67690 57170
L67720 57200
L67740 57260
L67720 57430
L67680 57490
L67650 57510
L67590 57540
L67480 57540
L67420 57510
" />
<path d="M68050 57540
L67990 57510
L67970 57460
L68030 56940
" />
<path d="M68500 57510
L68440 57540
L68330 57540
L68270 57510
L68250 57460
L68280 57230
L68310 57170
L68380 57140
L68490 57140
L68540 57170
L68570 57230
L68560 57290
L68260 57340
" />
<path d="M69500 57540
L69540 57230
L69510 57170
L69460 57140
L69350 57140
L69280 57170
" />
<path d="M69500 57510
L69440 57540
L69300 57540
L69240 57510
L69220 57460
L69230 57400
L69260 57340
L69330 57310
L69470 57310
L69530 57290
" />
<path d="M69830 57140
L69780 57540
" />
<path d="M69820 57200
L69850 57170
L69920 57140
L70000 57140
L70050 57170
L70080 57230
L70040 57540
" />
<path d="M70580 57540
L70650 56940
" />
<path d="M70580 57510
L70520 57540
L70410 57540
L70350 57510
L70320 57490
L70300 57430
L70320 57260
L70360 57200
L70390 57170
L70460 57140
L70570 57140
L70620 57170
" />
<path d="M71320 57140
L71410 57540
L71600 57140
" />
<path d="M72040 57540
L72080 57230
L72050 57170
L72000 57140
L71890 57140
L71820 57170
" />
<path d="M72040 57510
L71980 57540
L71840 57540
L71780 57510
L71760 57460
L71770 57400
L71800 57340
L71870 57310
L72010 57310
L72070 57290
" />
<path d="M72320 57540
L72370 57140
" />
<path d="M72350 57260
L72390 57200
L72420 57170
L72490 57140
L72540 57140
" />
<path d="M72690 57540
L72740 57140
" />
<path d="M72760 56940
L72730 56970
L72760 57000
L72790 56970
L72760 56940
L72760 57000
" />
<path d="M73240 57540
L73280 57230
L73250 57170
L73200 57140
L73090 57140
L73020 57170
" />
<path d="M73240 57510
L73180 57540
L73040 57540
L72980 57510
L72960 57460
L72970 57400
L73000 57340
L73070 57310
L73210 57310
L73270 57290
" />
<path d="M73520 57540
L73590 56940
" />
<path d="M73560 57170
L73630 57140
L73740 57140
L73790 57170
L73820 57200
L73840 57260
L73820 57430
L73780 57490
L73750 57510
L73690 57540
L73580 57540
L73520 57510
" />
<path d="M74150 57540
L74090 57510
L74070 57460
L74130 56940
" />
<path d="M74600 57510
L74540 57540
L74430 57540
L74370 57510
L74350 57460
L74380 57230
L74410 57170
L74480 57140
L74590 57140
L74640 57170
L74670 57230
L74660 57290
L74360 57340
" />
<path d="M75650 57140
L75590 57630
L75550 57690
L75520 57710
L75460 57740
L75370 57740
L75320 57710
" />
<path d="M75600 57510
L75540 57540
L75430 57540
L75370 57510
L75340 57490
L75320 57430
L75340 57260
L75380 57200
L75410 57170
L75480 57140
L75590 57140
L75640 57170
" />
<path d="M76140 57540
L76180 57230
L76150 57170
L76100 57140
L75990 57140
L75920 57170
" />
<path d="M76140 57510
L76080 57540
L75940 57540
L75880 57510
L75860 57460
L75870 57400
L75900 57340
L75970 57310
L76110 57310
L76170 57290
" />
<path d="M76420 57540
L76470 57140
" />
<path d="M76490 56940
L76460 56970
L76490 57000
L76520 56970
L76490 56940
L76490 57000
" />
<path d="M76760 57140
L76710 57540
" />
<path d="M76750 57200
L76780 57170
L76850 57140
L76930 57140
L76980 57170
L77010 57230
L76970 57540
" />
<path d="M39240 54830
L39040 54830
" />
<path d="M39040 55140
L39040 54540
L39330 54540
" />
<path d="M39550 55140
L39550 54740
" />
<path d="M39550 54540
L39520 54570
L39550 54600
L39580 54570
L39550 54540
L39550 54600
" />
<path d="M39930 55140
L39870 55110
L39840 55060
L39840 54540
" />
<path d="M40380 55110
L40320 55140
L40210 55140
L40150 55110
L40120 55060
L40120 54830
L40150 54770
L40210 54740
L40320 54740
L40380 54770
L40410 54830
L40410 54890
L40120 54940
" />
<path d="M40660 55090
L40690 55110
L40660 55140
L40630 55110
L40660 55090
L40660 55140
" />
<path d="M40660 54770
L40690 54800
L40660 54830
L40630 54800
L40660 54770
L40660 54830
" />
<path d="M41410 54740
L41410 55340
" />
<path d="M41410 54770
L41470 54740
L41580 54740
L41640 54770
L41670 54800
L41700 54860
L41700 55030
L41670 55090
L41640 55110
L41580 55140
L41470 55140
L41410 55110
" />
<path d="M41950 55140
L41950 54740
" />
<path d="M41950 54860
L41980 54800
L42010 54770
L42070 54740
L42120 54740
" />
<path d="M42550 55110
L42490 55140
L42380 55140
L42320 55110
L42290 55060
L42290 54830
L42320 54770
L42380 54740
L42490 54740
L42550 54770
L42580 54830
L42580 54890
L42290 54940
" />
<path d="M43090 55140
L43090 54830
L43060 54770
L43000 54740
L42890 54740
L42830 54770
" />
<path d="M43090 55110
L43030 55140
L42890 55140
L42830 55110
L42800 55060
L42800 55000
L42830 54940
L42890 54910
L43030 54910
L43090 54890
" />
<path d="M43370 55140
L43370 54740
" />
<path d="M43370 54800
L43400 54770
L43460 54740
L43540 54740
L43600 54770
L43630 54830
L43630 55140
" />
<path d="M43630 54830
L43660 54770
L43720 54740
L43800 54740
L43860 54770
L43890 54830
L43890 55140
" />
<path d="M44170 54740
L44170 55340
" />
<path d="M44170 54770
L44230 54740
L44340 54740
L44400 54770
L44430 54800
L44460 54860
L44460 55030
L44430 55090
L44400 55110
L44340 55140
L44230 55140
L44170 55110
" />
<path d="M44710 55090
L44740 55110
L44710 55140
L44680 55110
L44710 55090
L44710 55140
" />
<path d="M44970 55110
L45030 55140
L45150 55140
L45200 55110
L45230 55060
L45230 55030
L45200 54970
L45150 54940
L45060 54940
L45000 54910
L44970 54860
L44970 54830
L45000 54770
L45060 54740
L45150 54740
L45200 54770
" />
<path d="M45750 55110
L45690 55140
L45580 55140
L45520 55110
L45490 55090
L45460 55030
L45460 54860
L45490 54800
L45520 54770
L45580 54740
L45690 54740
L45750 54770
" />
<path d="M46000 55140
L46000 54540
" />
<path d="M46260 55140
L46260 54830
L46230 54770
L46170 54740
L46090 54740
L46030 54770
L46000 54800
" />
<path d="M39010 56310
L39100 56340
L39240 56340
L39300 56310
L39330 56290
L39360 56230
L39360 56170
L39330 56110
L39300 56090
L39240 56060
L39130 56030
L39070 56000
L39040 55970
L39010 55910
L39010 55860
L39040 55800
L39070 55770
L39130 55740
L39270 55740
L39360 55770
" />
<path d="M39610 56340
L39610 55740
" />
<path d="M39870 56340
L39870 56030
L39840 55970
L39780 55940
L39700 55940
L39640 55970
L39610 56000
" />
<path d="M40380 56310
L40320 56340
L40210 56340
L40150 56310
L40120 56260
L40120 56030
L40150 55970
L40210 55940
L40320 55940
L40380 55970
L40410 56030
L40410 56090
L40120 56140
" />
<path d="M40890 56310
L40830 56340
L40720 56340
L40660 56310
L40630 56260
L40630 56030
L40660 55970
L40720 55940
L40830 55940
L40890 55970
L40920 56030
L40920 56090
L40630 56140
" />
<path d="M41090 55940
L41320 55940
" />
<path d="M41170 55740
L41170 56260
L41200 56310
L41260 56340
L41320 56340
" />
<path d="M41510 56290
L41540 56310
L41510 56340
L41480 56310
L41510 56290
L41510 56340
" />
<path d="M41510 55970
L41540 56000
L41510 56030
L41480 56000
L41510 55970
L41510 56030
" />
<path d="M42690 55710
L42180 56490
" />
<path d="M42890 56340
L42890 55740
L43120 55740
L43180 55770
L43210 55800
L43240 55860
L43240 55940
L43210 56000
L43180 56030
L43120 56060
L42890 56060
" />
<path d="M43490 56340
L43490 55940
" />
<path d="M43490 56060
L43520 56000
L43550 55970
L43610 55940
L43660 55940
" />
<path d="M44090 56310
L44030 56340
L43920 56340
L43860 56310
L43830 56260
L43830 56030
L43860 55970
L43920 55940
L44030 55940
L44090 55970
L44120 56030
L44120 56090
L43830 56140
" />
<path d="M44630 56340
L44630 56030
L44600 55970
L44540 55940
L44430 55940
L44370 55970
" />
<path d="M44630 56310
L44570 56340
L44430 56340
L44370 56310
L44340 56260
L44340 56200
L44370 56140
L44430 56110
L44570 56110
L44630 56090
" />
<path d="M44910 56340
L44910 55940
" />
<path d="M44910 56000
L44940 55970
L45000 55940
L45080 55940
L45140 55970
L45170 56030
L45170 56340
" />
<path d="M45170 56030
L45200 55970
L45260 55940
L45340 55940
L45400 55970
L45430 56030
L45430 56340
" />
<path d="M45710 55940
L45710 56540
" />
<path d="M45710 55970
L45770 55940
L45880 55940
L45940 55970
L45970 56000
L46000 56060
L46000 56230
L45970 56290
L45940 56310
L45880 56340
L45770 56340
L45710 56310
" />
<path d="M47030 56340
L46680 56340
" />
<path d="M46860 56340
L46860 55740
L46800 55830
L46740 55890
L46680 55910
" />
<path d="M47710 55710
L47200 56490
" />
<path d="M38300 54300
L38300 60300
" />
<path d="M38300 54300
L80300 54300
" />
<path d="M38300 54300
L80300 54300
" />
<path d="M38300 56700
L80300 56700
" />
<path d="M71500 57900
L71500 60300
" />
<path d="M38300 59100
L80300 59100
" />
<path d="M38300 57900
L80300 57900
" />
<path d="M44900 57900
L44900 59100
" />
</g>
<g style="fill:#A00000; fill-opacity:0.0; 
stroke:#A00000; stroke-width:0; stroke-opacity:1; 
stroke-linecap:round; stroke-linejoin:round;">
</g>
<g style="fill:#FFFF80; fill-opacity:0.6; 
stroke:#FFFF80; stroke-width:0; stroke-opacity:1; 
stroke-linecap:round; stroke-linejoin:round;">
<polyline style="fill-rule:evenodd;"
points="56000,34500
52000,32500
52000,36500
56000,34500
" /> 
</g>
<g style="fill:#A00000; fill-opacity:0.0; 
stroke:#A00000; stroke-width:60; stroke-opacity:1; 
stroke-linecap:round; stroke-linejoin:round;">
<polyline fill="none;"
points="56000,34500
52000,32500
52000,36500
56000,34500
" /> 
<path d="M54000 35500
L54000 36500
" />
</g>
<g style="fill:#00A0A0; fill-opacity:0.0; 
stroke:#00A0A0; stroke-width:60; stroke-opacity:1; 
stroke-linecap:round; stroke-linejoin:round;">
</g>
<g style="fill:#00A0A0; fill-opacity:0.0; 
stroke:#00A0A0; stroke-width:50; stroke-opacity:1; 
stroke-linecap:round; stroke-linejoin:round;">
<path d="M53820 35270
L54120 35170
L53820 35070
" />
<path d="M54010 34970
L54010 34740
" />
</g>
<g style="fill:#00A0A0; fill-opacity:0.0; 
stroke:#00A0A0; stroke-width:60; stroke-opacity:1; 
stroke-linecap:round; stroke-linejoin:round;">
</g>
<g style="fill:#A00000; fill-opacity:0.0; 
stroke:#A00000; stroke-width:60; stroke-opacity:1; 
stroke-linecap:round; stroke-linejoin:round;">
</g>
<g style="fill:#A00000; fill-opacity:0.0; 
stroke:#A00000; stroke-width:50; stroke-opacity:1; 
stroke-linecap:round; stroke-linejoin:round;">
<path d="M53670 35940
L53870 35940
" />
<path d="M53560 36010
L53770 36080
L53770 35900
" />
</g>
<g style="fill:#A00000; fill-opacity:0.0; 
stroke:#A00000; stroke-width:60; stroke-opacity:1; 
stroke-linecap:round; stroke-linejoin:round;">
<path d="M54000 33500
L54000 32500
" />
</g>
<g style="fill:#00A0A0; fill-opacity:0.0; 
stroke:#00A0A0; stroke-width:60; stroke-opacity:1; 
stroke-linecap:round; stroke-linejoin:round;">
</g>
<g style="fill:#00A0A0; fill-opacity:0.0; 
stroke:#00A0A0; stroke-width:50; stroke-opacity:1; 
stroke-linecap:round; stroke-linejoin:round;">
<path d="M53820 34300
L54120 34200
L53820 34100
" />
<path d="M54010 34000
L54010 33770
" />
<path d="M54120 33880
L53890 33880
" />
</g>
<g style="fill:#00A0A0; fill-opacity:0.0; 
stroke:#00A0A0; stroke-width:60; stroke-opacity:1; 
stroke-linecap:round; stroke-linejoin:round;">
</g>
<g style="fill:#A00000; fill-opacity:0.0; 
stroke:#A00000; stroke-width:60; stroke-opacity:1; 
stroke-linecap:round; stroke-linejoin:round;">
</g>
<g style="fill:#A00000; fill-opacity:0.0; 
stroke:#A00000; stroke-width:50; stroke-opacity:1; 
stroke-linecap:round; stroke-linejoin:round;">
<path d="M53700 33030
L53690 33050
L53670 33070
L53640 33080
L53630 33080
L53600 33070
L53590 33050
L53570 33030
L53570 32970
L53590 32940
L53600 32930
L53630 32910
L53640 32910
L53670 32930
L53690 32940
L53700 32970
L53700 33030
L53710 33050
L53730 33070
L53760 33080
L53810 33080
L53840 33070
L53860 33050
L53870 33030
L53870 32970
L53860 32940
L53840 32930
L53810 32910
L53760 32910
L53730 32930
L53710 32940
L53700 32970
" />
</g>
<g style="fill:#A00000; fill-opacity:0.0; 
stroke:#A00000; stroke-width:60; stroke-opacity:1; 
stroke-linecap:round; stroke-linejoin:round;">
<path d="M56000 34500
L57000 34500
" />
</g>
<g style="fill:#00A0A0; fill-opacity:0.0; 
stroke:#00A0A0; stroke-width:60; stroke-opacity:1; 
stroke-linecap:round; stroke-linejoin:round;">
</g>
<g style="fill:#00A0A0; fill-opacity:0.0; 
stroke:#00A0A0; stroke-width:50; stroke-opacity:1; 
stroke-linecap:round; stroke-linejoin:round;">
</g>
<g style="fill:#00A0A0; fill-opacity:0.0; 
stroke:#00A0A0; stroke-width:60; stroke-opacity:1; 
stroke-linecap:round; stroke-linejoin:round;">
</g>
<g style="fill:#A00000; fill-opacity:0.0; 
stroke:#A00000; stroke-width:60; stroke-opacity:1; 
stroke-linecap:round; stroke-linejoin:round;">
</g>
<g style="fill:#A00000; fill-opacity:0.0; 
stroke:#A00000; stroke-width:50; stroke-opacity:1; 
stroke-linecap:round; stroke-linejoin:round;">
<path d="M56590 34370
L56420 34370
" />
<path d="M56500 34370
L56500 34070
L56470 34110
L56450 34140
L56420 34160
" />
</g>
<g style="fill:#A00000; fill-opacity:0.0; 
stroke:#A00000; stroke-width:60; stroke-opacity:1; 
stroke-linecap:round; stroke-linejoin:round;">
<path d="M52000 33500
L51000 33500
" />
</g>
<g style="fill:#00A0A0; fill-opacity:0.0; 
stroke:#00A0A0; stroke-width:60; stroke-opacity:1; 
stroke-linecap:round; stroke-linejoin:round;">
</g>
<g style="fill:#00A0A0; fill-opacity:0.0; 
stroke:#00A0A0; stroke-width:50; stroke-opacity:1; 
stroke-linecap:round; stroke-linejoin:round;">
<path d="M52270 33510
L52500 33510
" />
</g>
<g style="fill:#00A0A0; fill-opacity:0.0; 
stroke:#00A0A0; stroke-width:60; stroke-opacity:1; 
stroke-linecap:round; stroke-linejoin:round;">
</g>
<g style="fill:#A00000; fill-opacity:0.0; 
stroke:#A00000; stroke-width:60; stroke-opacity:1; 
stroke-linecap:round; stroke-linejoin:round;">
</g>
<g style="fill:#A00000; fill-opacity:0.0; 
stroke:#A00000; stroke-width:50; stroke-opacity:1; 
stroke-linecap:round; stroke-linejoin:round;">
<path d="M51420 33100
L51430 33090
L51460 33070
L51530 33070
L51560 33090
L51570 33100
L51590 33130
L51590 33160
L51570 33200
L51400 33370
L51590 33370
" />
</g>
<g style="fill:#A00000; fill-opacity:0.0; 
stroke:#A00000; stroke-width:60; stroke-opacity:1; 
stroke-linecap:round; stroke-linejoin:round;">
<path d="M52000 35500
L51000 35500
" />
</g>
<g style="fill:#00A0A0; fill-opacity:0.0; 
stroke:#00A0A0; stroke-width:60; stroke-opacity:1; 
stroke-linecap:round; stroke-linejoin:round;">
</g>
<g style="fill:#00A0A0; fill-opacity:0.0; 
stroke:#00A0A0; stroke-width:50; stroke-opacity:1; 
stroke-linecap:round; stroke-linejoin:round;">
<path d="M52270 35510
L52500 35510
" />
<path d="M52390 35620
L52390 35390
" />
</g>
<g style="fill:#00A0A0; fill-opacity:0.0; 
stroke:#00A0A0; stroke-width:60; stroke-opacity:1; 
stroke-linecap:round; stroke-linejoin:round;">
</g>
<g style="fill:#A00000; fill-opacity:0.0; 
stroke:#A00000; stroke-width:60; stroke-opacity:1; 
stroke-linecap:round; stroke-linejoin:round;">
</g>
<g style="fill:#A00000; fill-opacity:0.0; 
stroke:#A00000; stroke-width:50; stroke-opacity:1; 
stroke-linecap:round; stroke-linejoin:round;">
<path d="M51400 35070
L51590 35070
L51490 35190
L51530 35190
L51560 35200
L51570 35210
L51590 35240
L51590 35310
L51570 35340
L51560 35360
L51530 35370
L51450 35370
L51420 35360
L51400 35340
" />
</g>
<g style="fill:#A00000; fill-opacity:0.0; 
stroke:#A00000; stroke-width:60; stroke-opacity:1; 
stroke-linecap:round; stroke-linejoin:round;">
</g>
<g style="fill:#00A0A0; fill-opacity:0.0; 
stroke:#00A0A0; stroke-width:60; stroke-opacity:1; 
stroke-linecap:round; stroke-linejoin:round;">
<path d="M54910 32670
L54910 33080
L54930 33120
L54960 33150
L55000 33170
L55100 33170
L55150 33150
L55170 33120
L55190 33080
L55190 32670
" />
<path d="M55410 32720
L55430 32700
L55480 32670
L55600 32670
L55640 32700
L55670 32720
L55690 32770
L55690 32820
L55670 32890
L55380 33170
L55690 33170
" />
<path d="M55890 33030
L56120 33030
" />
<path d="M55840 33170
L56000 32670
L56170 33170
" />
<path d="M55180 36670
L54940 36670
L54940 36170
" />
<path d="M55340 36670
L55340 36170
L55510 36530
L55670 36170
L55670 36670
" />
<path d="M55860 36170
L56170 36170
L56000 36360
L56080 36360
L56120 36390
L56150 36410
L56170 36460
L56170 36580
L56150 36620
L56120 36650
L56080 36670
L55930 36670
L55890 36650
L55860 36620
" />
<path d="M56630 36170
L56390 36170
L56370 36410
L56390 36390
L56440 36360
L56560 36360
L56600 36390
L56630 36410
L56650 36460
L56650 36580
L56630 36620
L56600 36650
L56560 36670
L56440 36670
L56390 36650
L56370 36620
" />
<path d="M56940 36390
L56890 36360
L56870 36340
L56850 36290
L56850 36270
L56870 36220
L56890 36200
L56940 36170
L57040 36170
L57080 36200
L57110 36220
L57130 36270
L57130 36290
L57110 36340
L57080 36360
L57040 36390
L56940 36390
L56890 36410
L56870 36430
L56850 36480
L56850 36580
L56870 36620
L56890 36650
L56940 36670
L57040 36670
L57080 36650
L57110 36620
L57130 36580
L57130 36480
L57110 36430
L57080 36410
L57040 36390
" />
<path d="M57330 36530
L57560 36530
" />
<path d="M57280 36670
L57440 36170
L57610 36670
" />
<path d="M57780 36670
L57780 36170
L58060 36670
L58060 36170
" />
</g>
<g style="fill:#00A0A0; fill-opacity:0.0; 
stroke:#00A0A0; stroke-width:0; stroke-opacity:1; 
stroke-linecap:round; stroke-linejoin:round;">
</g>
<g style="fill:#A00000; fill-opacity:0.0; 
stroke:#A00000; stroke-width:100; stroke-opacity:1; 
stroke-linecap:round; stroke-linejoin:round;">
<rect x="46500" y="33100" width="2000" height="800" rx="0" />
</g>
<g style="fill:#A00000; fill-opacity:0.0; 
stroke:#A00000; stroke-width:60; stroke-opacity:1; 
stroke-linecap:round; stroke-linejoin:round;">
<path d="M46500 33500
L46000 33500
" />
</g>
<g style="fill:#00A0A0; fill-opacity:0.0; 
stroke:#00A0A0; stroke-width:60; stroke-opacity:1; 
stroke-linecap:round; stroke-linejoin:round;">
</g>
<g style="fill:#A00000; fill-opacity:0.0; 
stroke:#A00000; stroke-width:60; stroke-opacity:1; 
stroke-linecap:round; stroke-linejoin:round;">
<path d="M48500 33500
L49000 33500
" />
</g>
<g style="fill:#00A0A0; fill-opacity:0.0; 
stroke:#00A0A0; stroke-width:60; stroke-opacity:1; 
stroke-linecap:round; stroke-linejoin:round;">
<path d="M47410 32730
L47250 32490
" />
<path d="M47130 32730
L47130 32230
L47320 32230
L47370 32260
L47390 32280
L47410 32330
L47410 32400
L47390 32450
L47370 32470
L47320 32490
L47130 32490
" />
<path d="M47580 32230
L47910 32230
L47700 32730
" />
<path d="M47150 34400
L47150 34730
" />
<path d="M47030 34210
L46920 34570
L47220 34570
" />
<path d="M47370 34230
L47700 34230
L47490 34730
" />
<path d="M47900 34730
L47900 34230
" />
<path d="M47950 34540
L48090 34730
" />
<path d="M48090 34400
L47900 34590
" />
</g>
<g style="fill:#00A0A0; fill-opacity:0.0; 
stroke:#00A0A0; stroke-width:0; stroke-opacity:1; 
stroke-linecap:round; stroke-linejoin:round;">
</g>
<g style="fill:#A00000; fill-opacity:0.0; 
stroke:#A00000; stroke-width:100; stroke-opacity:1; 
stroke-linecap:round; stroke-linejoin:round;">
<rect x="59500" y="34100" width="2000" height="800" rx="0" />
</g>
<g style="fill:#A00000; fill-opacity:0.0; 
stroke:#A00000; stroke-width:60; stroke-opacity:1; 
stroke-linecap:round; stroke-linejoin:round;">
<path d="M59500 34500
L59000 34500
" />
</g>
<g style="fill:#00A0A0; fill-opacity:0.0; 
stroke:#00A0A0; stroke-width:60; stroke-opacity:1; 
stroke-linecap:round; stroke-linejoin:round;">
</g>
<g style="fill:#A00000; fill-opacity:0.0; 
stroke:#A00000; stroke-width:60; stroke-opacity:1; 
stroke-linecap:round; stroke-linejoin:round;">
<path d="M61500 34500
L62000 34500
" />
</g>
<g style="fill:#00A0A0; fill-opacity:0.0; 
stroke:#00A0A0; stroke-width:60; stroke-opacity:1; 
stroke-linecap:round; stroke-linejoin:round;">
<path d="M60410 33930
L60250 33690
" />
<path d="M60130 33930
L60130 33430
L60320 33430
L60370 33460
L60390 33480
L60410 33530
L60410 33600
L60390 33650
L60370 33670
L60320 33690
L60130 33690
" />
<path d="M60650 33930
L60750 33930
L60800 33910
L60820 33880
L60870 33810
L60890 33720
L60890 33530
L60870 33480
L60840 33460
L60800 33430
L60700 33430
L60650 33460
L60630 33480
L60610 33530
L60610 33650
L60630 33690
L60650 33720
L60700 33740
L60800 33740
L60840 33720
L60870 33690
L60890 33650
" />
<path d="M60440 35730
L60160 35730
" />
<path d="M60300 35730
L60300 35230
L60250 35300
L60200 35350
L60160 35380
" />
<path d="M60660 35730
L60660 35230
" />
<path d="M60710 35540
L60850 35730
" />
<path d="M60850 35400
L60660 35590
" />
</g>
<g style="fill:#00A0A0; fill-opacity:0.0; 
stroke:#00A0A0; stroke-width:0; stroke-opacity:1; 
stroke-linecap:round; stroke-linejoin:round;">
</g>
<g style="fill:#A00000; fill-opacity:0.0; 
stroke:#A00000; stroke-width:60; stroke-opacity:1; 
stroke-linecap:round; stroke-linejoin:round;">
<rect x="52500" y="27100" width="3000" height="800" rx="0" />
<polyline fill="none;"
points="55200,28200
52800,26700
" /> 
</g>
<g style="fill:#A00000; fill-opacity:1.0; 
stroke:#A00000; stroke-width:60; stroke-opacity:1; 
stroke-linecap:round; stroke-linejoin:round;">
<polyline style="fill-rule:evenodd;"
points="53100,26700
52800,26700
52900,27000
" /> 
<path d="M52500 27500
L51500 27500
" />
</g>
<g style="fill:#00A0A0; fill-opacity:0.0; 
stroke:#00A0A0; stroke-width:60; stroke-opacity:1; 
stroke-linecap:round; stroke-linejoin:round;">
</g>
<g style="fill:#A00000; fill-opacity:0.0; 
stroke:#A00000; stroke-width:60; stroke-opacity:1; 
stroke-linecap:round; stroke-linejoin:round;">
<path d="M55500 27500
L56500 27500
" />
</g>
<g style="fill:#00A0A0; fill-opacity:0.0; 
stroke:#00A0A0; stroke-width:60; stroke-opacity:1; 
stroke-linecap:round; stroke-linejoin:round;">
<path d="M53910 26730
L53750 26490
" />
<path d="M53630 26730
L53630 26230
L53820 26230
L53870 26260
L53890 26280
L53910 26330
L53910 26400
L53890 26450
L53870 26470
L53820 26490
L53630 26490
" />
<path d="M54200 26450
L54150 26420
L54130 26400
L54110 26350
L54110 26330
L54130 26280
L54150 26260
L54200 26230
L54300 26230
L54340 26260
L54370 26280
L54390 26330
L54390 26350
L54370 26400
L54340 26420
L54300 26450
L54200 26450
L54150 26470
L54130 26490
L54110 26540
L54110 26640
L54130 26680
L54150 26710
L54200 26730
L54300 26730
L54340 26710
L54370 26680
L54390 26640
L54390 26540
L54370 26490
L54340 26470
L54300 26450
" />
<path d="M52420 28230
L52180 28230
L52160 28470
L52180 28450
L52230 28420
L52350 28420
L52390 28450
L52420 28470
L52440 28520
L52440 28640
L52420 28680
L52390 28710
L52350 28730
L52230 28730
L52180 28710
L52160 28680
" />
<path d="M52750 28230
L52800 28230
L52850 28260
L52870 28280
L52900 28330
L52920 28420
L52920 28540
L52900 28640
L52870 28680
L52850 28710
L52800 28730
L52750 28730
L52710 28710
L52680 28680
L52660 28640
L52640 28540
L52640 28420
L52660 28330
L52680 28280
L52710 28260
L52750 28230
" />
<path d="M53230 28230
L53280 28230
L53330 28260
L53350 28280
L53380 28330
L53400 28420
L53400 28540
L53380 28640
L53350 28680
L53330 28710
L53280 28730
L53230 28730
L53190 28710
L53160 28680
L53140 28640
L53120 28540
L53120 28420
L53140 28330
L53160 28280
L53190 28260
L53230 28230
" />
<path d="M53620 28730
L53620 28230
" />
<path d="M53670 28540
L53810 28730
" />
<path d="M53810 28400
L53620 28590
" />
<path d="M54020 28540
L54400 28540
" />
<path d="M54880 28730
L54640 28730
L54640 28230
" />
<path d="M55130 28230
L55230 28230
L55280 28260
L55320 28300
L55350 28400
L55350 28570
L55320 28660
L55280 28710
L55230 28730
L55130 28730
L55090 28710
L55040 28660
L55020 28570
L55020 28400
L55040 28300
L55090 28260
L55130 28230
" />
<path d="M55820 28260
L55770 28230
L55700 28230
L55630 28260
L55580 28300
L55560 28350
L55540 28450
L55540 28520
L55560 28610
L55580 28660
L55630 28710
L55700 28730
L55750 28730
L55820 28710
L55840 28680
L55840 28520
L55750 28520
" />
</g>
<g style="fill:#00A0A0; fill-opacity:0.0; 
stroke:#00A0A0; stroke-width:0; stroke-opacity:1; 
stroke-linecap:round; stroke-linejoin:round;">
</g>
<g style="fill:#A00000; fill-opacity:0.0; 
stroke:#A00000; stroke-width:60; stroke-opacity:1; 
stroke-linecap:round; stroke-linejoin:round;">
<circle cx="54000" cy="38250" r="250" /> 
<polyline fill="none;"
points="54000,37500
54000,38000
" /> 
</g>
<g style="fill:#00A0A0; fill-opacity:0.0; 
stroke:#00A0A0; stroke-width:60; stroke-opacity:1; 
stroke-linecap:round; stroke-linejoin:round;">
<path d="M53350 38730
L53510 39230
L53680 38730
" />
<path d="M53830 39210
L53900 39230
L54020 39230
L54060 39210
L54090 39180
L54110 39140
L54110 39090
L54090 39040
L54060 39020
L54020 38990
L53920 38970
L53870 38950
L53850 38920
L53830 38880
L53830 38830
L53850 38780
L53870 38760
L53920 38730
L54040 38730
L54110 38760
" />
<path d="M54310 39210
L54380 39230
L54500 39230
L54540 39210
L54570 39180
L54590 39140
L54590 39090
L54570 39040
L54540 39020
L54500 38990
L54400 38970
L54350 38950
L54330 38920
L54310 38880
L54310 38830
L54330 38780
L54350 38760
L54400 38730
L54520 38730
L54590 38760
" />
</g>
<g style="fill:#00A0A0; fill-opacity:0.0; 
stroke:#00A0A0; stroke-width:0; stroke-opacity:1; 
stroke-linecap:round; stroke-linejoin:round;">
</g>
<g style="fill:#A00000; fill-opacity:0.0; 
stroke:#A00000; stroke-width:60; stroke-opacity:1; 
stroke-linecap:round; stroke-linejoin:round;">
<circle cx="54000" cy="30750" r="250" /> 
<polyline fill="none;"
points="54000,31500
54000,31000
" /> 
</g>
<g style="fill:#00A0A0; fill-opacity:0.0; 
stroke:#00A0A0; stroke-width:60; stroke-opacity:1; 
stroke-linecap:round; stroke-linejoin:round;">
<path d="M53340 29670
L53500 30170
L53670 29670
" />
<path d="M53840 30170
L53840 29670
L53960 29670
L54030 29700
L54080 29740
L54100 29790
L54120 29890
L54120 29960
L54100 30050
L54080 30100
L54030 30150
L53960 30170
L53840 30170
" />
<path d="M54340 30170
L54340 29670
L54460 29670
L54530 29700
L54580 29740
L54600 29790
L54620 29890
L54620 29960
L54600 30050
L54580 30100
L54530 30150
L54460 30170
L54340 30170
" />
</g>
<g style="fill:#00A0A0; fill-opacity:0.0; 
stroke:#00A0A0; stroke-width:0; stroke-opacity:1; 
stroke-linecap:round; stroke-linejoin:round;">
</g>
<g style="fill:#A00000; fill-opacity:0.0; 
stroke:#A00000; stroke-width:130; stroke-opacity:1; 
stroke-linecap:round; stroke-linejoin:round;">
<polyline fill="none;"
points="39200,34600
39200,33400
" /> 
</g>
<g style="fill:#A00000; fill-opacity:0.0; 
stroke:#A00000; stroke-width:120; stroke-opacity:1; 
stroke-linecap:round; stroke-linejoin:round;">
<polyline fill="none;"
points="38800,34600
38800,33400
" /> 
</g>
<g style="fill:#A00000; fill-opacity:0.0; 
stroke:#A00000; stroke-width:60; stroke-opacity:1; 
stroke-linecap:round; stroke-linejoin:round;">
<path d="M38750 34000
L38000 34000
" />
<path d="M39200 34000
L40000 34000
" />
</g>
<g style="fill:#00A0A0; fill-opacity:0.0; 
stroke:#00A0A0; stroke-width:60; stroke-opacity:1; 
stroke-linecap:round; stroke-linejoin:round;">
<path d="M38920 33180
L38900 33210
L38830 33230
L38780 33230
L38710 33210
L38660 33160
L38640 33110
L38620 33020
L38620 32950
L38640 32850
L38660 32800
L38710 32760
L38780 32730
L38830 32730
L38900 32760
L38920 32780
" />
<path d="M39120 32780
L39140 32760
L39190 32730
L39310 32730
L39350 32760
L39380 32780
L39400 32830
L39400 32880
L39380 32950
L39090 33230
L39400 33230
" />
<path d="M38440 34900
L38440 35230
" />
<path d="M38320 34710
L38210 35070
L38510 35070
" />
<path d="M38660 34730
L38990 34730
L38780 35230
" />
<path d="M39280 34730
L39330 34730
L39380 34760
L39400 34780
L39430 34830
L39450 34920
L39450 35040
L39430 35140
L39400 35180
L39380 35210
L39330 35230
L39280 35230
L39240 35210
L39210 35180
L39190 35140
L39170 35040
L39170 34920
L39190 34830
L39210 34780
L39240 34760
L39280 34730
" />
<path d="M39670 34900
L39670 35230
" />
<path d="M39670 34950
L39690 34920
L39740 34900
L39810 34900
L39860 34920
L39880 34970
L39880 35230
" />
</g>
<g style="fill:#00A0A0; fill-opacity:0.0; 
stroke:#00A0A0; stroke-width:0; stroke-opacity:1; 
stroke-linecap:round; stroke-linejoin:round;">
</g>
<g style="fill:#A00000; fill-opacity:1.0; 
stroke:#A00000; stroke-width:60; stroke-opacity:1; 
stroke-linecap:round; stroke-linejoin:round;">
<rect x="23000" y="34000" width="500" height="2500" rx="0" />
</g>
<g style="fill:#A00000; fill-opacity:0.0; 
stroke:#A00000; stroke-width:60; stroke-opacity:1; 
stroke-linecap:round; stroke-linejoin:round;">
<rect x="23500" y="33500" width="7000" height="3500" rx="0" />
<polyline fill="none;"
points="29000,35000
30500,35000
30500,35000
" /> 
<polyline fill="none;"
points="27500,34000
27000,34500
26500,34000
26500,34000
" /> 
<polyline fill="none;"
points="27500,34000
30500,34000
30500,34000
30500,34000
" /> 
<polyline fill="none;"
points="28000,34500
28500,34000
29000,34500
29000,34500
" /> 
<polyline fill="none;"
points="29000,35000
28500,35000
28500,34000
28500,34000
" /> 
<polyline fill="none;"
points="30500,36500
25000,36500
24500,36000
24000,36500
24000,36500
" /> 
<path d="M30500 34000
L32000 34000
" />
</g>
<g style="fill:#00A0A0; fill-opacity:0.0; 
stroke:#00A0A0; stroke-width:60; stroke-opacity:1; 
stroke-linecap:round; stroke-linejoin:round;">
</g>
<g style="fill:#A00000; fill-opacity:0.0; 
stroke:#A00000; stroke-width:60; stroke-opacity:1; 
stroke-linecap:round; stroke-linejoin:round;">
<path d="M31390 33850
L31110 33850
" />
<path d="M31250 33850
L31250 33350
L31200 33420
L31150 33470
L31110 33500
" />
<path d="M30500 35000
L32000 35000
" />
</g>
<g style="fill:#00A0A0; fill-opacity:0.0; 
stroke:#00A0A0; stroke-width:60; stroke-opacity:1; 
stroke-linecap:round; stroke-linejoin:round;">
</g>
<g style="fill:#A00000; fill-opacity:0.0; 
stroke:#A00000; stroke-width:60; stroke-opacity:1; 
stroke-linecap:round; stroke-linejoin:round;">
<path d="M31110 34400
L31130 34380
L31180 34350
L31300 34350
L31340 34380
L31370 34400
L31390 34450
L31390 34500
L31370 34570
L31080 34850
L31390 34850
" />
<path d="M30500 36500
L32000 36500
" />
</g>
<g style="fill:#00A0A0; fill-opacity:0.0; 
stroke:#00A0A0; stroke-width:60; stroke-opacity:1; 
stroke-linecap:round; stroke-linejoin:round;">
</g>
<g style="fill:#A00000; fill-opacity:0.0; 
stroke:#A00000; stroke-width:60; stroke-opacity:1; 
stroke-linecap:round; stroke-linejoin:round;">
<path d="M31080 35850
L31390 35850
L31220 36040
L31300 36040
L31340 36070
L31370 36090
L31390 36140
L31390 36260
L31370 36300
L31340 36330
L31300 36350
L31150 36350
L31110 36330
L31080 36300
" />
</g>
<g style="fill:#00A0A0; fill-opacity:0.0; 
stroke:#00A0A0; stroke-width:60; stroke-opacity:1; 
stroke-linecap:round; stroke-linejoin:round;">
<path d="M24830 32730
L24830 33090
L24810 33160
L24760 33210
L24690 33230
L24640 33230
" />
<path d="M25050 32780
L25070 32760
L25120 32730
L25240 32730
L25280 32760
L25310 32780
L25330 32830
L25330 32880
L25310 32950
L25020 33230
L25330 33230
" />
<path d="M23260 37730
L23260 37230
L23430 37590
L23590 37230
L23590 37730
" />
<path d="M23920 37230
L24020 37230
L24070 37260
L24110 37300
L24140 37400
L24140 37570
L24110 37660
L24070 37710
L24020 37730
L23920 37730
L23880 37710
L23830 37660
L23810 37570
L23810 37400
L23830 37300
L23880 37260
L23920 37230
" />
<path d="M24350 37730
L24350 37230
L24630 37730
L24630 37230
" />
<path d="M24960 37230
L25060 37230
L25110 37260
L25150 37300
L25180 37400
L25180 37570
L25150 37660
L25110 37710
L25060 37730
L24960 37730
L24920 37710
L24870 37660
L24850 37570
L24850 37400
L24870 37300
L24920 37260
L24960 37230
" />
<path d="M25910 37230
L25910 37590
L25890 37660
L25840 37710
L25770 37730
L25720 37730
" />
<path d="M26130 37590
L26360 37590
" />
<path d="M26080 37730
L26240 37230
L26410 37730
" />
<path d="M26860 37680
L26840 37710
L26770 37730
L26720 37730
L26650 37710
L26600 37660
L26580 37610
L26560 37520
L26560 37450
L26580 37350
L26600 37300
L26650 37260
L26720 37230
L26770 37230
L26840 37260
L26860 37280
" />
<path d="M27080 37730
L27080 37230
" />
<path d="M27360 37730
L27150 37450
" />
<path d="M27360 37230
L27080 37520
" />
<path d="M28170 37230
L28080 37230
L28030 37260
L28010 37280
L27960 37350
L27940 37450
L27940 37640
L27960 37680
L27980 37710
L28030 37730
L28130 37730
L28170 37710
L28200 37680
L28220 37640
L28220 37520
L28200 37470
L28170 37450
L28130 37420
L28030 37420
L27980 37450
L27960 37470
L27940 37520
" />
<path d="M28440 37680
L28460 37710
L28440 37730
L28420 37710
L28440 37680
L28440 37730
" />
<path d="M28630 37230
L28940 37230
L28770 37420
L28850 37420
L28890 37450
L28920 37470
L28940 37520
L28940 37640
L28920 37680
L28890 37710
L28850 37730
L28700 37730
L28660 37710
L28630 37680
" />
<path d="M29400 37230
L29160 37230
L29140 37470
L29160 37450
L29210 37420
L29330 37420
L29370 37450
L29400 37470
L29420 37520
L29420 37640
L29400 37680
L29370 37710
L29330 37730
L29210 37730
L29160 37710
L29140 37680
" />
<path d="M29640 37730
L29640 37400
" />
<path d="M29640 37450
L29660 37420
L29710 37400
L29780 37400
L29830 37420
L29850 37470
L29850 37730
" />
<path d="M29850 37470
L29880 37420
L29920 37400
L30000 37400
L30040 37420
L30070 37470
L30070 37730
" />
<path d="M30310 37730
L30310 37400
" />
<path d="M30310 37450
L30330 37420
L30380 37400
L30450 37400
L30500 37420
L30520 37470
L30520 37730
" />
<path d="M30520 37470
L30550 37420
L30590 37400
L30670 37400
L30710 37420
L30740 37470
L30740 37730
" />
</g>
<g style="fill:#808000; fill-opacity:0.0; 
stroke:#808000; stroke-width:60; stroke-opacity:1; 
stroke-linecap:round; stroke-linejoin:round;">
<path d="M63900 34740
L63900 34140
L64130 34140
L64190 34170
L64220 34200
L64250 34260
L64250 34340
L64220 34400
L64190 34430
L64130 34460
L63900 34460
" />
<path d="M64850 34740
L64650 34460
" />
<path d="M64500 34740
L64500 34140
L64730 34140
L64790 34170
L64820 34200
L64850 34260
L64850 34340
L64820 34400
L64790 34430
L64730 34460
L64500 34460
" />
<path d="M65100 34430
L65300 34430
" />
<path d="M65390 34740
L65100 34740
L65100 34140
L65390 34140
" />
<path d="M65610 34570
L65900 34570
" />
<path d="M65560 34740
L65760 34140
L65960 34740
" />
<path d="M66150 34740
L66150 34140
L66350 34570
L66550 34140
L66550 34740
" />
<path d="M66840 34740
L66840 34140
L67070 34140
L67130 34170
L67160 34200
L67190 34260
L67190 34340
L67160 34400
L67130 34430
L67070 34460
L66840 34460
" />
<path d="M67300 34800
L67760 34800
" />
<path d="M68020 34140
L68130 34140
L68190 34170
L68250 34230
L68270 34340
L68270 34540
L68250 34660
L68190 34710
L68130 34740
L68020 34740
L67960 34710
L67900 34660
L67870 34540
L67870 34340
L67900 34230
L67960 34170
L68020 34140
" />
<path d="M68530 34140
L68530 34630
L68560 34690
L68590 34710
L68650 34740
L68760 34740
L68820 34710
L68850 34690
L68880 34630
L68880 34140
" />
<path d="M69080 34140
L69420 34140
" />
<path d="M69250 34740
L69250 34140
" />
</g>
<g style="fill:#808000; fill-opacity:0.0; 
stroke:#808000; stroke-width:100; stroke-opacity:1; 
stroke-linecap:round; stroke-linejoin:round;">
<polyline fill="none;"
points="63600,34500
63300,34200
63000,34200
63000,34800
63300,34800
63600,34500
" /> 
</g>
<g style="fill:#808000; fill-opacity:0.0; 
stroke:#808000; stroke-width:0; stroke-opacity:1; 
stroke-linecap:round; stroke-linejoin:round;">
</g>
<g style="fill:#A00000; fill-opacity:0.0; 
stroke:#A00000; stroke-width:60; stroke-opacity:1; 
stroke-linecap:round; stroke-linejoin:round;">
<polyline fill="none;"
points="50000,36500
50000,37000
50500,37000
50000,37500
49500,37000
50000,37000
" /> 
</g>
<g style="fill:#00A0A0; fill-opacity:0.0; 
stroke:#00A0A0; stroke-width:60; stroke-opacity:1; 
stroke-linecap:round; stroke-linejoin:round;">
<path d="M49620 37700
L49570 37670
L49500 37670
L49430 37700
L49380 37740
L49360 37790
L49340 37890
L49340 37960
L49360 38050
L49380 38100
L49430 38150
L49500 38170
L49550 38170
L49620 38150
L49640 38120
L49640 37960
L49550 37960
" />
<path d="M49860 38170
L49860 37670
L50140 38170
L50140 37670
" />
<path d="M50380 38170
L50380 37670
L50500 37670
L50570 37700
L50620 37740
L50640 37790
L50660 37890
L50660 37960
L50640 38050
L50620 38100
L50570 38150
L50500 38170
L50380 38170
" />
</g>
<g style="fill:#0000FF; fill-opacity:0.0; 
stroke:#0000FF; stroke-width:60; stroke-opacity:1; 
stroke-linecap:round; stroke-linejoin:round;">
<path d="M31110 44310
L31200 44340
L31340 44340
L31400 44310
L31430 44290
L31460 44230
L31460 44170
L31430 44110
L31400 44090
L31340 44060
L31230 44030
L31170 44000
L31140 43970
L31110 43910
L31110 43860
L31140 43800
L31170 43770
L31230 43740
L31370 43740
L31460 43770
" />
<path d="M31660 43940
L31770 44340
L31880 44060
L32000 44340
L32110 43940
" />
<path d="M32260 43940
L32490 43940
" />
<path d="M32340 43740
L32340 44260
L32370 44310
L32430 44340
L32490 44340
" />
<path d="M32680 44340
L32680 43940
" />
<path d="M32680 43740
L32650 43770
L32680 43800
L32710 43770
L32680 43740
L32680 43800
" />
<path d="M33230 44310
L33170 44340
L33060 44340
L33000 44310
L32970 44290
L32940 44230
L32940 44060
L32970 44000
L33000 43970
L33060 43940
L33170 43940
L33230 43970
" />
<path d="M33480 44340
L33480 43740
" />
<path d="M33740 44340
L33740 44030
L33710 43970
L33650 43940
L33570 43940
L33510 43970
L33480 44000
" />
<path d="M34020 44290
L34050 44310
L34020 44340
L33990 44310
L34020 44290
L34020 44340
" />
<path d="M34020 43970
L34050 44000
L34020 44030
L33990 44000
L34020 43970
L34020 44030
" />
<path d="M34770 44030
L34970 44030
" />
<path d="M35060 44340
L34770 44340
L34770 43740
L35060 43740
" />
<path d="M35310 43940
L35310 44340
" />
<path d="M35310 44000
L35340 43970
L35400 43940
L35480 43940
L35540 43970
L35570 44030
L35570 44340
" />
<path d="M36110 44340
L36110 44030
L36080 43970
L36020 43940
L35910 43940
L35850 43970
" />
<path d="M36110 44310
L36050 44340
L35910 44340
L35850 44310
L35820 44260
L35820 44200
L35850 44140
L35910 44110
L36050 44110
L36110 44090
" />
<path d="M36390 44340
L36390 43740
" />
<path d="M36390 43970
L36450 43940
L36560 43940
L36620 43970
L36650 44000
L36680 44060
L36680 44230
L36650 44290
L36620 44310
L36560 44340
L36450 44340
L36390 44310
" />
<path d="M37020 44340
L36960 44310
L36930 44260
L36930 43740
" />
<path d="M37470 44310
L37410 44340
L37300 44340
L37240 44310
L37210 44260
L37210 44030
L37240 43970
L37300 43940
L37410 43940
L37470 43970
L37500 44030
L37500 44090
L37210 44140
" />
<path d="M38180 43710
L37670 44490
" />
<path d="M38380 44340
L38380 43740
" />
<path d="M38380 43970
L38440 43940
L38550 43940
L38610 43970
L38640 44000
L38670 44060
L38670 44230
L38640 44290
L38610 44310
L38550 44340
L38440 44340
L38380 44310
" />
<path d="M38870 43940
L39010 44340
" />
<path d="M39150 43940
L39010 44340
L38950 44490
L38920 44510
L38870 44540
" />
<path d="M39380 43940
L39380 44540
" />
<path d="M39380 43970
L39440 43940
L39550 43940
L39610 43970
L39640 44000
L39670 44060
L39670 44230
L39640 44290
L39610 44310
L39550 44340
L39440 44340
L39380 44310
" />
<path d="M40180 44340
L40180 44030
L40150 43970
L40090 43940
L39980 43940
L39920 43970
" />
<path d="M40180 44310
L40120 44340
L39980 44340
L39920 44310
L39890 44260
L39890 44200
L39920 44140
L39980 44110
L40120 44110
L40180 44090
" />
<path d="M40430 44310
L40490 44340
L40610 44340
L40660 44310
L40690 44260
L40690 44230
L40660 44170
L40610 44140
L40520 44140
L40460 44110
L40430 44060
L40430 44030
L40460 43970
L40520 43940
L40610 43940
L40660 43970
" />
<path d="M40920 44310
L40980 44340
L41100 44340
L41150 44310
L41180 44260
L41180 44230
L41150 44170
L41100 44140
L41010 44140
L40950 44110
L40920 44060
L40920 44030
L40950 43970
L41010 43940
L41100 43940
L41150 43970
" />
<path d="M41900 44340
L41900 43740
" />
<path d="M41900 44030
L42250 44030
" />
<path d="M42250 44340
L42250 43740
" />
<path d="M42530 44340
L42530 43940
" />
<path d="M42530 43740
L42500 43770
L42530 43800
L42560 43770
L42530 43740
L42530 43800
" />
<path d="M42820 44110
L43280 44110
" />
<path d="M43510 43740
L43910 43740
L43510 44340
L43910 44340
" />
<path d="M44590 44110
L45050 44110
" />
<path d="M44820 44340
L44820 43890
" />
<path d="M45300 43800
L45330 43770
L45390 43740
L45530 43740
L45590 43770
L45620 43800
L45650 43860
L45650 43910
L45620 44000
L45280 44340
L45650 44340
" />
<path d="M46020 43740
L46070 43740
L46130 43770
L46160 43800
L46190 43860
L46220 43970
L46220 44110
L46190 44230
L46160 44290
L46130 44310
L46070 44340
L46020 44340
L45960 44310
L45930 44290
L45900 44230
L45870 44110
L45870 43970
L45900 43860
L45930 43800
L45960 43770
L46020 43740
" />
<path d="M46730 44340
L46730 43740
" />
<path d="M46730 44310
L46670 44340
L46560 44340
L46500 44310
L46470 44290
L46440 44230
L46440 44060
L46470 44000
L46500 43970
L46560 43940
L46670 43940
L46730 43970
" />
<path d="M47210 44030
L47300 44060
L47330 44090
L47360 44140
L47360 44230
L47330 44290
L47300 44310
L47240 44340
L47010 44340
L47010 43740
L47210 43740
L47270 43770
L47300 43800
L47330 43860
L47330 43910
L47300 43970
L47270 44000
L47210 44030
L47010 44030
" />
<path d="M48070 43940
L48070 44540
" />
<path d="M48070 43970
L48130 43940
L48240 43940
L48300 43970
L48330 44000
L48360 44060
L48360 44230
L48330 44290
L48300 44310
L48240 44340
L48130 44340
L48070 44310
" />
<path d="M48610 44340
L48610 43940
" />
<path d="M48610 44060
L48640 44000
L48670 43970
L48730 43940
L48780 43940
" />
<path d="M49210 44310
L49150 44340
L49040 44340
L48980 44310
L48950 44260
L48950 44030
L48980 43970
L49040 43940
L49150 43940
L49210 43970
L49240 44030
L49240 44090
L48950 44140
" />
<path d="M49750 44340
L49750 44030
L49720 43970
L49660 43940
L49550 43940
L49490 43970
" />
<path d="M49750 44310
L49690 44340
L49550 44340
L49490 44310
L49460 44260
L49460 44200
L49490 44140
L49550 44110
L49690 44110
L49750 44090
" />
<path d="M50030 44340
L50030 43940
" />
<path d="M50030 44000
L50060 43970
L50120 43940
L50200 43940
L50260 43970
L50290 44030
L50290 44340
" />
<path d="M50290 44030
L50320 43970
L50380 43940
L50460 43940
L50520 43970
L50550 44030
L50550 44340
" />
<path d="M50830 43940
L50830 44540
" />
<path d="M50830 43970
L50890 43940
L51000 43940
L51060 43970
L51090 44000
L51120 44060
L51120 44230
L51090 44290
L51060 44310
L51000 44340
L50890 44340
L50830 44310
" />
<path d="M31140 45180
L31140 44580
L31370 44580
L31430 44610
L31460 44640
L31490 44700
L31490 44780
L31460 44840
L31430 44870
L31370 44900
L31140 44900
" />
<path d="M31830 45180
L31770 45150
L31740 45130
L31710 45070
L31710 44900
L31740 44840
L31770 44810
L31830 44780
L31910 44780
L31970 44810
L32000 44840
L32030 44900
L32030 45070
L32000 45130
L31970 45150
L31910 45180
L31830 45180
" />
<path d="M32200 44780
L32430 44780
" />
<path d="M32280 44580
L32280 45100
L32310 45150
L32370 45180
L32430 45180
" />
<path d="M32620 45130
L32650 45150
L32620 45180
L32590 45150
L32620 45130
L32620 45180
" />
<path d="M32620 44810
L32650 44840
L32620 44870
L32590 44840
L32620 44810
L32620 44870
" />
<path d="M33370 44950
L33830 44950
" />
<path d="M34400 44900
L34460 44870
L34510 44900
L34540 44950
L34510 45010
L34460 45040
L34400 45010
L34280 44900
L34230 44870
L34170 44900
L34140 44950
L34170 45010
L34230 45040
L34280 45010
L34400 44900
" />
<path d="M35230 44780
L35460 44780
" />
<path d="M35310 44580
L35310 45100
L35340 45150
L35400 45180
L35460 45180
" />
<path d="M35740 45180
L35680 45150
L35650 45130
L35620 45070
L35620 44900
L35650 44840
L35680 44810
L35740 44780
L35820 44780
L35880 44810
L35910 44840
L35940 44900
L35940 45070
L35910 45130
L35880 45150
L35820 45180
L35740 45180
" />
<path d="M36650 44950
L37110 44950
" />
<path d="M36880 45180
L36880 44730
" />
<path d="M37710 45180
L37360 45180
" />
<path d="M37540 45180
L37540 44580
L37480 44670
L37420 44730
L37360 44750
" />
<path d="M38080 44580
L38130 44580
L38190 44610
L38220 44640
L38250 44700
L38280 44810
L38280 44950
L38250 45070
L38220 45130
L38190 45150
L38130 45180
L38080 45180
L38020 45150
L37990 45130
L37960 45070
L37930 44950
L37930 44810
L37960 44700
L37990 44640
L38020 44610
L38080 44580
" />
<path d="M38790 45180
L38790 44580
" />
<path d="M38790 45150
L38730 45180
L38620 45180
L38560 45150
L38530 45130
L38500 45070
L38500 44900
L38530 44840
L38560 44810
L38620 44780
L38730 44780
L38790 44810
" />
<path d="M39270 44870
L39360 44900
L39390 44930
L39420 44980
L39420 45070
L39390 45130
L39360 45150
L39300 45180
L39070 45180
L39070 44580
L39270 44580
L39330 44610
L39360 44640
L39390 44700
L39390 44750
L39360 44810
L39330 44840
L39270 44870
L39070 44870
" />
<path d="M40390 44780
L40390 45270
L40360 45330
L40330 45350
L40280 45380
L40190 45380
L40130 45350
" />
<path d="M40390 45150
L40330 45180
L40220 45180
L40160 45150
L40130 45130
L40100 45070
L40100 44900
L40130 44840
L40160 44810
L40220 44780
L40330 44780
L40390 44810
" />
<path d="M40930 45180
L40930 44870
L40900 44810
L40840 44780
L40730 44780
L40670 44810
" />
<path d="M40930 45150
L40870 45180
L40730 45180
L40670 45150
L40640 45100
L40640 45040
L40670 44980
L40730 44950
L40870 44950
L40930 44930
" />
<path d="M41210 45180
L41210 44780
" />
<path d="M41210 44580
L41180 44610
L41210 44640
L41240 44610
L41210 44580
L41210 44640
" />
<path d="M41500 44780
L41500 45180
" />
<path d="M41500 44840
L41530 44810
L41590 44780
L41670 44780
L41730 44810
L41760 44870
L41760 45180
" />
</g>
<g style="fill:#0000FF; fill-opacity:0.0; 
stroke:#0000FF; stroke-width:0; stroke-opacity:1; 
stroke-linecap:round; stroke-linejoin:round;">
</g>
<g style="fill:#FFFF80; fill-opacity:0.6; 
stroke:#FFFF80; stroke-width:0; stroke-opacity:1; 
stroke-linecap:round; stroke-linejoin:round;">
<polyline style="fill-rule:evenodd;"
points="39000,27000
35000,25000
35000,29000
39000,27000
" /> 
</g>
<g style="fill:#A00000; fill-opacity:0.0; 
stroke:#A00000; stroke-width:60; stroke-opacity:1; 
stroke-linecap:round; stroke-linejoin:round;">
<polyline fill="none;"
points="39000,27000
35000,25000
35000,29000
39000,27000
" /> 
<path d="M37000 28000
L37000 29000
" />
</g>
<g style="fill:#00A0A0; fill-opacity:0.0; 
stroke:#00A0A0; stroke-width:60; stroke-opacity:1; 
stroke-linecap:round; stroke-linejoin:round;">
</g>
<g style="fill:#00A0A0; fill-opacity:0.0; 
stroke:#00A0A0; stroke-width:50; stroke-opacity:1; 
stroke-linecap:round; stroke-linejoin:round;">
<path d="M36820 27770
L37120 27670
L36820 27570
" />
<path d="M37010 27470
L37010 27240
" />
</g>
<g style="fill:#00A0A0; fill-opacity:0.0; 
stroke:#00A0A0; stroke-width:60; stroke-opacity:1; 
stroke-linecap:round; stroke-linejoin:round;">
</g>
<g style="fill:#A00000; fill-opacity:0.0; 
stroke:#A00000; stroke-width:60; stroke-opacity:1; 
stroke-linecap:round; stroke-linejoin:round;">
</g>
<g style="fill:#A00000; fill-opacity:0.0; 
stroke:#A00000; stroke-width:50; stroke-opacity:1; 
stroke-linecap:round; stroke-linejoin:round;">
<path d="M36670 28440
L36870 28440
" />
<path d="M36560 28510
L36770 28580
L36770 28400
" />
</g>
<g style="fill:#A00000; fill-opacity:0.0; 
stroke:#A00000; stroke-width:60; stroke-opacity:1; 
stroke-linecap:round; stroke-linejoin:round;">
<path d="M37000 26000
L37000 25000
" />
</g>
<g style="fill:#00A0A0; fill-opacity:0.0; 
stroke:#00A0A0; stroke-width:60; stroke-opacity:1; 
stroke-linecap:round; stroke-linejoin:round;">
</g>
<g style="fill:#00A0A0; fill-opacity:0.0; 
stroke:#00A0A0; stroke-width:50; stroke-opacity:1; 
stroke-linecap:round; stroke-linejoin:round;">
<path d="M36820 26800
L37120 26700
L36820 26600
" />
<path d="M37010 26500
L37010 26270
" />
<path d="M37120 26380
L36890 26380
" />
</g>
<g style="fill:#00A0A0; fill-opacity:0.0; 
stroke:#00A0A0; stroke-width:60; stroke-opacity:1; 
stroke-linecap:round; stroke-linejoin:round;">
</g>
<g style="fill:#A00000; fill-opacity:0.0; 
stroke:#A00000; stroke-width:60; stroke-opacity:1; 
stroke-linecap:round; stroke-linejoin:round;">
</g>
<g style="fill:#A00000; fill-opacity:0.0; 
stroke:#A00000; stroke-width:50; stroke-opacity:1; 
stroke-linecap:round; stroke-linejoin:round;">
<path d="M36700 25530
L36690 25550
L36670 25570
L36640 25580
L36630 25580
L36600 25570
L36590 25550
L36570 25530
L36570 25470
L36590 25440
L36600 25430
L36630 25410
L36640 25410
L36670 25430
L36690 25440
L36700 25470
L36700 25530
L36710 25550
L36730 25570
L36760 25580
L36810 25580
L36840 25570
L36860 25550
L36870 25530
L36870 25470
L36860 25440
L36840 25430
L36810 25410
L36760 25410
L36730 25430
L36710 25440
L36700 25470
" />
</g>
<g style="fill:#A00000; fill-opacity:0.0; 
stroke:#A00000; stroke-width:60; stroke-opacity:1; 
stroke-linecap:round; stroke-linejoin:round;">
<path d="M35000 28000
L34000 28000
" />
</g>
<g style="fill:#00A0A0; fill-opacity:0.0; 
stroke:#00A0A0; stroke-width:60; stroke-opacity:1; 
stroke-linecap:round; stroke-linejoin:round;">
</g>
<g style="fill:#00A0A0; fill-opacity:0.0; 
stroke:#00A0A0; stroke-width:50; stroke-opacity:1; 
stroke-linecap:round; stroke-linejoin:round;">
<path d="M35270 28010
L35500 28010
" />
<path d="M35390 28120
L35390 27890
" />
</g>
<g style="fill:#00A0A0; fill-opacity:0.0; 
stroke:#00A0A0; stroke-width:60; stroke-opacity:1; 
stroke-linecap:round; stroke-linejoin:round;">
</g>
<g style="fill:#A00000; fill-opacity:0.0; 
stroke:#A00000; stroke-width:60; stroke-opacity:1; 
stroke-linecap:round; stroke-linejoin:round;">
</g>
<g style="fill:#A00000; fill-opacity:0.0; 
stroke:#A00000; stroke-width:50; stroke-opacity:1; 
stroke-linecap:round; stroke-linejoin:round;">
<path d="M34570 27570
L34430 27570
L34420 27710
L34430 27700
L34460 27690
L34530 27690
L34560 27700
L34570 27710
L34590 27740
L34590 27810
L34570 27840
L34560 27860
L34530 27870
L34460 27870
L34430 27860
L34420 27840
" />
</g>
<g style="fill:#A00000; fill-opacity:0.0; 
stroke:#A00000; stroke-width:60; stroke-opacity:1; 
stroke-linecap:round; stroke-linejoin:round;">
<path d="M35000 26000
L34000 26000
" />
</g>
<g style="fill:#00A0A0; fill-opacity:0.0; 
stroke:#00A0A0; stroke-width:60; stroke-opacity:1; 
stroke-linecap:round; stroke-linejoin:round;">
</g>
<g style="fill:#00A0A0; fill-opacity:0.0; 
stroke:#00A0A0; stroke-width:50; stroke-opacity:1; 
stroke-linecap:round; stroke-linejoin:round;">
<path d="M35270 26010
L35500 26010
" />
</g>
<g style="fill:#00A0A0; fill-opacity:0.0; 
stroke:#00A0A0; stroke-width:60; stroke-opacity:1; 
stroke-linecap:round; stroke-linejoin:round;">
</g>
<g style="fill:#A00000; fill-opacity:0.0; 
stroke:#A00000; stroke-width:60; stroke-opacity:1; 
stroke-linecap:round; stroke-linejoin:round;">
</g>
<g style="fill:#A00000; fill-opacity:0.0; 
stroke:#A00000; stroke-width:50; stroke-opacity:1; 
stroke-linecap:round; stroke-linejoin:round;">
<path d="M34560 25570
L34500 25570
L34470 25590
L34460 25600
L34430 25640
L34420 25700
L34420 25810
L34430 25840
L34450 25860
L34470 25870
L34530 25870
L34560 25860
L34570 25840
L34590 25810
L34590 25740
L34570 25710
L34560 25700
L34530 25690
L34470 25690
L34450 25700
L34430 25710
L34420 25740
" />
</g>
<g style="fill:#A00000; fill-opacity:0.0; 
stroke:#A00000; stroke-width:60; stroke-opacity:1; 
stroke-linecap:round; stroke-linejoin:round;">
<path d="M39000 27000
L40000 27000
" />
</g>
<g style="fill:#00A0A0; fill-opacity:0.0; 
stroke:#00A0A0; stroke-width:60; stroke-opacity:1; 
stroke-linecap:round; stroke-linejoin:round;">
</g>
<g style="fill:#00A0A0; fill-opacity:0.0; 
stroke:#00A0A0; stroke-width:50; stroke-opacity:1; 
stroke-linecap:round; stroke-linejoin:round;">
</g>
<g style="fill:#00A0A0; fill-opacity:0.0; 
stroke:#00A0A0; stroke-width:60; stroke-opacity:1; 
stroke-linecap:round; stroke-linejoin:round;">
</g>
<g style="fill:#A00000; fill-opacity:0.0; 
stroke:#A00000; stroke-width:60; stroke-opacity:1; 
stroke-linecap:round; stroke-linejoin:round;">
</g>
<g style="fill:#A00000; fill-opacity:0.0; 
stroke:#A00000; stroke-width:50; stroke-opacity:1; 
stroke-linecap:round; stroke-linejoin:round;">
<path d="M39400 26570
L39600 26570
L39470 26870
" />
</g>
<g style="fill:#A00000; fill-opacity:0.0; 
stroke:#A00000; stroke-width:60; stroke-opacity:1; 
stroke-linecap:round; stroke-linejoin:round;">
</g>
<g style="fill:#00A0A0; fill-opacity:0.0; 
stroke:#00A0A0; stroke-width:60; stroke-opacity:1; 
stroke-linecap:round; stroke-linejoin:round;">
<path d="M37870 25170
L37870 25580
L37890 25620
L37920 25650
L37960 25670
L38060 25670
L38110 25650
L38130 25620
L38150 25580
L38150 25170
" />
<path d="M38650 25670
L38370 25670
" />
<path d="M38510 25670
L38510 25170
L38460 25240
L38410 25290
L38370 25320
" />
<path d="M39040 25410
L39110 25430
L39130 25460
L39150 25510
L39150 25580
L39130 25620
L39110 25650
L39060 25670
L38870 25670
L38870 25170
L39040 25170
L39080 25200
L39110 25220
L39130 25270
L39130 25320
L39110 25360
L39080 25390
L39040 25410
L38870 25410
" />
<path d="M37680 29170
L37440 29170
L37440 28670
" />
<path d="M37840 29170
L37840 28670
L38010 29030
L38170 28670
L38170 29170
" />
<path d="M38360 28670
L38670 28670
L38500 28860
L38580 28860
L38620 28890
L38650 28910
L38670 28960
L38670 29080
L38650 29120
L38620 29150
L38580 29170
L38430 29170
L38390 29150
L38360 29120
" />
<path d="M39130 28670
L38890 28670
L38870 28910
L38890 28890
L38940 28860
L39060 28860
L39100 28890
L39130 28910
L39150 28960
L39150 29080
L39130 29120
L39100 29150
L39060 29170
L38940 29170
L38890 29150
L38870 29120
" />
<path d="M39440 28890
L39390 28860
L39370 28840
L39350 28790
L39350 28770
L39370 28720
L39390 28700
L39440 28670
L39540 28670
L39580 28700
L39610 28720
L39630 28770
L39630 28790
L39610 28840
L39580 28860
L39540 28890
L39440 28890
L39390 28910
L39370 28930
L39350 28980
L39350 29080
L39370 29120
L39390 29150
L39440 29170
L39540 29170
L39580 29150
L39610 29120
L39630 29080
L39630 28980
L39610 28930
L39580 28910
L39540 28890
" />
<path d="M39830 29030
L40060 29030
" />
<path d="M39780 29170
L39940 28670
L40110 29170
" />
<path d="M40280 29170
L40280 28670
L40560 29170
L40560 28670
" />
</g>
<g style="fill:#00A0A0; fill-opacity:0.0; 
stroke:#00A0A0; stroke-width:0; stroke-opacity:1; 
stroke-linecap:round; stroke-linejoin:round;">
</g>
<g style="fill:#A00000; fill-opacity:0.0; 
stroke:#A00000; stroke-width:60; stroke-opacity:1; 
stroke-linecap:round; stroke-linejoin:round;">
<circle cx="37000" cy="23250" r="250" /> 
<polyline fill="none;"
points="37000,24000
37000,23500
" /> 
</g>
<g style="fill:#00A0A0; fill-opacity:0.0; 
stroke:#00A0A0; stroke-width:60; stroke-opacity:1; 
stroke-linecap:round; stroke-linejoin:round;">
<path d="M36340 22170
L36500 22670
L36670 22170
" />
<path d="M36840 22670
L36840 22170
L36960 22170
L37030 22200
L37080 22240
L37100 22290
L37120 22390
L37120 22460
L37100 22550
L37080 22600
L37030 22650
L36960 22670
L36840 22670
" />
<path d="M37340 22670
L37340 22170
L37460 22170
L37530 22200
L37580 22240
L37600 22290
L37620 22390
L37620 22460
L37600 22550
L37580 22600
L37530 22650
L37460 22670
L37340 22670
" />
</g>
<g style="fill:#00A0A0; fill-opacity:0.0; 
stroke:#00A0A0; stroke-width:0; stroke-opacity:1; 
stroke-linecap:round; stroke-linejoin:round;">
</g>
<g style="fill:#A00000; fill-opacity:0.0; 
stroke:#A00000; stroke-width:60; stroke-opacity:1; 
stroke-linecap:round; stroke-linejoin:round;">
<circle cx="37000" cy="30750" r="250" /> 
<polyline fill="none;"
points="37000,30000
37000,30500
" /> 
</g>
<g style="fill:#00A0A0; fill-opacity:0.0; 
stroke:#00A0A0; stroke-width:60; stroke-opacity:1; 
stroke-linecap:round; stroke-linejoin:round;">
<path d="M36350 31230
L36510 31730
L36680 31230
" />
<path d="M36830 31710
L36900 31730
L37020 31730
L37060 31710
L37090 31680
L37110 31640
L37110 31590
L37090 31540
L37060 31520
L37020 31490
L36920 31470
L36870 31450
L36850 31420
L36830 31380
L36830 31330
L36850 31280
L36870 31260
L36920 31230
L37040 31230
L37110 31260
" />
<path d="M37310 31710
L37380 31730
L37500 31730
L37540 31710
L37570 31680
L37590 31640
L37590 31590
L37570 31540
L37540 31520
L37500 31490
L37400 31470
L37350 31450
L37330 31420
L37310 31380
L37310 31330
L37330 31280
L37350 31260
L37400 31230
L37520 31230
L37590 31260
" />
</g>
<g style="fill:#00A0A0; fill-opacity:0.0; 
stroke:#00A0A0; stroke-width:0; stroke-opacity:1; 
stroke-linecap:round; stroke-linejoin:round;">
</g>
<g style="fill:#A00000; fill-opacity:0.0; 
stroke:#A00000; stroke-width:100; stroke-opacity:1; 
stroke-linecap:round; stroke-linejoin:round;">
<rect x="36000" y="19600" width="2000" height="800" rx="0" />
</g>
<g style="fill:#A00000; fill-opacity:0.0; 
stroke:#A00000; stroke-width:60; stroke-opacity:1; 
stroke-linecap:round; stroke-linejoin:round;">
<path d="M38000 20000
L38500 20000
" />
</g>
<g style="fill:#00A0A0; fill-opacity:0.0; 
stroke:#00A0A0; stroke-width:60; stroke-opacity:1; 
stroke-linecap:round; stroke-linejoin:round;">
</g>
<g style="fill:#A00000; fill-opacity:0.0; 
stroke:#A00000; stroke-width:60; stroke-opacity:1; 
stroke-linecap:round; stroke-linejoin:round;">
<path d="M36000 20000
L35500 20000
" />
</g>
<g style="fill:#00A0A0; fill-opacity:0.0; 
stroke:#00A0A0; stroke-width:60; stroke-opacity:1; 
stroke-linecap:round; stroke-linejoin:round;">
<path d="M36910 19230
L36750 18990
" />
<path d="M36630 19230
L36630 18730
L36820 18730
L36870 18760
L36890 18780
L36910 18830
L36910 18900
L36890 18950
L36870 18970
L36820 18990
L36630 18990
" />
<path d="M37340 18730
L37250 18730
L37200 18760
L37180 18780
L37130 18850
L37110 18950
L37110 19140
L37130 19180
L37150 19210
L37200 19230
L37300 19230
L37340 19210
L37370 19180
L37390 19140
L37390 19020
L37370 18970
L37340 18950
L37300 18920
L37200 18920
L37150 18950
L37130 18970
L37110 19020
" />
<path d="M36460 21230
L36180 21230
" />
<path d="M36320 21230
L36320 20730
L36270 20800
L36220 20850
L36180 20880
" />
<path d="M36770 20730
L36820 20730
L36870 20760
L36890 20780
L36920 20830
L36940 20920
L36940 21040
L36920 21140
L36890 21180
L36870 21210
L36820 21230
L36770 21230
L36730 21210
L36700 21180
L36680 21140
L36660 21040
L36660 20920
L36680 20830
L36700 20780
L36730 20760
L36770 20730
" />
<path d="M37250 20730
L37300 20730
L37350 20760
L37370 20780
L37400 20830
L37420 20920
L37420 21040
L37400 21140
L37370 21180
L37350 21210
L37300 21230
L37250 21230
L37210 21210
L37180 21180
L37160 21140
L37140 21040
L37140 20920
L37160 20830
L37180 20780
L37210 20760
L37250 20730
" />
<path d="M37640 21230
L37640 20730
" />
<path d="M37690 21040
L37830 21230
" />
<path d="M37830 20900
L37640 21090
" />
</g>
<g style="fill:#00A0A0; fill-opacity:0.0; 
stroke:#00A0A0; stroke-width:0; stroke-opacity:1; 
stroke-linecap:round; stroke-linejoin:round;">
</g>
<g style="fill:#A00000; fill-opacity:0.0; 
stroke:#A00000; stroke-width:100; stroke-opacity:1; 
stroke-linecap:round; stroke-linejoin:round;">
<rect x="29500" y="25600" width="2000" height="800" rx="0" />
</g>
<g style="fill:#A00000; fill-opacity:0.0; 
stroke:#A00000; stroke-width:60; stroke-opacity:1; 
stroke-linecap:round; stroke-linejoin:round;">
<path d="M31500 26000
L32000 26000
" />
</g>
<g style="fill:#00A0A0; fill-opacity:0.0; 
stroke:#00A0A0; stroke-width:60; stroke-opacity:1; 
stroke-linecap:round; stroke-linejoin:round;">
</g>
<g style="fill:#A00000; fill-opacity:0.0; 
stroke:#A00000; stroke-width:60; stroke-opacity:1; 
stroke-linecap:round; stroke-linejoin:round;">
<path d="M29500 26000
L29000 26000
" />
</g>
<g style="fill:#00A0A0; fill-opacity:0.0; 
stroke:#00A0A0; stroke-width:60; stroke-opacity:1; 
stroke-linecap:round; stroke-linejoin:round;">
<path d="M30410 25230
L30250 24990
" />
<path d="M30130 25230
L30130 24730
L30320 24730
L30370 24760
L30390 24780
L30410 24830
L30410 24900
L30390 24950
L30370 24970
L30320 24990
L30130 24990
" />
<path d="M30840 24900
L30840 25230
" />
<path d="M30720 24710
L30610 25070
L30910 25070
" />
<path d="M30440 27230
L30160 27230
" />
<path d="M30300 27230
L30300 26730
L30250 26800
L30200 26850
L30160 26880
" />
<path d="M30660 27230
L30660 26730
" />
<path d="M30710 27040
L30850 27230
" />
<path d="M30850 26900
L30660 27090
" />
</g>
<g style="fill:#00A0A0; fill-opacity:0.0; 
stroke:#00A0A0; stroke-width:0; stroke-opacity:1; 
stroke-linecap:round; stroke-linejoin:round;">
</g>
<g style="fill:#A00000; fill-opacity:0.0; 
stroke:#A00000; stroke-width:60; stroke-opacity:1; 
stroke-linecap:round; stroke-linejoin:round;">
<polyline fill="none;"
points="28000,27000
28000,27500
28500,27500
28000,28000
27500,27500
28000,27500
" /> 
</g>
<g style="fill:#00A0A0; fill-opacity:0.0; 
stroke:#00A0A0; stroke-width:60; stroke-opacity:1; 
stroke-linecap:round; stroke-linejoin:round;">
<path d="M27620 28200
L27570 28170
L27500 28170
L27430 28200
L27380 28240
L27360 28290
L27340 28390
L27340 28460
L27360 28550
L27380 28600
L27430 28650
L27500 28670
L27550 28670
L27620 28650
L27640 28620
L27640 28460
L27550 28460
" />
<path d="M27860 28670
L27860 28170
L28140 28670
L28140 28170
" />
<path d="M28380 28670
L28380 28170
L28500 28170
L28570 28200
L28620 28240
L28640 28290
L28660 28390
L28660 28460
L28640 28550
L28620 28600
L28570 28650
L28500 28670
L28380 28670
" />
</g>
<g style="fill:#00A0A0; fill-opacity:0.0; 
stroke:#00A0A0; stroke-width:0; stroke-opacity:1; 
stroke-linecap:round; stroke-linejoin:round;">
</g>
<g style="fill:#A00000; fill-opacity:0.0; 
stroke:#A00000; stroke-width:60; stroke-opacity:1; 
stroke-linecap:round; stroke-linejoin:round;">
<polyline fill="none;"
points="44000,33500
43000,34000
" /> 
<path d="M44000 33500
L45000 33500
" />
</g>
<g style="fill:#00A0A0; fill-opacity:0.0; 
stroke:#00A0A0; stroke-width:60; stroke-opacity:1; 
stroke-linecap:round; stroke-linejoin:round;">
</g>
<g style="fill:#00A0A0; fill-opacity:0.0; 
stroke:#00A0A0; stroke-width:50; stroke-opacity:1; 
stroke-linecap:round; stroke-linejoin:round;">
</g>
<g style="fill:#00A0A0; fill-opacity:0.0; 
stroke:#00A0A0; stroke-width:60; stroke-opacity:1; 
stroke-linecap:round; stroke-linejoin:round;">
</g>
<g style="fill:#A00000; fill-opacity:0.0; 
stroke:#A00000; stroke-width:60; stroke-opacity:1; 
stroke-linecap:round; stroke-linejoin:round;">
</g>
<g style="fill:#A00000; fill-opacity:0.0; 
stroke:#A00000; stroke-width:50; stroke-opacity:1; 
stroke-linecap:round; stroke-linejoin:round;">
<path d="M44590 33370
L44420 33370
" />
<path d="M44500 33370
L44500 33070
L44470 33110
L44450 33140
L44420 33160
" />
</g>
<g style="fill:#A00000; fill-opacity:0.0; 
stroke:#A00000; stroke-width:60; stroke-opacity:1; 
stroke-linecap:round; stroke-linejoin:round;">
<path d="M43000 34000
L42000 34000
" />
</g>
<g style="fill:#00A0A0; fill-opacity:0.0; 
stroke:#00A0A0; stroke-width:60; stroke-opacity:1; 
stroke-linecap:round; stroke-linejoin:round;">
</g>
<g style="fill:#00A0A0; fill-opacity:0.0; 
stroke:#00A0A0; stroke-width:50; stroke-opacity:1; 
stroke-linecap:round; stroke-linejoin:round;">
</g>
<g style="fill:#00A0A0; fill-opacity:0.0; 
stroke:#00A0A0; stroke-width:60; stroke-opacity:1; 
stroke-linecap:round; stroke-linejoin:round;">
</g>
<g style="fill:#A00000; fill-opacity:0.0; 
stroke:#A00000; stroke-width:60; stroke-opacity:1; 
stroke-linecap:round; stroke-linejoin:round;">
</g>
<g style="fill:#A00000; fill-opacity:0.0; 
stroke:#A00000; stroke-width:50; stroke-opacity:1; 
stroke-linecap:round; stroke-linejoin:round;">
<path d="M42420 33600
L42430 33590
L42460 33570
L42530 33570
L42560 33590
L42570 33600
L42590 33630
L42590 33660
L42570 33700
L42400 33870
L42590 33870
" />
</g>
<g style="fill:#A00000; fill-opacity:0.0; 
stroke:#A00000; stroke-width:60; stroke-opacity:1; 
stroke-linecap:round; stroke-linejoin:round;">
<path d="M43000 33000
L42000 33000
" />
</g>
<g style="fill:#00A0A0; fill-opacity:0.0; 
stroke:#00A0A0; stroke-width:60; stroke-opacity:1; 
stroke-linecap:round; stroke-linejoin:round;">
</g>
<g style="fill:#00A0A0; fill-opacity:0.0; 
stroke:#00A0A0; stroke-width:50; stroke-opacity:1; 
stroke-linecap:round; stroke-linejoin:round;">
</g>
<g style="fill:#00A0A0; fill-opacity:0.0; 
stroke:#00A0A0; stroke-width:60; stroke-opacity:1; 
stroke-linecap:round; stroke-linejoin:round;">
</g>
<g style="fill:#A00000; fill-opacity:0.0; 
stroke:#A00000; stroke-width:60; stroke-opacity:1; 
stroke-linecap:round; stroke-linejoin:round;">
</g>
<g style="fill:#A00000; fill-opacity:0.0; 
stroke:#A00000; stroke-width:50; stroke-opacity:1; 
stroke-linecap:round; stroke-linejoin:round;">
<path d="M42400 32570
L42590 32570
L42490 32690
L42530 32690
L42560 32700
L42570 32710
L42590 32740
L42590 32810
L42570 32840
L42560 32860
L42530 32870
L42450 32870
L42420 32860
L42400 32840
" />
</g>
<g style="fill:#A00000; fill-opacity:0.0; 
stroke:#A00000; stroke-width:60; stroke-opacity:1; 
stroke-linecap:round; stroke-linejoin:round;">
</g>
<g style="fill:#00A0A0; fill-opacity:0.0; 
stroke:#00A0A0; stroke-width:60; stroke-opacity:1; 
stroke-linecap:round; stroke-linejoin:round;">
<path d="M42830 32210
L42900 32230
L43020 32230
L43060 32210
L43090 32180
L43110 32140
L43110 32090
L43090 32040
L43060 32020
L43020 31990
L42920 31970
L42870 31950
L42850 31920
L42830 31880
L42830 31830
L42850 31780
L42870 31760
L42920 31730
L43040 31730
L43110 31760
" />
<path d="M43280 31730
L43400 32230
L43500 31880
L43590 32230
L43710 31730
" />
<path d="M44160 32230
L43880 32230
" />
<path d="M44020 32230
L44020 31730
L43970 31800
L43920 31850
L43880 31880
" />
<path d="M42670 35210
L42740 35230
L42860 35230
L42900 35210
L42930 35180
L42950 35140
L42950 35090
L42930 35040
L42900 35020
L42860 34990
L42760 34970
L42710 34950
L42690 34920
L42670 34880
L42670 34830
L42690 34780
L42710 34760
L42760 34730
L42880 34730
L42950 34760
" />
<path d="M43170 35230
L43170 34730
L43360 34730
L43410 34760
L43430 34780
L43450 34830
L43450 34900
L43430 34950
L43410 34970
L43360 34990
L43170 34990
" />
<path d="M43670 35230
L43670 34730
L43790 34730
L43860 34760
L43910 34800
L43930 34850
L43950 34950
L43950 35020
L43930 35110
L43910 35160
L43860 35210
L43790 35230
L43670 35230
" />
<path d="M44100 34730
L44380 34730
" />
<path d="M44240 35230
L44240 34730
" />
</g>
<g style="fill:#00A0A0; fill-opacity:0.0; 
stroke:#00A0A0; stroke-width:0; stroke-opacity:1; 
stroke-linecap:round; stroke-linejoin:round;">
</g>
<g style="fill:#A00000; fill-opacity:0.0; 
stroke:#A00000; stroke-width:60; stroke-opacity:1; 
stroke-linecap:round; stroke-linejoin:round;">
<polyline fill="none;"
points="33000,37500
33000,38000
33500,38000
33000,38500
32500,38000
33000,38000
" /> 
</g>
<g style="fill:#00A0A0; fill-opacity:0.0; 
stroke:#00A0A0; stroke-width:60; stroke-opacity:1; 
stroke-linecap:round; stroke-linejoin:round;">
<path d="M32620 38700
L32570 38670
L32500 38670
L32430 38700
L32380 38740
L32360 38790
L32340 38890
L32340 38960
L32360 39050
L32380 39100
L32430 39150
L32500 39170
L32550 39170
L32620 39150
L32640 39120
L32640 38960
L32550 38960
" />
<path d="M32860 39170
L32860 38670
L33140 39170
L33140 38670
" />
<path d="M33380 39170
L33380 38670
L33500 38670
L33570 38700
L33620 38740
L33640 38790
L33660 38890
L33660 38960
L33640 39050
L33620 39100
L33570 39150
L33500 39170
L33380 39170
" />
</g>
<g style="fill:#00A000; fill-opacity:0.0; 
stroke:#00A000; stroke-width:60; stroke-opacity:1; 
stroke-linecap:round; stroke-linejoin:round;">
<path d="M57000 34500
L59000 34500
" />
</g>
<g style="fill:#00A000; fill-opacity:0.0; 
stroke:#00A000; stroke-width:0; stroke-opacity:1; 
stroke-linecap:round; stroke-linejoin:round;">
</g>
<g style="fill:#00A000; fill-opacity:1.0; 
stroke:#00A000; stroke-width:100; stroke-opacity:1; 
stroke-linecap:round; stroke-linejoin:round;">
<circle cx="58000" cy="34500" r="160" /> 
</g>
<g style="fill:#00A000; fill-opacity:1.0; 
stroke:#00A000; stroke-width:0; stroke-opacity:1; 
stroke-linecap:round; stroke-linejoin:round;">
</g>
<g style="fill:#00A000; fill-opacity:1.0; 
stroke:#00A000; stroke-width:100; stroke-opacity:1; 
stroke-linecap:round; stroke-linejoin:round;">
<circle cx="50000" cy="33500" r="160" /> 
</g>
<g style="fill:#00A000; fill-opacity:1.0; 
stroke:#00A000; stroke-width:60; stroke-opacity:1; 
stroke-linecap:round; stroke-linejoin:round;">
<path d="M58000 27500
L58000 34500
" />
<path d="M32000 35000
L32000 36500
" />
<path d="M62000 34500
L63000 34500
" />
<path d="M50000 35500
L51000 35500
" />
<path d="M54000 31500
L54000 32500
" />
<path d="M54000 37500
L54000 36500
" />
<path d="M37000 29000
L37000 30000
" />
<path d="M37000 24000
L37000 25000
" />
<path d="M32000 26000
L34000 26000
" />
</g>
<g style="fill:#00A000; fill-opacity:1.0; 
stroke:#00A000; stroke-width:0; stroke-opacity:1; 
stroke-linecap:round; stroke-linejoin:round;">
</g>
<g style="fill:#00A000; fill-opacity:1.0; 
stroke:#00A000; stroke-width:100; stroke-opacity:1; 
stroke-linecap:round; stroke-linejoin:round;">
<circle cx="33000" cy="26000" r="160" /> 
</g>
<g style="fill:#00A000; fill-opacity:1.0; 
stroke:#00A000; stroke-width:60; stroke-opacity:1; 
stroke-linecap:round; stroke-linejoin:round;">
<path d="M28000 27000
L28000 26000
" />
<path d="M28000 26000
L29000 26000
" />
<path d="M50000 33500
L50000 27500
" />
<path d="M51000 33500
L49000 33500
" />
<path d="M50000 27500
L51500 27500
" />
<path d="M56500 27500
L58000 27500
" />
<path d="M50000 36500
L50000 35500
" />
<path d="M32000 36500
L33000 36500
" />
<path d="M33000 36500
L33000 37500
" />
<path d="M46000 33500
L45000 33500
" />
</g>
<g style="fill:#00A000; fill-opacity:1.0; 
stroke:#00A000; stroke-width:0; stroke-opacity:1; 
stroke-linecap:round; stroke-linejoin:round;">
</g>
<g style="fill:#A00000; fill-opacity:0.0; 
stroke:#A00000; stroke-width:100; stroke-opacity:1; 
stroke-linecap:round; stroke-linejoin:round;">
<rect x="32600" y="29500" width="800" height="2000" rx="0" />
</g>
<g style="fill:#A00000; fill-opacity:0.0; 
stroke:#A00000; stroke-width:60; stroke-opacity:1; 
stroke-linecap:round; stroke-linejoin:round;">
<path d="M33000 29500
L33000 29000
" />
</g>
<g style="fill:#00A0A0; fill-opacity:0.0; 
stroke:#00A0A0; stroke-width:60; stroke-opacity:1; 
stroke-linecap:round; stroke-linejoin:round;">
</g>
<g style="fill:#A00000; fill-opacity:0.0; 
stroke:#A00000; stroke-width:60; stroke-opacity:1; 
stroke-linecap:round; stroke-linejoin:round;">
<path d="M33000 31500
L33000 32000
" />
</g>
<g style="fill:#00A0A0; fill-opacity:0.0; 
stroke:#00A0A0; stroke-width:60; stroke-opacity:1; 
stroke-linecap:round; stroke-linejoin:round;">
<path d="M32230 30590
L31990 30750
" />
<path d="M32230 30870
L31730 30870
L31730 30680
L31760 30630
L31780 30610
L31830 30590
L31900 30590
L31950 30610
L31970 30630
L31990 30680
L31990 30870
" />
<path d="M31730 30130
L31730 30370
L31970 30390
L31950 30370
L31920 30320
L31920 30200
L31950 30160
L31970 30130
L32020 30110
L32140 30110
L32180 30130
L32210 30160
L32230 30200
L32230 30320
L32210 30370
L32180 30390
" />
<path d="M34230 30560
L34230 30840
" />
<path d="M34230 30700
L33730 30700
L33800 30750
L33850 30800
L33880 30840
" />
<path d="M34230 30340
L33730 30340
" />
<path d="M34040 30290
L34230 30150
" />
<path d="M33900 30150
L34090 30340
" />
</g>
<g style="fill:#00A000; fill-opacity:0.0; 
stroke:#00A000; stroke-width:60; stroke-opacity:1; 
stroke-linecap:round; stroke-linejoin:round;">
<path d="M34000 28000
L33000 28000
" />
<path d="M33000 28000
L33000 29000
" />
<path d="M40000 27000
L41000 27000
" />
<path d="M33000 32000
L33000 34000
" />
<path d="M35500 20000
L33000 20000
" />
<path d="M33000 20000
L33000 26000
" />
<path d="M38500 20000
L41000 20000
" />
</g>
<g style="fill:#00A000; fill-opacity:0.0; 
stroke:#00A000; stroke-width:0; stroke-opacity:1; 
stroke-linecap:round; stroke-linejoin:round;">
</g>
<g style="fill:#00A000; fill-opacity:1.0; 
stroke:#00A000; stroke-width:100; stroke-opacity:1; 
stroke-linecap:round; stroke-linejoin:round;">
<circle cx="41000" cy="27000" r="160" /> 
</g>
<g style="fill:#00A000; fill-opacity:1.0; 
stroke:#00A000; stroke-width:60; stroke-opacity:1; 
stroke-linecap:round; stroke-linejoin:round;">
<path d="M42000 33000
L41000 33000
" />
<path d="M41000 33000
L41000 20000
" />
<path d="M42000 34000
L40000 34000
" />
<path d="M32000 34000
L38000 34000
" />
</g>
<g style="fill:#00A000; fill-opacity:1.0; 
stroke:#00A000; stroke-width:0; stroke-opacity:1; 
stroke-linecap:round; stroke-linejoin:round;">
</g>
<g style="fill:#00A000; fill-opacity:1.0; 
stroke:#00A000; stroke-width:100; stroke-opacity:1; 
stroke-linecap:round; stroke-linejoin:round;">
<circle cx="33000" cy="34000" r="160" /> 
</g> 
</svg>
