<?xml version="1.0" standalone="no"?>
 <!DOCTYPE svg PUBLIC "-//W3C//DTD SVG 1.1//EN" 
 "http://www.w3.org/Graphics/SVG/1.1/DTD/svg11.dtd"> 
<svg xmlns="http://www.w3.org/2000/svg" version="1.1" 
    width="21.59cm" height="16.51cm" viewBox="0 0 85000 65000 ">
<title>SVG Picture created as preamp-Preamp 1.svg date 2015/06/08 16:18:07 </title>
  <desc>Picture generated by Eeschema-SVG </desc>
<g style="fill:#000000; fill-opacity:1;stroke:#000000; stroke-opacity:1;
stroke-linecap:round; stroke-linejoin:round; "
 transform="translate(0 0) scale(1 1)">
</g>
<g style="fill:#A00000; fill-opacity:0.0; 
stroke:#A00000; stroke-width:100; stroke-opacity:1; 
stroke-linecap:round; stroke-linejoin:round;">
<path d="M4000 4000
L81000 4000
L81000 61000
L4000 61000
L4000 4000
" />
<path d="M4700 4700
L80300 4700
L80300 60300
L4700 60300
L4700 4700
" />
<path d="M29660 4000
L29660 4700
" />
<path d="M16970 4550
L16690 4550
" />
<path d="M16830 4550
L16830 4050
L16780 4120
L16730 4170
L16690 4200
" />
<path d="M29660 61000
L29660 60300
" />
<path d="M16970 60850
L16690 60850
" />
<path d="M16830 60850
L16830 60350
L16780 60420
L16730 60470
L16690 60500
" />
<path d="M55320 4000
L55320 4700
" />
<path d="M42350 4100
L42370 4080
L42420 4050
L42540 4050
L42580 4080
L42610 4100
L42630 4150
L42630 4200
L42610 4270
L42320 4550
L42630 4550
" />
<path d="M55320 61000
L55320 60300
" />
<path d="M42350 60400
L42370 60380
L42420 60350
L42540 60350
L42580 60380
L42610 60400
L42630 60450
L42630 60500
L42610 60570
L42320 60850
L42630 60850
" />
<path d="M67980 4050
L68290 4050
L68120 4240
L68200 4240
L68240 4270
L68270 4290
L68290 4340
L68290 4460
L68270 4500
L68240 4530
L68200 4550
L68050 4550
L68010 4530
L67980 4500
" />
<path d="M67980 60350
L68290 60350
L68120 60540
L68200 60540
L68240 60570
L68270 60590
L68290 60640
L68290 60760
L68270 60800
L68240 60830
L68200 60850
L68050 60850
L68010 60830
L67980 60800
" />
<path d="M4000 32500
L4700 32500
" />
<path d="M4240 18310
L4470 18310
" />
<path d="M4190 18450
L4350 17950
L4520 18450
" />
<path d="M81000 32500
L80300 32500
" />
<path d="M80540 18310
L80770 18310
" />
<path d="M80490 18450
L80650 17950
L80820 18450
" />
<path d="M4390 46690
L4460 46710
L4480 46740
L4500 46790
L4500 46860
L4480 46900
L4460 46930
L4410 46950
L4220 46950
L4220 46450
L4390 46450
L4430 46480
L4460 46500
L4480 46550
L4480 46600
L4460 46640
L4430 46670
L4390 46690
L4220 46690
" />
<path d="M80690 46690
L80760 46710
L80780 46740
L80800 46790
L80800 46860
L80780 46900
L80760 46930
L80710 46950
L80520 46950
L80520 46450
L80690 46450
L80730 46480
L80760 46500
L80780 46550
L80780 46600
L80760 46640
L80730 46670
L80690 46690
L80520 46690
" />
<path d="M47450 58740
L47520 58140
L47670 58140
L47750 58170
L47800 58230
L47820 58290
L47840 58400
L47830 58490
L47790 58600
L47750 58660
L47680 58710
L47600 58740
L47450 58740
" />
<path d="M48310 58740
L48350 58430
L48320 58370
L48270 58340
L48160 58340
L48090 58370
" />
<path d="M48310 58710
L48250 58740
L48110 58740
L48050 58710
L48030 58660
L48040 58600
L48070 58540
L48140 58510
L48280 58510
L48340 58490
" />
<path d="M48560 58340
L48790 58340
" />
<path d="M48660 58140
L48600 58660
L48620 58710
L48680 58740
L48740 58740
" />
<path d="M49160 58710
L49100 58740
L48990 58740
L48930 58710
L48910 58660
L48940 58430
L48970 58370
L49040 58340
L49150 58340
L49200 58370
L49230 58430
L49220 58490
L48920 58540
" />
<path d="M49440 58690
L49470 58710
L49440 58740
L49410 58710
L49440 58690
L49440 58740
" />
<path d="M49480 58370
L49510 58400
L49480 58430
L49450 58400
L49480 58370
L49480 58430
" />
<path d="M50320 58400
L50260 58370
L50240 58340
L50210 58290
L50220 58260
L50260 58200
L50290 58170
L50350 58140
L50460 58140
L50520 58170
L50550 58200
L50570 58260
L50560 58290
L50530 58340
L50490 58370
L50430 58400
L50320 58400
L50260 58430
L50220 58460
L50190 58510
L50170 58630
L50190 58690
L50220 58710
L50280 58740
L50390 58740
L50450 58710
L50480 58690
L50520 58630
L50540 58510
L50510 58460
L50490 58430
L50430 58400
" />
<path d="M51270 58340
L51200 58860
L51170 58910
L51110 58940
L51080 58940
" />
<path d="M51290 58140
L51260 58170
L51290 58200
L51320 58170
L51290 58140
L51290 58200
" />
<path d="M51820 58340
L51770 58740
" />
<path d="M51560 58340
L51520 58660
L51540 58710
L51600 58740
L51680 58740
L51740 58710
L51770 58690
" />
<path d="M52100 58340
L52050 58740
" />
<path d="M52090 58400
L52120 58370
L52190 58340
L52270 58340
L52320 58370
L52350 58430
L52310 58740
" />
<path d="M53090 58200
L53120 58170
L53180 58140
L53320 58140
L53380 58170
L53410 58200
L53430 58260
L53420 58310
L53380 58400
L53000 58740
L53370 58740
" />
<path d="M53810 58140
L53860 58140
L53920 58170
L53950 58200
L53970 58260
L53980 58370
L53970 58510
L53920 58630
L53880 58690
L53850 58710
L53790 58740
L53740 58740
L53680 58710
L53650 58690
L53630 58630
L53620 58510
L53630 58370
L53680 58260
L53720 58200
L53750 58170
L53810 58140
" />
<path d="M54510 58740
L54160 58740
" />
<path d="M54340 58740
L54410 58140
L54340 58230
L54270 58290
L54210 58310
" />
<path d="M55120 58140
L54830 58140
L54770 58430
L54800 58400
L54860 58370
L55000 58370
L55060 58400
L55090 58430
L55110 58490
L55090 58630
L55050 58690
L55020 58710
L54960 58740
L54820 58740
L54760 58710
L54730 58690
" />
<path d="M39040 59940
L39040 59340
" />
<path d="M39390 59940
L39130 59600
" />
<path d="M39390 59340
L39040 59690
" />
<path d="M39640 59940
L39640 59540
" />
<path d="M39640 59340
L39610 59370
L39640 59400
L39670 59370
L39640 59340
L39640 59400
" />
<path d="M40280 59890
L40250 59910
L40160 59940
L40100 59940
L40020 59910
L39960 59860
L39930 59800
L39900 59690
L39900 59600
L39930 59490
L39960 59430
L40020 59370
L40100 59340
L40160 59340
L40250 59370
L40280 59400
" />
<path d="M40790 59940
L40790 59630
L40760 59570
L40700 59540
L40590 59540
L40530 59570
" />
<path d="M40790 59910
L40730 59940
L40590 59940
L40530 59910
L40500 59860
L40500 59800
L40530 59740
L40590 59710
L40730 59710
L40790 59690
" />
<path d="M41330 59940
L41330 59340
" />
<path d="M41330 59910
L41270 59940
L41160 59940
L41100 59910
L41070 59890
L41040 59830
L41040 59660
L41070 59600
L41100 59570
L41160 59540
L41270 59540
L41330 59570
" />
<path d="M42070 59630
L42270 59630
" />
<path d="M42360 59940
L42070 59940
L42070 59340
L42360 59340
" />
<path d="M42610 59890
L42640 59910
L42610 59940
L42580 59910
L42610 59890
L42610 59940
" />
<path d="M42900 59940
L42900 59340
L43050 59340
L43130 59370
L43190 59430
L43220 59490
L43250 59600
L43250 59690
L43220 59800
L43190 59860
L43130 59910
L43050 59940
L42900 59940
" />
<path d="M43500 59890
L43530 59910
L43500 59940
L43470 59910
L43500 59890
L43500 59940
" />
<path d="M43760 59770
L44050 59770
" />
<path d="M43710 59940
L43910 59340
L44110 59940
" />
<path d="M44300 59890
L44330 59910
L44300 59940
L44270 59910
L44300 59890
L44300 59940
" />
<path d="M72600 58740
L72430 58460
" />
<path d="M72250 58740
L72320 58140
L72550 58140
L72610 58170
L72640 58200
L72660 58260
L72650 58340
L72610 58400
L72580 58430
L72510 58460
L72280 58460
" />
<path d="M73080 58710
L73020 58740
L72910 58740
L72850 58710
L72830 58660
L72860 58430
L72890 58370
L72960 58340
L73070 58340
L73120 58370
L73150 58430
L73140 58490
L72840 58540
" />
<path d="M73360 58340
L73450 58740
L73640 58340
" />
<path d="M73820 58690
L73850 58710
L73820 58740
L73790 58710
L73820 58690
L73820 58740
" />
<path d="M73860 58370
L73890 58400
L73860 58430
L73830 58400
L73860 58370
L73860 58430
" />
<path d="M39010 58710
L39100 58740
L39240 58740
L39300 58710
L39330 58690
L39360 58630
L39360 58570
L39330 58510
L39300 58490
L39240 58460
L39130 58430
L39070 58400
L39040 58370
L39010 58310
L39010 58260
L39040 58200
L39070 58170
L39130 58140
L39270 58140
L39360 58170
" />
<path d="M39610 58740
L39610 58340
" />
<path d="M39610 58140
L39580 58170
L39610 58200
L39640 58170
L39610 58140
L39610 58200
" />
<path d="M39850 58340
L40160 58340
L39850 58740
L40160 58740
" />
<path d="M40620 58710
L40560 58740
L40450 58740
L40390 58710
L40360 58660
L40360 58430
L40390 58370
L40450 58340
L40560 58340
L40620 58370
L40650 58430
L40650 58490
L40360 58540
" />
<path d="M40900 58690
L40930 58710
L40900 58740
L40870 58710
L40900 58690
L40900 58740
" />
<path d="M40900 58370
L40930 58400
L40900 58430
L40870 58400
L40900 58370
L40900 58430
" />
<path d="M41650 58140
L41650 58630
L41680 58690
L41710 58710
L41770 58740
L41880 58740
L41940 58710
L41970 58690
L42000 58630
L42000 58140
" />
<path d="M42250 58710
L42310 58740
L42430 58740
L42480 58710
L42510 58660
L42510 58630
L42480 58570
L42430 58540
L42340 58540
L42280 58510
L42250 58460
L42250 58430
L42280 58370
L42340 58340
L42430 58340
L42480 58370
" />
<path d="M43000 58710
L42940 58740
L42830 58740
L42770 58710
L42740 58660
L42740 58430
L42770 58370
L42830 58340
L42940 58340
L43000 58370
L43030 58430
L43030 58490
L42740 58540
" />
<path d="M43280 58740
L43280 58340
" />
<path d="M43280 58460
L43310 58400
L43340 58370
L43400 58340
L43450 58340
" />
<path d="M72240 59940
L72240 59340
" />
<path d="M72790 59940
L72790 59340
" />
<path d="M72790 59910
L72730 59940
L72620 59940
L72560 59910
L72530 59890
L72500 59830
L72500 59660
L72530 59600
L72560 59570
L72620 59540
L72730 59540
L72790 59570
" />
<path d="M73070 59890
L73100 59910
L73070 59940
L73040 59910
L73070 59890
L73070 59940
" />
<path d="M73070 59570
L73100 59600
L73070 59630
L73040 59600
L73070 59570
L73070 59630
" />
<path d="M73770 59340
L74140 59340
L73940 59570
L74020 59570
L74080 59600
L74110 59630
L74140 59690
L74140 59830
L74110 59890
L74080 59910
L74020 59940
L73850 59940
L73790 59910
L73770 59890
" />
<path d="M74820 59310
L74310 60090
" />
<path d="M75110 59600
L75050 59570
L75020 59540
L74990 59490
L74990 59460
L75020 59400
L75050 59370
L75110 59340
L75220 59340
L75280 59370
L75310 59400
L75340 59460
L75340 59490
L75310 59540
L75280 59570
L75220 59600
L75110 59600
L75050 59630
L75020 59660
L74990 59710
L74990 59830
L75020 59890
L75050 59910
L75110 59940
L75220 59940
L75280 59910
L75310 59890
L75340 59830
L75340 59710
L75310 59660
L75280 59630
L75220 59600
" />
<path d="M39040 56940
L39380 56940
" />
<path d="M39140 57540
L39210 56940
" />
<path d="M39510 57540
L39560 57140
" />
<path d="M39580 56940
L39550 56970
L39580 57000
L39610 56970
L39580 56940
L39580 57000
" />
<path d="M39770 57140
L40000 57140
" />
<path d="M39870 56940
L39810 57460
L39830 57510
L39890 57540
L39950 57540
" />
<path d="M40230 57540
L40170 57510
L40150 57460
L40210 56940
" />
<path d="M40680 57510
L40620 57540
L40510 57540
L40450 57510
L40430 57460
L40460 57230
L40490 57170
L40560 57140
L40670 57140
L40720 57170
L40750 57230
L40740 57290
L40440 57340
" />
<path d="M40960 57490
L40990 57510
L40960 57540
L40930 57510
L40960 57490
L40960 57540
" />
<path d="M41000 57170
L41030 57200
L41000 57230
L40970 57200
L41000 57170
L41000 57230
" />
<path d="M42100 56970
L42040 56940
L41950 56940
L41870 56970
L41800 57030
L41760 57090
L41720 57200
L41710 57290
L41730 57400
L41750 57460
L41800 57510
L41880 57540
L41940 57540
L42030 57510
L42060 57490
L42090 57290
L41970 57290
" />
<path d="M42540 57510
L42480 57540
L42370 57540
L42310 57510
L42290 57460
L42320 57230
L42350 57170
L42420 57140
L42530 57140
L42580 57170
L42610 57230
L42600 57290
L42300 57340
" />
<path d="M42870 57140
L42820 57540
" />
<path d="M42860 57200
L42890 57170
L42960 57140
L43040 57140
L43090 57170
L43120 57230
L43080 57540
" />
<path d="M43590 57510
L43530 57540
L43420 57540
L43360 57510
L43340 57460
L43370 57230
L43400 57170
L43470 57140
L43580 57140
L43630 57170
L43660 57230
L43650 57290
L43350 57340
" />
<path d="M43870 57540
L43920 57140
" />
<path d="M43900 57260
L43940 57200
L43970 57170
L44040 57140
L44090 57140
" />
<path d="M44500 57540
L44540 57230
L44510 57170
L44460 57140
L44350 57140
L44280 57170
" />
<path d="M44500 57510
L44440 57540
L44300 57540
L44240 57510
L44220 57460
L44230 57400
L44260 57340
L44330 57310
L44470 57310
L44530 57290
" />
<path d="M44870 57540
L44810 57510
L44790 57460
L44850 56940
" />
<path d="M45600 57140
L45520 57740
" />
<path d="M45590 57170
L45660 57140
L45770 57140
L45820 57170
L45850 57200
L45870 57260
L45850 57430
L45810 57490
L45780 57510
L45720 57540
L45610 57540
L45550 57510
" />
<path d="M46400 57140
L46350 57540
" />
<path d="M46140 57140
L46100 57460
L46120 57510
L46180 57540
L46260 57540
L46320 57510
L46350 57490
" />
<path d="M46630 57540
L46680 57140
" />
<path d="M46660 57260
L46700 57200
L46730 57170
L46800 57140
L46850 57140
" />
<path d="M47050 57140
L46970 57740
" />
<path d="M47040 57170
L47110 57140
L47220 57140
L47270 57170
L47300 57200
L47320 57260
L47300 57430
L47260 57490
L47230 57510
L47170 57540
L47060 57540
L47000 57510
" />
<path d="M47630 57540
L47570 57510
L47540 57490
L47520 57430
L47540 57260
L47580 57200
L47610 57170
L47680 57140
L47760 57140
L47810 57170
L47840 57200
L47860 57260
L47840 57430
L47800 57490
L47770 57510
L47710 57540
L47630 57540
" />
<path d="M48050 57510
L48110 57540
L48230 57540
L48280 57510
L48320 57460
L48320 57430
L48300 57370
L48250 57340
L48160 57340
L48110 57310
L48080 57260
L48090 57230
L48120 57170
L48190 57140
L48280 57140
L48320 57170
" />
<path d="M48800 57510
L48740 57540
L48630 57540
L48570 57510
L48550 57460
L48580 57230
L48610 57170
L48680 57140
L48790 57140
L48840 57170
L48870 57230
L48860 57290
L48560 57340
" />
<path d="M49800 57540
L49840 57230
L49810 57170
L49760 57140
L49650 57140
L49580 57170
" />
<path d="M49800 57510
L49740 57540
L49600 57540
L49540 57510
L49520 57460
L49530 57400
L49560 57340
L49630 57310
L49770 57310
L49830 57290
" />
<path d="M50390 57140
L50340 57540
" />
<path d="M50130 57140
L50090 57460
L50110 57510
L50170 57540
L50250 57540
L50310 57510
L50340 57490
" />
<path d="M50880 57540
L50950 56940
" />
<path d="M50880 57510
L50820 57540
L50710 57540
L50650 57510
L50620 57490
L50600 57430
L50620 57260
L50660 57200
L50690 57170
L50760 57140
L50870 57140
L50920 57170
" />
<path d="M51160 57540
L51210 57140
" />
<path d="M51230 56940
L51200 56970
L51230 57000
L51260 56970
L51230 56940
L51230 57000
" />
<path d="M51540 57540
L51480 57510
L51450 57490
L51430 57430
L51450 57260
L51490 57200
L51520 57170
L51590 57140
L51670 57140
L51720 57170
L51750 57200
L51770 57260
L51750 57430
L51710 57490
L51680 57510
L51620 57540
L51540 57540
" />
<path d="M52500 57140
L52420 57740
" />
<path d="M52490 57170
L52560 57140
L52670 57140
L52720 57170
L52750 57200
L52770 57260
L52750 57430
L52710 57490
L52680 57510
L52620 57540
L52510 57540
L52450 57510
" />
<path d="M52990 57540
L53040 57140
" />
<path d="M53020 57260
L53060 57200
L53090 57170
L53160 57140
L53210 57140
" />
<path d="M53590 57510
L53530 57540
L53420 57540
L53360 57510
L53340 57460
L53370 57230
L53400 57170
L53470 57140
L53580 57140
L53630 57170
L53660 57230
L53650 57290
L53350 57340
" />
<path d="M54130 57540
L54170 57230
L54140 57170
L54090 57140
L53980 57140
L53910 57170
" />
<path d="M54130 57510
L54070 57540
L53930 57540
L53870 57510
L53850 57460
L53860 57400
L53890 57340
L53960 57310
L54100 57310
L54160 57290
" />
<path d="M54410 57540
L54460 57140
" />
<path d="M54450 57200
L54480 57170
L54550 57140
L54630 57140
L54680 57170
L54710 57230
L54670 57540
" />
<path d="M54710 57230
L54740 57170
L54810 57140
L54890 57140
L54940 57170
L54970 57230
L54930 57540
" />
<path d="M55260 57140
L55180 57740
" />
<path d="M55250 57170
L55320 57140
L55430 57140
L55480 57170
L55510 57200
L55530 57260
L55510 57430
L55470 57490
L55440 57510
L55380 57540
L55270 57540
L55210 57510
" />
<path d="M55840 57540
L55780 57510
L55760 57460
L55820 56940
" />
<path d="M56060 57540
L56110 57140
" />
<path d="M56130 56940
L56100 56970
L56130 57000
L56160 56970
L56130 56940
L56130 57000
" />
<path d="M56320 57140
L56550 57140
" />
<path d="M56350 57540
L56410 57030
L56450 56970
L56510 56940
L56570 56940
" />
<path d="M56690 57540
L56740 57140
" />
<path d="M56760 56940
L56730 56970
L56760 57000
L56790 56970
L56760 56940
L56760 57000
" />
<path d="M57210 57510
L57150 57540
L57040 57540
L56980 57510
L56960 57460
L56990 57230
L57020 57170
L57090 57140
L57200 57140
L57250 57170
L57280 57230
L57270 57290
L56970 57340
" />
<path d="M57490 57540
L57540 57140
" />
<path d="M57520 57260
L57560 57200
L57590 57170
L57660 57140
L57710 57140
" />
<path d="M58320 57140
L58380 57540
L58520 57260
L58610 57540
L58770 57140
" />
<path d="M58950 57540
L59000 57140
" />
<path d="M59020 56940
L58990 56970
L59020 57000
L59050 56970
L59020 56940
L59020 57000
" />
<path d="M59210 57140
L59440 57140
" />
<path d="M59310 56940
L59250 57460
L59270 57510
L59330 57540
L59390 57540
" />
<path d="M59580 57540
L59650 56940
" />
<path d="M59840 57540
L59880 57230
L59850 57170
L59800 57140
L59720 57140
L59650 57170
L59620 57200
" />
<path d="M60580 57540
L60630 57140
" />
<path d="M60620 57200
L60650 57170
L60720 57140
L60800 57140
L60850 57170
L60880 57230
L60840 57540
" />
<path d="M60880 57230
L60910 57170
L60980 57140
L61060 57140
L61110 57170
L61140 57230
L61100 57540
" />
<path d="M61380 57540
L61430 57140
" />
<path d="M61450 56940
L61420 56970
L61450 57000
L61480 56970
L61450 56940
L61450 57000
" />
<path d="M61930 57510
L61870 57540
L61760 57540
L61700 57510
L61670 57490
L61650 57430
L61670 57260
L61710 57200
L61740 57170
L61810 57140
L61920 57140
L61970 57170
" />
<path d="M62640 57540
L62710 56940
" />
<path d="M62680 57170
L62750 57140
L62860 57140
L62910 57170
L62940 57200
L62960 57260
L62940 57430
L62900 57490
L62870 57510
L62810 57540
L62700 57540
L62640 57510
" />
<path d="M63270 57540
L63210 57510
L63180 57490
L63160 57430
L63180 57260
L63220 57200
L63250 57170
L63320 57140
L63400 57140
L63450 57170
L63480 57200
L63500 57260
L63480 57430
L63440 57490
L63410 57510
L63350 57540
L63270 57540
" />
<path d="M63810 57540
L63750 57510
L63720 57490
L63700 57430
L63720 57260
L63760 57200
L63790 57170
L63860 57140
L63940 57140
L63990 57170
L64020 57200
L64040 57260
L64020 57430
L63980 57490
L63950 57510
L63890 57540
L63810 57540
" />
<path d="M64230 57510
L64290 57540
L64410 57540
L64460 57510
L64500 57460
L64500 57430
L64480 57370
L64430 57340
L64340 57340
L64290 57310
L64260 57260
L64270 57230
L64300 57170
L64370 57140
L64460 57140
L64500 57170
" />
<path d="M64720 57140
L64950 57140
" />
<path d="M64820 56940
L64760 57460
L64780 57510
L64840 57540
L64900 57540
" />
<path d="M65120 57310
L65580 57310
" />
<path d="M65320 57540
L65370 57090
" />
<path d="M66090 57510
L66030 57540
L65920 57540
L65860 57510
L65830 57490
L65810 57430
L65830 57260
L65870 57200
L65900 57170
L65970 57140
L66080 57140
L66130 57170
" />
<path d="M66430 57540
L66370 57510
L66340 57490
L66320 57430
L66340 57260
L66380 57200
L66410 57170
L66480 57140
L66560 57140
L66610 57170
L66640 57200
L66660 57260
L66640 57430
L66600 57490
L66570 57510
L66510 57540
L66430 57540
" />
<path d="M67190 57140
L67140 57540
" />
<path d="M66930 57140
L66890 57460
L66910 57510
L66970 57540
L67050 57540
L67110 57510
L67140 57490
" />
<path d="M67470 57140
L67390 57740
" />
<path d="M67460 57170
L67530 57140
L67640 57140
L67690 57170
L67720 57200
L67740 57260
L67720 57430
L67680 57490
L67650 57510
L67590 57540
L67480 57540
L67420 57510
" />
<path d="M68050 57540
L67990 57510
L67970 57460
L68030 56940
" />
<path d="M68500 57510
L68440 57540
L68330 57540
L68270 57510
L68250 57460
L68280 57230
L68310 57170
L68380 57140
L68490 57140
L68540 57170
L68570 57230
L68560 57290
L68260 57340
" />
<path d="M69500 57540
L69540 57230
L69510 57170
L69460 57140
L69350 57140
L69280 57170
" />
<path d="M69500 57510
L69440 57540
L69300 57540
L69240 57510
L69220 57460
L69230 57400
L69260 57340
L69330 57310
L69470 57310
L69530 57290
" />
<path d="M69830 57140
L69780 57540
" />
<path d="M69820 57200
L69850 57170
L69920 57140
L70000 57140
L70050 57170
L70080 57230
L70040 57540
" />
<path d="M70580 57540
L70650 56940
" />
<path d="M70580 57510
L70520 57540
L70410 57540
L70350 57510
L70320 57490
L70300 57430
L70320 57260
L70360 57200
L70390 57170
L70460 57140
L70570 57140
L70620 57170
" />
<path d="M71320 57140
L71410 57540
L71600 57140
" />
<path d="M72040 57540
L72080 57230
L72050 57170
L72000 57140
L71890 57140
L71820 57170
" />
<path d="M72040 57510
L71980 57540
L71840 57540
L71780 57510
L71760 57460
L71770 57400
L71800 57340
L71870 57310
L72010 57310
L72070 57290
" />
<path d="M72320 57540
L72370 57140
" />
<path d="M72350 57260
L72390 57200
L72420 57170
L72490 57140
L72540 57140
" />
<path d="M72690 57540
L72740 57140
" />
<path d="M72760 56940
L72730 56970
L72760 57000
L72790 56970
L72760 56940
L72760 57000
" />
<path d="M73240 57540
L73280 57230
L73250 57170
L73200 57140
L73090 57140
L73020 57170
" />
<path d="M73240 57510
L73180 57540
L73040 57540
L72980 57510
L72960 57460
L72970 57400
L73000 57340
L73070 57310
L73210 57310
L73270 57290
" />
<path d="M73520 57540
L73590 56940
" />
<path d="M73560 57170
L73630 57140
L73740 57140
L73790 57170
L73820 57200
L73840 57260
L73820 57430
L73780 57490
L73750 57510
L73690 57540
L73580 57540
L73520 57510
" />
<path d="M74150 57540
L74090 57510
L74070 57460
L74130 56940
" />
<path d="M74600 57510
L74540 57540
L74430 57540
L74370 57510
L74350 57460
L74380 57230
L74410 57170
L74480 57140
L74590 57140
L74640 57170
L74670 57230
L74660 57290
L74360 57340
" />
<path d="M75650 57140
L75590 57630
L75550 57690
L75520 57710
L75460 57740
L75370 57740
L75320 57710
" />
<path d="M75600 57510
L75540 57540
L75430 57540
L75370 57510
L75340 57490
L75320 57430
L75340 57260
L75380 57200
L75410 57170
L75480 57140
L75590 57140
L75640 57170
" />
<path d="M76140 57540
L76180 57230
L76150 57170
L76100 57140
L75990 57140
L75920 57170
" />
<path d="M76140 57510
L76080 57540
L75940 57540
L75880 57510
L75860 57460
L75870 57400
L75900 57340
L75970 57310
L76110 57310
L76170 57290
" />
<path d="M76420 57540
L76470 57140
" />
<path d="M76490 56940
L76460 56970
L76490 57000
L76520 56970
L76490 56940
L76490 57000
" />
<path d="M76760 57140
L76710 57540
" />
<path d="M76750 57200
L76780 57170
L76850 57140
L76930 57140
L76980 57170
L77010 57230
L76970 57540
" />
<path d="M39240 54830
L39040 54830
" />
<path d="M39040 55140
L39040 54540
L39330 54540
" />
<path d="M39550 55140
L39550 54740
" />
<path d="M39550 54540
L39520 54570
L39550 54600
L39580 54570
L39550 54540
L39550 54600
" />
<path d="M39930 55140
L39870 55110
L39840 55060
L39840 54540
" />
<path d="M40380 55110
L40320 55140
L40210 55140
L40150 55110
L40120 55060
L40120 54830
L40150 54770
L40210 54740
L40320 54740
L40380 54770
L40410 54830
L40410 54890
L40120 54940
" />
<path d="M40660 55090
L40690 55110
L40660 55140
L40630 55110
L40660 55090
L40660 55140
" />
<path d="M40660 54770
L40690 54800
L40660 54830
L40630 54800
L40660 54770
L40660 54830
" />
<path d="M41410 54740
L41410 55340
" />
<path d="M41410 54770
L41470 54740
L41580 54740
L41640 54770
L41670 54800
L41700 54860
L41700 55030
L41670 55090
L41640 55110
L41580 55140
L41470 55140
L41410 55110
" />
<path d="M41950 55140
L41950 54740
" />
<path d="M41950 54860
L41980 54800
L42010 54770
L42070 54740
L42120 54740
" />
<path d="M42550 55110
L42490 55140
L42380 55140
L42320 55110
L42290 55060
L42290 54830
L42320 54770
L42380 54740
L42490 54740
L42550 54770
L42580 54830
L42580 54890
L42290 54940
" />
<path d="M43090 55140
L43090 54830
L43060 54770
L43000 54740
L42890 54740
L42830 54770
" />
<path d="M43090 55110
L43030 55140
L42890 55140
L42830 55110
L42800 55060
L42800 55000
L42830 54940
L42890 54910
L43030 54910
L43090 54890
" />
<path d="M43370 55140
L43370 54740
" />
<path d="M43370 54800
L43400 54770
L43460 54740
L43540 54740
L43600 54770
L43630 54830
L43630 55140
" />
<path d="M43630 54830
L43660 54770
L43720 54740
L43800 54740
L43860 54770
L43890 54830
L43890 55140
" />
<path d="M44170 54740
L44170 55340
" />
<path d="M44170 54770
L44230 54740
L44340 54740
L44400 54770
L44430 54800
L44460 54860
L44460 55030
L44430 55090
L44400 55110
L44340 55140
L44230 55140
L44170 55110
" />
<path d="M44710 55090
L44740 55110
L44710 55140
L44680 55110
L44710 55090
L44710 55140
" />
<path d="M44970 55110
L45030 55140
L45150 55140
L45200 55110
L45230 55060
L45230 55030
L45200 54970
L45150 54940
L45060 54940
L45000 54910
L44970 54860
L44970 54830
L45000 54770
L45060 54740
L45150 54740
L45200 54770
" />
<path d="M45750 55110
L45690 55140
L45580 55140
L45520 55110
L45490 55090
L45460 55030
L45460 54860
L45490 54800
L45520 54770
L45580 54740
L45690 54740
L45750 54770
" />
<path d="M46000 55140
L46000 54540
" />
<path d="M46260 55140
L46260 54830
L46230 54770
L46170 54740
L46090 54740
L46030 54770
L46000 54800
" />
<path d="M39010 56310
L39100 56340
L39240 56340
L39300 56310
L39330 56290
L39360 56230
L39360 56170
L39330 56110
L39300 56090
L39240 56060
L39130 56030
L39070 56000
L39040 55970
L39010 55910
L39010 55860
L39040 55800
L39070 55770
L39130 55740
L39270 55740
L39360 55770
" />
<path d="M39610 56340
L39610 55740
" />
<path d="M39870 56340
L39870 56030
L39840 55970
L39780 55940
L39700 55940
L39640 55970
L39610 56000
" />
<path d="M40380 56310
L40320 56340
L40210 56340
L40150 56310
L40120 56260
L40120 56030
L40150 55970
L40210 55940
L40320 55940
L40380 55970
L40410 56030
L40410 56090
L40120 56140
" />
<path d="M40890 56310
L40830 56340
L40720 56340
L40660 56310
L40630 56260
L40630 56030
L40660 55970
L40720 55940
L40830 55940
L40890 55970
L40920 56030
L40920 56090
L40630 56140
" />
<path d="M41090 55940
L41320 55940
" />
<path d="M41170 55740
L41170 56260
L41200 56310
L41260 56340
L41320 56340
" />
<path d="M41510 56290
L41540 56310
L41510 56340
L41480 56310
L41510 56290
L41510 56340
" />
<path d="M41510 55970
L41540 56000
L41510 56030
L41480 56000
L41510 55970
L41510 56030
" />
<path d="M42690 55710
L42180 56490
" />
<path d="M42890 56340
L42890 55740
L43120 55740
L43180 55770
L43210 55800
L43240 55860
L43240 55940
L43210 56000
L43180 56030
L43120 56060
L42890 56060
" />
<path d="M43490 56340
L43490 55940
" />
<path d="M43490 56060
L43520 56000
L43550 55970
L43610 55940
L43660 55940
" />
<path d="M44090 56310
L44030 56340
L43920 56340
L43860 56310
L43830 56260
L43830 56030
L43860 55970
L43920 55940
L44030 55940
L44090 55970
L44120 56030
L44120 56090
L43830 56140
" />
<path d="M44630 56340
L44630 56030
L44600 55970
L44540 55940
L44430 55940
L44370 55970
" />
<path d="M44630 56310
L44570 56340
L44430 56340
L44370 56310
L44340 56260
L44340 56200
L44370 56140
L44430 56110
L44570 56110
L44630 56090
" />
<path d="M44910 56340
L44910 55940
" />
<path d="M44910 56000
L44940 55970
L45000 55940
L45080 55940
L45140 55970
L45170 56030
L45170 56340
" />
<path d="M45170 56030
L45200 55970
L45260 55940
L45340 55940
L45400 55970
L45430 56030
L45430 56340
" />
<path d="M45710 55940
L45710 56540
" />
<path d="M45710 55970
L45770 55940
L45880 55940
L45940 55970
L45970 56000
L46000 56060
L46000 56230
L45970 56290
L45940 56310
L45880 56340
L45770 56340
L45710 56310
" />
<path d="M47030 56340
L46680 56340
" />
<path d="M46860 56340
L46860 55740
L46800 55830
L46740 55890
L46680 55910
" />
<path d="M47710 55710
L47200 56490
" />
<path d="M38300 54300
L38300 60300
" />
<path d="M38300 54300
L80300 54300
" />
<path d="M38300 54300
L80300 54300
" />
<path d="M38300 56700
L80300 56700
" />
<path d="M71500 57900
L71500 60300
" />
<path d="M38300 59100
L80300 59100
" />
<path d="M38300 57900
L80300 57900
" />
<path d="M44900 57900
L44900 59100
" />
</g>
<g style="fill:#A00000; fill-opacity:0.0; 
stroke:#A00000; stroke-width:0; stroke-opacity:1; 
stroke-linecap:round; stroke-linejoin:round;">
</g>
<g style="fill:#FFFF80; fill-opacity:0.6; 
stroke:#FFFF80; stroke-width:0; stroke-opacity:1; 
stroke-linecap:round; stroke-linejoin:round;">
<polyline style="fill-rule:evenodd;"
points="46000,26500
42000,24500
42000,28500
46000,26500
" /> 
</g>
<g style="fill:#A00000; fill-opacity:0.0; 
stroke:#A00000; stroke-width:60; stroke-opacity:1; 
stroke-linecap:round; stroke-linejoin:round;">
<polyline fill="none;"
points="46000,26500
42000,24500
42000,28500
46000,26500
" /> 
<path d="M44000 27500
L44000 28500
" />
</g>
<g style="fill:#00A0A0; fill-opacity:0.0; 
stroke:#00A0A0; stroke-width:60; stroke-opacity:1; 
stroke-linecap:round; stroke-linejoin:round;">
</g>
<g style="fill:#00A0A0; fill-opacity:0.0; 
stroke:#00A0A0; stroke-width:50; stroke-opacity:1; 
stroke-linecap:round; stroke-linejoin:round;">
<path d="M43820 27270
L44120 27170
L43820 27070
" />
<path d="M44010 26970
L44010 26740
" />
</g>
<g style="fill:#00A0A0; fill-opacity:0.0; 
stroke:#00A0A0; stroke-width:60; stroke-opacity:1; 
stroke-linecap:round; stroke-linejoin:round;">
</g>
<g style="fill:#A00000; fill-opacity:0.0; 
stroke:#A00000; stroke-width:60; stroke-opacity:1; 
stroke-linecap:round; stroke-linejoin:round;">
</g>
<g style="fill:#A00000; fill-opacity:0.0; 
stroke:#A00000; stroke-width:50; stroke-opacity:1; 
stroke-linecap:round; stroke-linejoin:round;">
<path d="M43670 27940
L43870 27940
" />
<path d="M43560 28010
L43770 28080
L43770 27900
" />
</g>
<g style="fill:#A00000; fill-opacity:0.0; 
stroke:#A00000; stroke-width:60; stroke-opacity:1; 
stroke-linecap:round; stroke-linejoin:round;">
<path d="M44000 25500
L44000 24500
" />
</g>
<g style="fill:#00A0A0; fill-opacity:0.0; 
stroke:#00A0A0; stroke-width:60; stroke-opacity:1; 
stroke-linecap:round; stroke-linejoin:round;">
</g>
<g style="fill:#00A0A0; fill-opacity:0.0; 
stroke:#00A0A0; stroke-width:50; stroke-opacity:1; 
stroke-linecap:round; stroke-linejoin:round;">
<path d="M43820 26300
L44120 26200
L43820 26100
" />
<path d="M44010 26000
L44010 25770
" />
<path d="M44120 25880
L43890 25880
" />
</g>
<g style="fill:#00A0A0; fill-opacity:0.0; 
stroke:#00A0A0; stroke-width:60; stroke-opacity:1; 
stroke-linecap:round; stroke-linejoin:round;">
</g>
<g style="fill:#A00000; fill-opacity:0.0; 
stroke:#A00000; stroke-width:60; stroke-opacity:1; 
stroke-linecap:round; stroke-linejoin:round;">
</g>
<g style="fill:#A00000; fill-opacity:0.0; 
stroke:#A00000; stroke-width:50; stroke-opacity:1; 
stroke-linecap:round; stroke-linejoin:round;">
<path d="M43700 25030
L43690 25050
L43670 25070
L43640 25080
L43630 25080
L43600 25070
L43590 25050
L43570 25030
L43570 24970
L43590 24940
L43600 24930
L43630 24910
L43640 24910
L43670 24930
L43690 24940
L43700 24970
L43700 25030
L43710 25050
L43730 25070
L43760 25080
L43810 25080
L43840 25070
L43860 25050
L43870 25030
L43870 24970
L43860 24940
L43840 24930
L43810 24910
L43760 24910
L43730 24930
L43710 24940
L43700 24970
" />
</g>
<g style="fill:#A00000; fill-opacity:0.0; 
stroke:#A00000; stroke-width:60; stroke-opacity:1; 
stroke-linecap:round; stroke-linejoin:round;">
<path d="M42000 27500
L41000 27500
" />
</g>
<g style="fill:#00A0A0; fill-opacity:0.0; 
stroke:#00A0A0; stroke-width:60; stroke-opacity:1; 
stroke-linecap:round; stroke-linejoin:round;">
</g>
<g style="fill:#00A0A0; fill-opacity:0.0; 
stroke:#00A0A0; stroke-width:50; stroke-opacity:1; 
stroke-linecap:round; stroke-linejoin:round;">
<path d="M42270 27510
L42500 27510
" />
<path d="M42390 27620
L42390 27390
" />
</g>
<g style="fill:#00A0A0; fill-opacity:0.0; 
stroke:#00A0A0; stroke-width:60; stroke-opacity:1; 
stroke-linecap:round; stroke-linejoin:round;">
</g>
<g style="fill:#A00000; fill-opacity:0.0; 
stroke:#A00000; stroke-width:60; stroke-opacity:1; 
stroke-linecap:round; stroke-linejoin:round;">
</g>
<g style="fill:#A00000; fill-opacity:0.0; 
stroke:#A00000; stroke-width:50; stroke-opacity:1; 
stroke-linecap:round; stroke-linejoin:round;">
<path d="M41570 27070
L41430 27070
L41420 27210
L41430 27200
L41460 27190
L41530 27190
L41560 27200
L41570 27210
L41590 27240
L41590 27310
L41570 27340
L41560 27360
L41530 27370
L41460 27370
L41430 27360
L41420 27340
" />
</g>
<g style="fill:#A00000; fill-opacity:0.0; 
stroke:#A00000; stroke-width:60; stroke-opacity:1; 
stroke-linecap:round; stroke-linejoin:round;">
<path d="M42000 25500
L41000 25500
" />
</g>
<g style="fill:#00A0A0; fill-opacity:0.0; 
stroke:#00A0A0; stroke-width:60; stroke-opacity:1; 
stroke-linecap:round; stroke-linejoin:round;">
</g>
<g style="fill:#00A0A0; fill-opacity:0.0; 
stroke:#00A0A0; stroke-width:50; stroke-opacity:1; 
stroke-linecap:round; stroke-linejoin:round;">
<path d="M42270 25510
L42500 25510
" />
</g>
<g style="fill:#00A0A0; fill-opacity:0.0; 
stroke:#00A0A0; stroke-width:60; stroke-opacity:1; 
stroke-linecap:round; stroke-linejoin:round;">
</g>
<g style="fill:#A00000; fill-opacity:0.0; 
stroke:#A00000; stroke-width:60; stroke-opacity:1; 
stroke-linecap:round; stroke-linejoin:round;">
</g>
<g style="fill:#A00000; fill-opacity:0.0; 
stroke:#A00000; stroke-width:50; stroke-opacity:1; 
stroke-linecap:round; stroke-linejoin:round;">
<path d="M41560 25070
L41500 25070
L41470 25090
L41460 25100
L41430 25140
L41420 25200
L41420 25310
L41430 25340
L41450 25360
L41470 25370
L41530 25370
L41560 25360
L41570 25340
L41590 25310
L41590 25240
L41570 25210
L41560 25200
L41530 25190
L41470 25190
L41450 25200
L41430 25210
L41420 25240
" />
</g>
<g style="fill:#A00000; fill-opacity:0.0; 
stroke:#A00000; stroke-width:60; stroke-opacity:1; 
stroke-linecap:round; stroke-linejoin:round;">
<path d="M46000 26500
L47000 26500
" />
</g>
<g style="fill:#00A0A0; fill-opacity:0.0; 
stroke:#00A0A0; stroke-width:60; stroke-opacity:1; 
stroke-linecap:round; stroke-linejoin:round;">
</g>
<g style="fill:#00A0A0; fill-opacity:0.0; 
stroke:#00A0A0; stroke-width:50; stroke-opacity:1; 
stroke-linecap:round; stroke-linejoin:round;">
</g>
<g style="fill:#00A0A0; fill-opacity:0.0; 
stroke:#00A0A0; stroke-width:60; stroke-opacity:1; 
stroke-linecap:round; stroke-linejoin:round;">
</g>
<g style="fill:#A00000; fill-opacity:0.0; 
stroke:#A00000; stroke-width:60; stroke-opacity:1; 
stroke-linecap:round; stroke-linejoin:round;">
</g>
<g style="fill:#A00000; fill-opacity:0.0; 
stroke:#A00000; stroke-width:50; stroke-opacity:1; 
stroke-linecap:round; stroke-linejoin:round;">
<path d="M46400 26070
L46600 26070
L46470 26370
" />
</g>
<g style="fill:#A00000; fill-opacity:0.0; 
stroke:#A00000; stroke-width:60; stroke-opacity:1; 
stroke-linecap:round; stroke-linejoin:round;">
</g>
<g style="fill:#00A0A0; fill-opacity:0.0; 
stroke:#00A0A0; stroke-width:60; stroke-opacity:1; 
stroke-linecap:round; stroke-linejoin:round;">
<path d="M44870 24670
L44870 25080
L44890 25120
L44920 25150
L44960 25170
L45060 25170
L45110 25150
L45130 25120
L45150 25080
L45150 24670
" />
<path d="M45650 25170
L45370 25170
" />
<path d="M45510 25170
L45510 24670
L45460 24740
L45410 24790
L45370 24820
" />
<path d="M46040 24910
L46110 24930
L46130 24960
L46150 25010
L46150 25080
L46130 25120
L46110 25150
L46060 25170
L45870 25170
L45870 24670
L46040 24670
L46080 24700
L46110 24720
L46130 24770
L46130 24820
L46110 24860
L46080 24890
L46040 24910
L45870 24910
" />
<path d="M45180 28670
L44940 28670
L44940 28170
" />
<path d="M45340 28670
L45340 28170
L45510 28530
L45670 28170
L45670 28670
" />
<path d="M45860 28170
L46170 28170
L46000 28360
L46080 28360
L46120 28390
L46150 28410
L46170 28460
L46170 28580
L46150 28620
L46120 28650
L46080 28670
L45930 28670
L45890 28650
L45860 28620
" />
<path d="M46630 28170
L46390 28170
L46370 28410
L46390 28390
L46440 28360
L46560 28360
L46600 28390
L46630 28410
L46650 28460
L46650 28580
L46630 28620
L46600 28650
L46560 28670
L46440 28670
L46390 28650
L46370 28620
" />
<path d="M46940 28390
L46890 28360
L46870 28340
L46850 28290
L46850 28270
L46870 28220
L46890 28200
L46940 28170
L47040 28170
L47080 28200
L47110 28220
L47130 28270
L47130 28290
L47110 28340
L47080 28360
L47040 28390
L46940 28390
L46890 28410
L46870 28430
L46850 28480
L46850 28580
L46870 28620
L46890 28650
L46940 28670
L47040 28670
L47080 28650
L47110 28620
L47130 28580
L47130 28480
L47110 28430
L47080 28410
L47040 28390
" />
<path d="M47330 28530
L47560 28530
" />
<path d="M47280 28670
L47440 28170
L47610 28670
" />
<path d="M47780 28670
L47780 28170
L48060 28670
L48060 28170
" />
</g>
<g style="fill:#00A0A0; fill-opacity:0.0; 
stroke:#00A0A0; stroke-width:0; stroke-opacity:1; 
stroke-linecap:round; stroke-linejoin:round;">
</g>
<g style="fill:#A00000; fill-opacity:0.0; 
stroke:#A00000; stroke-width:100; stroke-opacity:1; 
stroke-linecap:round; stroke-linejoin:round;">
<rect x="36500" y="25100" width="2000" height="800" rx="0" />
</g>
<g style="fill:#A00000; fill-opacity:0.0; 
stroke:#A00000; stroke-width:60; stroke-opacity:1; 
stroke-linecap:round; stroke-linejoin:round;">
<path d="M36500 25500
L36000 25500
" />
</g>
<g style="fill:#00A0A0; fill-opacity:0.0; 
stroke:#00A0A0; stroke-width:60; stroke-opacity:1; 
stroke-linecap:round; stroke-linejoin:round;">
</g>
<g style="fill:#A00000; fill-opacity:0.0; 
stroke:#A00000; stroke-width:60; stroke-opacity:1; 
stroke-linecap:round; stroke-linejoin:round;">
<path d="M38500 25500
L39000 25500
" />
</g>
<g style="fill:#00A0A0; fill-opacity:0.0; 
stroke:#00A0A0; stroke-width:60; stroke-opacity:1; 
stroke-linecap:round; stroke-linejoin:round;">
<path d="M37410 24730
L37250 24490
" />
<path d="M37130 24730
L37130 24230
L37320 24230
L37370 24260
L37390 24280
L37410 24330
L37410 24400
L37390 24450
L37370 24470
L37320 24490
L37130 24490
" />
<path d="M37870 24230
L37630 24230
L37610 24470
L37630 24450
L37680 24420
L37800 24420
L37840 24450
L37870 24470
L37890 24520
L37890 24640
L37870 24680
L37840 24710
L37800 24730
L37680 24730
L37630 24710
L37610 24680
" />
<path d="M37150 26400
L37150 26730
" />
<path d="M37030 26210
L36920 26570
L37220 26570
" />
<path d="M37370 26230
L37700 26230
L37490 26730
" />
<path d="M37900 26730
L37900 26230
" />
<path d="M37950 26540
L38090 26730
" />
<path d="M38090 26400
L37900 26590
" />
</g>
<g style="fill:#00A0A0; fill-opacity:0.0; 
stroke:#00A0A0; stroke-width:0; stroke-opacity:1; 
stroke-linecap:round; stroke-linejoin:round;">
</g>
<g style="fill:#A00000; fill-opacity:0.0; 
stroke:#A00000; stroke-width:100; stroke-opacity:1; 
stroke-linecap:round; stroke-linejoin:round;">
<rect x="36500" y="19100" width="2000" height="800" rx="0" />
</g>
<g style="fill:#A00000; fill-opacity:0.0; 
stroke:#A00000; stroke-width:60; stroke-opacity:1; 
stroke-linecap:round; stroke-linejoin:round;">
<path d="M36500 19500
L36000 19500
" />
</g>
<g style="fill:#00A0A0; fill-opacity:0.0; 
stroke:#00A0A0; stroke-width:60; stroke-opacity:1; 
stroke-linecap:round; stroke-linejoin:round;">
</g>
<g style="fill:#A00000; fill-opacity:0.0; 
stroke:#A00000; stroke-width:60; stroke-opacity:1; 
stroke-linecap:round; stroke-linejoin:round;">
<path d="M38500 19500
L39000 19500
" />
</g>
<g style="fill:#00A0A0; fill-opacity:0.0; 
stroke:#00A0A0; stroke-width:60; stroke-opacity:1; 
stroke-linecap:round; stroke-linejoin:round;">
<path d="M37410 18730
L37250 18490
" />
<path d="M37130 18730
L37130 18230
L37320 18230
L37370 18260
L37390 18280
L37410 18330
L37410 18400
L37390 18450
L37370 18470
L37320 18490
L37130 18490
" />
<path d="M37840 18400
L37840 18730
" />
<path d="M37720 18210
L37610 18570
L37910 18570
" />
<path d="M37100 20400
L37100 20730
" />
<path d="M36980 20210
L36870 20570
L37170 20570
" />
<path d="M37320 20230
L37650 20230
L37440 20730
" />
<path d="M38130 20730
L37970 20490
" />
<path d="M37850 20730
L37850 20230
L38040 20230
L38090 20260
L38110 20280
L38130 20330
L38130 20400
L38110 20450
L38090 20470
L38040 20490
L37850 20490
" />
</g>
<g style="fill:#00A0A0; fill-opacity:0.0; 
stroke:#00A0A0; stroke-width:0; stroke-opacity:1; 
stroke-linecap:round; stroke-linejoin:round;">
</g>
<g style="fill:#A00000; fill-opacity:0.0; 
stroke:#A00000; stroke-width:100; stroke-opacity:1; 
stroke-linecap:round; stroke-linejoin:round;">
<rect x="49500" y="26100" width="2000" height="800" rx="0" />
</g>
<g style="fill:#A00000; fill-opacity:0.0; 
stroke:#A00000; stroke-width:60; stroke-opacity:1; 
stroke-linecap:round; stroke-linejoin:round;">
<path d="M49500 26500
L49000 26500
" />
</g>
<g style="fill:#00A0A0; fill-opacity:0.0; 
stroke:#00A0A0; stroke-width:60; stroke-opacity:1; 
stroke-linecap:round; stroke-linejoin:round;">
</g>
<g style="fill:#A00000; fill-opacity:0.0; 
stroke:#A00000; stroke-width:60; stroke-opacity:1; 
stroke-linecap:round; stroke-linejoin:round;">
<path d="M51500 26500
L52000 26500
" />
</g>
<g style="fill:#00A0A0; fill-opacity:0.0; 
stroke:#00A0A0; stroke-width:60; stroke-opacity:1; 
stroke-linecap:round; stroke-linejoin:round;">
<path d="M50410 25930
L50250 25690
" />
<path d="M50130 25930
L50130 25430
L50320 25430
L50370 25460
L50390 25480
L50410 25530
L50410 25600
L50390 25650
L50370 25670
L50320 25690
L50130 25690
" />
<path d="M50580 25430
L50910 25430
L50700 25930
" />
<path d="M50440 27730
L50160 27730
" />
<path d="M50300 27730
L50300 27230
L50250 27300
L50200 27350
L50160 27380
" />
<path d="M50660 27730
L50660 27230
" />
<path d="M50710 27540
L50850 27730
" />
<path d="M50850 27400
L50660 27590
" />
</g>
<g style="fill:#00A0A0; fill-opacity:0.0; 
stroke:#00A0A0; stroke-width:0; stroke-opacity:1; 
stroke-linecap:round; stroke-linejoin:round;">
</g>
<g style="fill:#A00000; fill-opacity:0.0; 
stroke:#A00000; stroke-width:60; stroke-opacity:1; 
stroke-linecap:round; stroke-linejoin:round;">
<rect x="42000" y="19100" width="3000" height="800" rx="0" />
<polyline fill="none;"
points="44700,20200
42300,18700
" /> 
</g>
<g style="fill:#A00000; fill-opacity:1.0; 
stroke:#A00000; stroke-width:60; stroke-opacity:1; 
stroke-linecap:round; stroke-linejoin:round;">
<polyline style="fill-rule:evenodd;"
points="42600,18700
42300,18700
42400,19000
" /> 
<path d="M42000 19500
L41000 19500
" />
</g>
<g style="fill:#00A0A0; fill-opacity:0.0; 
stroke:#00A0A0; stroke-width:60; stroke-opacity:1; 
stroke-linecap:round; stroke-linejoin:round;">
</g>
<g style="fill:#A00000; fill-opacity:0.0; 
stroke:#A00000; stroke-width:60; stroke-opacity:1; 
stroke-linecap:round; stroke-linejoin:round;">
<path d="M45000 19500
L46000 19500
" />
</g>
<g style="fill:#00A0A0; fill-opacity:0.0; 
stroke:#00A0A0; stroke-width:60; stroke-opacity:1; 
stroke-linecap:round; stroke-linejoin:round;">
<path d="M43410 18730
L43250 18490
" />
<path d="M43130 18730
L43130 18230
L43320 18230
L43370 18260
L43390 18280
L43410 18330
L43410 18400
L43390 18450
L43370 18470
L43320 18490
L43130 18490
" />
<path d="M43840 18230
L43750 18230
L43700 18260
L43680 18280
L43630 18350
L43610 18450
L43610 18640
L43630 18680
L43650 18710
L43700 18730
L43800 18730
L43840 18710
L43870 18680
L43890 18640
L43890 18520
L43870 18470
L43840 18450
L43800 18420
L43700 18420
L43650 18450
L43630 18470
L43610 18520
" />
<path d="M41920 20230
L41680 20230
L41660 20470
L41680 20450
L41730 20420
L41850 20420
L41890 20450
L41920 20470
L41940 20520
L41940 20640
L41920 20680
L41890 20710
L41850 20730
L41730 20730
L41680 20710
L41660 20680
" />
<path d="M42250 20230
L42300 20230
L42350 20260
L42370 20280
L42400 20330
L42420 20420
L42420 20540
L42400 20640
L42370 20680
L42350 20710
L42300 20730
L42250 20730
L42210 20710
L42180 20680
L42160 20640
L42140 20540
L42140 20420
L42160 20330
L42180 20280
L42210 20260
L42250 20230
" />
<path d="M42730 20230
L42780 20230
L42830 20260
L42850 20280
L42880 20330
L42900 20420
L42900 20540
L42880 20640
L42850 20680
L42830 20710
L42780 20730
L42730 20730
L42690 20710
L42660 20680
L42640 20640
L42620 20540
L42620 20420
L42640 20330
L42660 20280
L42690 20260
L42730 20230
" />
<path d="M43120 20730
L43120 20230
" />
<path d="M43170 20540
L43310 20730
" />
<path d="M43310 20400
L43120 20590
" />
<path d="M43520 20540
L43900 20540
" />
<path d="M44380 20730
L44140 20730
L44140 20230
" />
<path d="M44630 20230
L44730 20230
L44780 20260
L44820 20300
L44850 20400
L44850 20570
L44820 20660
L44780 20710
L44730 20730
L44630 20730
L44590 20710
L44540 20660
L44520 20570
L44520 20400
L44540 20300
L44590 20260
L44630 20230
" />
<path d="M45320 20260
L45270 20230
L45200 20230
L45130 20260
L45080 20300
L45060 20350
L45040 20450
L45040 20520
L45060 20610
L45080 20660
L45130 20710
L45200 20730
L45250 20730
L45320 20710
L45340 20680
L45340 20520
L45250 20520
" />
</g>
<g style="fill:#00A000; fill-opacity:0.0; 
stroke:#00A000; stroke-width:60; stroke-opacity:1; 
stroke-linecap:round; stroke-linejoin:round;">
<path d="M39000 25500
L41000 25500
" />
<path d="M34000 25500
L36000 25500
" />
<path d="M47000 26500
L49000 26500
" />
</g>
<g style="fill:#00A000; fill-opacity:0.0; 
stroke:#00A000; stroke-width:0; stroke-opacity:1; 
stroke-linecap:round; stroke-linejoin:round;">
</g>
<g style="fill:#00A000; fill-opacity:1.0; 
stroke:#00A000; stroke-width:100; stroke-opacity:1; 
stroke-linecap:round; stroke-linejoin:round;">
<circle cx="48000" cy="26500" r="160" /> 
</g>
<g style="fill:#00A000; fill-opacity:1.0; 
stroke:#00A000; stroke-width:0; stroke-opacity:1; 
stroke-linecap:round; stroke-linejoin:round;">
</g>
<g style="fill:#00A000; fill-opacity:1.0; 
stroke:#00A000; stroke-width:100; stroke-opacity:1; 
stroke-linecap:round; stroke-linejoin:round;">
<circle cx="40000" cy="25500" r="160" /> 
</g>
<g style="fill:#00A000; fill-opacity:1.0; 
stroke:#00A000; stroke-width:0; stroke-opacity:1; 
stroke-linecap:round; stroke-linejoin:round;">
</g>
<g style="fill:#A00000; fill-opacity:0.0; 
stroke:#A00000; stroke-width:60; stroke-opacity:1; 
stroke-linecap:round; stroke-linejoin:round;">
<circle cx="44000" cy="30250" r="250" /> 
<polyline fill="none;"
points="44000,29500
44000,30000
" /> 
</g>
<g style="fill:#00A0A0; fill-opacity:0.0; 
stroke:#00A0A0; stroke-width:60; stroke-opacity:1; 
stroke-linecap:round; stroke-linejoin:round;">
<path d="M43350 30730
L43510 31230
L43680 30730
" />
<path d="M43830 31210
L43900 31230
L44020 31230
L44060 31210
L44090 31180
L44110 31140
L44110 31090
L44090 31040
L44060 31020
L44020 30990
L43920 30970
L43870 30950
L43850 30920
L43830 30880
L43830 30830
L43850 30780
L43870 30760
L43920 30730
L44040 30730
L44110 30760
" />
<path d="M44310 31210
L44380 31230
L44500 31230
L44540 31210
L44570 31180
L44590 31140
L44590 31090
L44570 31040
L44540 31020
L44500 30990
L44400 30970
L44350 30950
L44330 30920
L44310 30880
L44310 30830
L44330 30780
L44350 30760
L44400 30730
L44520 30730
L44590 30760
" />
</g>
<g style="fill:#00A0A0; fill-opacity:0.0; 
stroke:#00A0A0; stroke-width:0; stroke-opacity:1; 
stroke-linecap:round; stroke-linejoin:round;">
</g>
<g style="fill:#A00000; fill-opacity:0.0; 
stroke:#A00000; stroke-width:60; stroke-opacity:1; 
stroke-linecap:round; stroke-linejoin:round;">
<circle cx="44000" cy="22750" r="250" /> 
<polyline fill="none;"
points="44000,23500
44000,23000
" /> 
</g>
<g style="fill:#00A0A0; fill-opacity:0.0; 
stroke:#00A0A0; stroke-width:60; stroke-opacity:1; 
stroke-linecap:round; stroke-linejoin:round;">
<path d="M43340 21670
L43500 22170
L43670 21670
" />
<path d="M43840 22170
L43840 21670
L43960 21670
L44030 21700
L44080 21740
L44100 21790
L44120 21890
L44120 21960
L44100 22050
L44080 22100
L44030 22150
L43960 22170
L43840 22170
" />
<path d="M44340 22170
L44340 21670
L44460 21670
L44530 21700
L44580 21740
L44600 21790
L44620 21890
L44620 21960
L44600 22050
L44580 22100
L44530 22150
L44460 22170
L44340 22170
" />
</g>
<g style="fill:#00A000; fill-opacity:0.0; 
stroke:#00A000; stroke-width:60; stroke-opacity:1; 
stroke-linecap:round; stroke-linejoin:round;">
<path d="M39000 19500
L41000 19500
" />
<path d="M40000 19500
L40000 25500
" />
</g>
<g style="fill:#00A000; fill-opacity:0.0; 
stroke:#00A000; stroke-width:0; stroke-opacity:1; 
stroke-linecap:round; stroke-linejoin:round;">
</g>
<g style="fill:#00A000; fill-opacity:1.0; 
stroke:#00A000; stroke-width:100; stroke-opacity:1; 
stroke-linecap:round; stroke-linejoin:round;">
<circle cx="40000" cy="19500" r="160" /> 
</g>
<g style="fill:#00A000; fill-opacity:1.0; 
stroke:#00A000; stroke-width:60; stroke-opacity:1; 
stroke-linecap:round; stroke-linejoin:round;">
<path d="M46000 19500
L48000 19500
" />
<path d="M48000 19500
L48000 26500
" />
</g>
<g style="fill:#00A000; fill-opacity:1.0; 
stroke:#00A000; stroke-width:0; stroke-opacity:1; 
stroke-linecap:round; stroke-linejoin:round;">
</g>
<g style="fill:#A00000; fill-opacity:0.0; 
stroke:#A00000; stroke-width:60; stroke-opacity:1; 
stroke-linecap:round; stroke-linejoin:round;">
<polyline fill="none;"
points="33000,19500
34000,19000
" /> 
<path d="M33000 19500
L32000 19500
" />
</g>
<g style="fill:#00A0A0; fill-opacity:0.0; 
stroke:#00A0A0; stroke-width:60; stroke-opacity:1; 
stroke-linecap:round; stroke-linejoin:round;">
</g>
<g style="fill:#00A0A0; fill-opacity:0.0; 
stroke:#00A0A0; stroke-width:50; stroke-opacity:1; 
stroke-linecap:round; stroke-linejoin:round;">
</g>
<g style="fill:#00A0A0; fill-opacity:0.0; 
stroke:#00A0A0; stroke-width:60; stroke-opacity:1; 
stroke-linecap:round; stroke-linejoin:round;">
</g>
<g style="fill:#A00000; fill-opacity:0.0; 
stroke:#A00000; stroke-width:60; stroke-opacity:1; 
stroke-linecap:round; stroke-linejoin:round;">
</g>
<g style="fill:#A00000; fill-opacity:0.0; 
stroke:#A00000; stroke-width:50; stroke-opacity:1; 
stroke-linecap:round; stroke-linejoin:round;">
<path d="M32590 19370
L32420 19370
" />
<path d="M32500 19370
L32500 19070
L32470 19110
L32450 19140
L32420 19160
" />
</g>
<g style="fill:#A00000; fill-opacity:0.0; 
stroke:#A00000; stroke-width:60; stroke-opacity:1; 
stroke-linecap:round; stroke-linejoin:round;">
<path d="M34000 19500
L35000 19500
" />
</g>
<g style="fill:#00A0A0; fill-opacity:0.0; 
stroke:#00A0A0; stroke-width:60; stroke-opacity:1; 
stroke-linecap:round; stroke-linejoin:round;">
</g>
<g style="fill:#00A0A0; fill-opacity:0.0; 
stroke:#00A0A0; stroke-width:50; stroke-opacity:1; 
stroke-linecap:round; stroke-linejoin:round;">
</g>
<g style="fill:#00A0A0; fill-opacity:0.0; 
stroke:#00A0A0; stroke-width:60; stroke-opacity:1; 
stroke-linecap:round; stroke-linejoin:round;">
</g>
<g style="fill:#A00000; fill-opacity:0.0; 
stroke:#A00000; stroke-width:60; stroke-opacity:1; 
stroke-linecap:round; stroke-linejoin:round;">
</g>
<g style="fill:#A00000; fill-opacity:0.0; 
stroke:#A00000; stroke-width:50; stroke-opacity:1; 
stroke-linecap:round; stroke-linejoin:round;">
<path d="M34420 19100
L34430 19090
L34460 19070
L34530 19070
L34560 19090
L34570 19100
L34590 19130
L34590 19160
L34570 19200
L34400 19370
L34590 19370
" />
</g>
<g style="fill:#A00000; fill-opacity:0.0; 
stroke:#A00000; stroke-width:60; stroke-opacity:1; 
stroke-linecap:round; stroke-linejoin:round;">
</g>
<g style="fill:#00A0A0; fill-opacity:0.0; 
stroke:#00A0A0; stroke-width:60; stroke-opacity:1; 
stroke-linecap:round; stroke-linejoin:round;">
<path d="M33120 18650
L33190 18670
L33310 18670
L33350 18650
L33380 18620
L33400 18580
L33400 18530
L33380 18480
L33350 18460
L33310 18430
L33210 18410
L33160 18390
L33140 18360
L33120 18320
L33120 18270
L33140 18220
L33160 18200
L33210 18170
L33330 18170
L33400 18200
" />
<path d="M33860 18170
L33620 18170
L33600 18410
L33620 18390
L33670 18360
L33790 18360
L33830 18390
L33860 18410
L33880 18460
L33880 18580
L33860 18620
L33830 18650
L33790 18670
L33670 18670
L33620 18650
L33600 18620
" />
<path d="M32240 20170
L32340 20170
L32390 20200
L32430 20240
L32460 20340
L32460 20510
L32430 20600
L32390 20650
L32340 20670
L32240 20670
L32200 20650
L32150 20600
L32130 20510
L32130 20340
L32150 20240
L32200 20200
L32240 20170
" />
<path d="M32670 20670
L32670 20170
L32950 20670
L32950 20170
" />
<path d="M33550 20150
L33120 20790
" />
<path d="M33800 20170
L33900 20170
L33950 20200
L33990 20240
L34020 20340
L34020 20510
L33990 20600
L33950 20650
L33900 20670
L33800 20670
L33760 20650
L33710 20600
L33690 20510
L33690 20340
L33710 20240
L33760 20200
L33800 20170
" />
<path d="M34400 20410
L34230 20410
" />
<path d="M34230 20670
L34230 20170
L34470 20170
" />
<path d="M34830 20410
L34660 20410
" />
<path d="M34660 20670
L34660 20170
L34900 20170
" />
</g>
<g style="fill:#00A0A0; fill-opacity:0.0; 
stroke:#00A0A0; stroke-width:0; stroke-opacity:1; 
stroke-linecap:round; stroke-linejoin:round;">
</g>
<g style="fill:#A00000; fill-opacity:0.0; 
stroke:#A00000; stroke-width:130; stroke-opacity:1; 
stroke-linecap:round; stroke-linejoin:round;">
<polyline fill="none;"
points="33200,26100
33200,24900
" /> 
</g>
<g style="fill:#A00000; fill-opacity:0.0; 
stroke:#A00000; stroke-width:120; stroke-opacity:1; 
stroke-linecap:round; stroke-linejoin:round;">
<polyline fill="none;"
points="32800,26100
32800,24900
" /> 
</g>
<g style="fill:#A00000; fill-opacity:0.0; 
stroke:#A00000; stroke-width:60; stroke-opacity:1; 
stroke-linecap:round; stroke-linejoin:round;">
<path d="M32750 25500
L32000 25500
" />
<path d="M33200 25500
L34000 25500
" />
</g>
<g style="fill:#00A0A0; fill-opacity:0.0; 
stroke:#00A0A0; stroke-width:60; stroke-opacity:1; 
stroke-linecap:round; stroke-linejoin:round;">
<path d="M32920 24680
L32900 24710
L32830 24730
L32780 24730
L32710 24710
L32660 24660
L32640 24610
L32620 24520
L32620 24450
L32640 24350
L32660 24300
L32710 24260
L32780 24230
L32830 24230
L32900 24260
L32920 24280
" />
<path d="M33120 24280
L33140 24260
L33190 24230
L33310 24230
L33350 24260
L33380 24280
L33400 24330
L33400 24380
L33380 24450
L33090 24730
L33400 24730
" />
<path d="M32440 26400
L32440 26730
" />
<path d="M32320 26210
L32210 26570
L32510 26570
" />
<path d="M32660 26230
L32990 26230
L32780 26730
" />
<path d="M33280 26230
L33330 26230
L33380 26260
L33400 26280
L33430 26330
L33450 26420
L33450 26540
L33430 26640
L33400 26680
L33380 26710
L33330 26730
L33280 26730
L33240 26710
L33210 26680
L33190 26640
L33170 26540
L33170 26420
L33190 26330
L33210 26280
L33240 26260
L33280 26230
" />
<path d="M33670 26400
L33670 26730
" />
<path d="M33670 26450
L33690 26420
L33740 26400
L33810 26400
L33860 26420
L33880 26470
L33880 26730
" />
</g>
<g style="fill:#00A0A0; fill-opacity:0.0; 
stroke:#00A0A0; stroke-width:0; stroke-opacity:1; 
stroke-linecap:round; stroke-linejoin:round;">
</g>
<g style="fill:#A00000; fill-opacity:1.0; 
stroke:#A00000; stroke-width:60; stroke-opacity:1; 
stroke-linecap:round; stroke-linejoin:round;">
<rect x="21000" y="27500" width="500" height="2500" rx="0" />
</g>
<g style="fill:#A00000; fill-opacity:0.0; 
stroke:#A00000; stroke-width:60; stroke-opacity:1; 
stroke-linecap:round; stroke-linejoin:round;">
<rect x="21500" y="27000" width="7000" height="3500" rx="0" />
<polyline fill="none;"
points="27000,28500
28500,28500
28500,28500
" /> 
<polyline fill="none;"
points="25500,27500
25000,28000
24500,27500
24500,27500
" /> 
<polyline fill="none;"
points="25500,27500
28500,27500
28500,27500
28500,27500
" /> 
<polyline fill="none;"
points="26000,28000
26500,27500
27000,28000
27000,28000
" /> 
<polyline fill="none;"
points="27000,28500
26500,28500
26500,27500
26500,27500
" /> 
<polyline fill="none;"
points="28500,30000
23000,30000
22500,29500
22000,30000
22000,30000
" /> 
<path d="M28500 27500
L30000 27500
" />
</g>
<g style="fill:#00A0A0; fill-opacity:0.0; 
stroke:#00A0A0; stroke-width:60; stroke-opacity:1; 
stroke-linecap:round; stroke-linejoin:round;">
</g>
<g style="fill:#A00000; fill-opacity:0.0; 
stroke:#A00000; stroke-width:60; stroke-opacity:1; 
stroke-linecap:round; stroke-linejoin:round;">
<path d="M29390 27350
L29110 27350
" />
<path d="M29250 27350
L29250 26850
L29200 26920
L29150 26970
L29110 27000
" />
<path d="M28500 28500
L30000 28500
" />
</g>
<g style="fill:#00A0A0; fill-opacity:0.0; 
stroke:#00A0A0; stroke-width:60; stroke-opacity:1; 
stroke-linecap:round; stroke-linejoin:round;">
</g>
<g style="fill:#A00000; fill-opacity:0.0; 
stroke:#A00000; stroke-width:60; stroke-opacity:1; 
stroke-linecap:round; stroke-linejoin:round;">
<path d="M29110 27900
L29130 27880
L29180 27850
L29300 27850
L29340 27880
L29370 27900
L29390 27950
L29390 28000
L29370 28070
L29080 28350
L29390 28350
" />
<path d="M28500 30000
L30000 30000
" />
</g>
<g style="fill:#00A0A0; fill-opacity:0.0; 
stroke:#00A0A0; stroke-width:60; stroke-opacity:1; 
stroke-linecap:round; stroke-linejoin:round;">
</g>
<g style="fill:#A00000; fill-opacity:0.0; 
stroke:#A00000; stroke-width:60; stroke-opacity:1; 
stroke-linecap:round; stroke-linejoin:round;">
<path d="M29080 29350
L29390 29350
L29220 29540
L29300 29540
L29340 29570
L29370 29590
L29390 29640
L29390 29760
L29370 29800
L29340 29830
L29300 29850
L29150 29850
L29110 29830
L29080 29800
" />
</g>
<g style="fill:#00A0A0; fill-opacity:0.0; 
stroke:#00A0A0; stroke-width:60; stroke-opacity:1; 
stroke-linecap:round; stroke-linejoin:round;">
<path d="M22830 26230
L22830 26590
L22810 26660
L22760 26710
L22690 26730
L22640 26730
" />
<path d="M23050 26280
L23070 26260
L23120 26230
L23240 26230
L23280 26260
L23310 26280
L23330 26330
L23330 26380
L23310 26450
L23020 26730
L23330 26730
" />
<path d="M21260 31230
L21260 30730
L21430 31090
L21590 30730
L21590 31230
" />
<path d="M21920 30730
L22020 30730
L22070 30760
L22110 30800
L22140 30900
L22140 31070
L22110 31160
L22070 31210
L22020 31230
L21920 31230
L21880 31210
L21830 31160
L21810 31070
L21810 30900
L21830 30800
L21880 30760
L21920 30730
" />
<path d="M22350 31230
L22350 30730
L22630 31230
L22630 30730
" />
<path d="M22960 30730
L23060 30730
L23110 30760
L23150 30800
L23180 30900
L23180 31070
L23150 31160
L23110 31210
L23060 31230
L22960 31230
L22920 31210
L22870 31160
L22850 31070
L22850 30900
L22870 30800
L22920 30760
L22960 30730
" />
<path d="M23910 30730
L23910 31090
L23890 31160
L23840 31210
L23770 31230
L23720 31230
" />
<path d="M24130 31090
L24360 31090
" />
<path d="M24080 31230
L24240 30730
L24410 31230
" />
<path d="M24860 31180
L24840 31210
L24770 31230
L24720 31230
L24650 31210
L24600 31160
L24580 31110
L24560 31020
L24560 30950
L24580 30850
L24600 30800
L24650 30760
L24720 30730
L24770 30730
L24840 30760
L24860 30780
" />
<path d="M25080 31230
L25080 30730
" />
<path d="M25360 31230
L25150 30950
" />
<path d="M25360 30730
L25080 31020
" />
<path d="M26170 30730
L26080 30730
L26030 30760
L26010 30780
L25960 30850
L25940 30950
L25940 31140
L25960 31180
L25980 31210
L26030 31230
L26130 31230
L26170 31210
L26200 31180
L26220 31140
L26220 31020
L26200 30970
L26170 30950
L26130 30920
L26030 30920
L25980 30950
L25960 30970
L25940 31020
" />
<path d="M26440 31180
L26460 31210
L26440 31230
L26420 31210
L26440 31180
L26440 31230
" />
<path d="M26630 30730
L26940 30730
L26770 30920
L26850 30920
L26890 30950
L26920 30970
L26940 31020
L26940 31140
L26920 31180
L26890 31210
L26850 31230
L26700 31230
L26660 31210
L26630 31180
" />
<path d="M27400 30730
L27160 30730
L27140 30970
L27160 30950
L27210 30920
L27330 30920
L27370 30950
L27400 30970
L27420 31020
L27420 31140
L27400 31180
L27370 31210
L27330 31230
L27210 31230
L27160 31210
L27140 31180
" />
<path d="M27640 31230
L27640 30900
" />
<path d="M27640 30950
L27660 30920
L27710 30900
L27780 30900
L27830 30920
L27850 30970
L27850 31230
" />
<path d="M27850 30970
L27880 30920
L27920 30900
L28000 30900
L28040 30920
L28070 30970
L28070 31230
" />
<path d="M28310 31230
L28310 30900
" />
<path d="M28310 30950
L28330 30920
L28380 30900
L28450 30900
L28500 30920
L28520 30970
L28520 31230
" />
<path d="M28520 30970
L28550 30920
L28590 30900
L28670 30900
L28710 30920
L28740 30970
L28740 31230
" />
</g>
<g style="fill:#808000; fill-opacity:0.0; 
stroke:#808000; stroke-width:60; stroke-opacity:1; 
stroke-linecap:round; stroke-linejoin:round;">
<path d="M53900 26740
L53900 26140
L54130 26140
L54190 26170
L54220 26200
L54250 26260
L54250 26340
L54220 26400
L54190 26430
L54130 26460
L53900 26460
" />
<path d="M54850 26740
L54650 26460
" />
<path d="M54500 26740
L54500 26140
L54730 26140
L54790 26170
L54820 26200
L54850 26260
L54850 26340
L54820 26400
L54790 26430
L54730 26460
L54500 26460
" />
<path d="M55100 26430
L55300 26430
" />
<path d="M55390 26740
L55100 26740
L55100 26140
L55390 26140
" />
<path d="M55610 26570
L55900 26570
" />
<path d="M55560 26740
L55760 26140
L55960 26740
" />
<path d="M56150 26740
L56150 26140
L56350 26570
L56550 26140
L56550 26740
" />
<path d="M56840 26740
L56840 26140
L57070 26140
L57130 26170
L57160 26200
L57190 26260
L57190 26340
L57160 26400
L57130 26430
L57070 26460
L56840 26460
" />
<path d="M57300 26800
L57760 26800
" />
<path d="M58020 26140
L58130 26140
L58190 26170
L58250 26230
L58270 26340
L58270 26540
L58250 26660
L58190 26710
L58130 26740
L58020 26740
L57960 26710
L57900 26660
L57870 26540
L57870 26340
L57900 26230
L57960 26170
L58020 26140
" />
<path d="M58530 26140
L58530 26630
L58560 26690
L58590 26710
L58650 26740
L58760 26740
L58820 26710
L58850 26690
L58880 26630
L58880 26140
" />
<path d="M59080 26140
L59420 26140
" />
<path d="M59250 26740
L59250 26140
" />
</g>
<g style="fill:#808000; fill-opacity:0.0; 
stroke:#808000; stroke-width:100; stroke-opacity:1; 
stroke-linecap:round; stroke-linejoin:round;">
<polyline fill="none;"
points="53600,26500
53300,26200
53000,26200
53000,26800
53300,26800
53600,26500
" /> 
</g>
<g style="fill:#808000; fill-opacity:0.0; 
stroke:#808000; stroke-width:60; stroke-opacity:1; 
stroke-linecap:round; stroke-linejoin:round;">
</g>
<g style="fill:#00A000; fill-opacity:0.0; 
stroke:#00A000; stroke-width:60; stroke-opacity:1; 
stroke-linecap:round; stroke-linejoin:round;">
<path d="M32000 19500
L31000 19500
" />
<path d="M32000 25500
L31000 25500
" />
</g>
<g style="fill:#00A000; fill-opacity:0.0; 
stroke:#00A000; stroke-width:0; stroke-opacity:1; 
stroke-linecap:round; stroke-linejoin:round;">
</g>
<g style="fill:#00A000; fill-opacity:1.0; 
stroke:#00A000; stroke-width:100; stroke-opacity:1; 
stroke-linecap:round; stroke-linejoin:round;">
<circle cx="31000" cy="25500" r="160" /> 
</g>
<g style="fill:#00A000; fill-opacity:1.0; 
stroke:#00A000; stroke-width:0; stroke-opacity:1; 
stroke-linecap:round; stroke-linejoin:round;">
</g>
<g style="fill:#A00000; fill-opacity:0.0; 
stroke:#A00000; stroke-width:60; stroke-opacity:1; 
stroke-linecap:round; stroke-linejoin:round;">
<polyline fill="none;"
points="40000,31000
40000,31500
40500,31500
40000,32000
39500,31500
40000,31500
" /> 
</g>
<g style="fill:#00A0A0; fill-opacity:0.0; 
stroke:#00A0A0; stroke-width:60; stroke-opacity:1; 
stroke-linecap:round; stroke-linejoin:round;">
<path d="M39620 32200
L39570 32170
L39500 32170
L39430 32200
L39380 32240
L39360 32290
L39340 32390
L39340 32460
L39360 32550
L39380 32600
L39430 32650
L39500 32670
L39550 32670
L39620 32650
L39640 32620
L39640 32460
L39550 32460
" />
<path d="M39860 32670
L39860 32170
L40140 32670
L40140 32170
" />
<path d="M40380 32670
L40380 32170
L40500 32170
L40570 32200
L40620 32240
L40640 32290
L40660 32390
L40660 32460
L40640 32550
L40620 32600
L40570 32650
L40500 32670
L40380 32670
" />
</g>
<g style="fill:#00A000; fill-opacity:0.0; 
stroke:#00A000; stroke-width:60; stroke-opacity:1; 
stroke-linecap:round; stroke-linejoin:round;">
<path d="M35000 19500
L36000 19500
" />
<path d="M31000 19500
L31000 27500
" />
<path d="M31000 27500
L30000 27500
" />
<path d="M30000 28500
L30000 30000
" />
<path d="M30000 30000
L40000 30000
" />
</g>
<g style="fill:#00A000; fill-opacity:0.0; 
stroke:#00A000; stroke-width:0; stroke-opacity:1; 
stroke-linecap:round; stroke-linejoin:round;">
</g>
<g style="fill:#00A000; fill-opacity:1.0; 
stroke:#00A000; stroke-width:100; stroke-opacity:1; 
stroke-linecap:round; stroke-linejoin:round;">
<circle cx="40000" cy="30000" r="160" /> 
</g>
<g style="fill:#00A000; fill-opacity:1.0; 
stroke:#00A000; stroke-width:60; stroke-opacity:1; 
stroke-linecap:round; stroke-linejoin:round;">
<path d="M52000 26500
L53000 26500
" />
</g>
<g style="fill:#0000FF; fill-opacity:0.0; 
stroke:#0000FF; stroke-width:60; stroke-opacity:1; 
stroke-linecap:round; stroke-linejoin:round;">
<path d="M21110 36310
L21200 36340
L21340 36340
L21400 36310
L21430 36290
L21460 36230
L21460 36170
L21430 36110
L21400 36090
L21340 36060
L21230 36030
L21170 36000
L21140 35970
L21110 35910
L21110 35860
L21140 35800
L21170 35770
L21230 35740
L21370 35740
L21460 35770
" />
<path d="M22030 36340
L21680 36340
" />
<path d="M21860 36340
L21860 35740
L21800 35830
L21740 35890
L21680 35910
" />
<path d="M22890 36540
L22890 35690
" />
<path d="M23770 36340
L23770 35740
L24000 35740
L24060 35770
L24090 35800
L24120 35860
L24120 35940
L24090 36000
L24060 36030
L24000 36060
L23770 36060
" />
<path d="M24630 36340
L24630 36030
L24600 35970
L24540 35940
L24430 35940
L24370 35970
" />
<path d="M24630 36310
L24570 36340
L24430 36340
L24370 36310
L24340 36260
L24340 36200
L24370 36140
L24430 36110
L24570 36110
L24630 36090
" />
<path d="M24880 36310
L24940 36340
L25060 36340
L25110 36310
L25140 36260
L25140 36230
L25110 36170
L25060 36140
L24970 36140
L24910 36110
L24880 36060
L24880 36030
L24910 35970
L24970 35940
L25060 35940
L25110 35970
" />
<path d="M25370 36310
L25430 36340
L25550 36340
L25600 36310
L25630 36260
L25630 36230
L25600 36170
L25550 36140
L25460 36140
L25400 36110
L25370 36060
L25370 36030
L25400 35970
L25460 35940
L25550 35940
L25600 35970
" />
<path d="M25890 36340
L25890 35940
" />
<path d="M25890 35740
L25860 35770
L25890 35800
L25920 35770
L25890 35740
L25890 35800
" />
<path d="M26130 35940
L26270 36340
L26410 35940
" />
<path d="M26870 36310
L26810 36340
L26700 36340
L26640 36310
L26610 36260
L26610 36030
L26640 35970
L26700 35940
L26810 35940
L26870 35970
L26900 36030
L26900 36090
L26610 36140
" />
<path d="M27610 36340
L27610 35940
" />
<path d="M27610 35740
L27580 35770
L27610 35800
L27640 35770
L27610 35740
L27610 35800
" />
<path d="M27900 35940
L27900 36340
" />
<path d="M27900 36000
L27930 35970
L27990 35940
L28070 35940
L28130 35970
L28160 36030
L28160 36340
" />
<path d="M28440 35940
L28440 36540
" />
<path d="M28440 35970
L28500 35940
L28610 35940
L28670 35970
L28700 36000
L28730 36060
L28730 36230
L28700 36290
L28670 36310
L28610 36340
L28500 36340
L28440 36310
" />
<path d="M29240 35940
L29240 36340
" />
<path d="M28980 35940
L28980 36260
L29010 36310
L29070 36340
L29150 36340
L29210 36310
L29240 36290
" />
<path d="M29440 35940
L29670 35940
" />
<path d="M29520 35740
L29520 36260
L29550 36310
L29610 36340
L29670 36340
" />
<path d="M30320 36340
L30320 35940
" />
<path d="M30320 36000
L30350 35970
L30410 35940
L30490 35940
L30550 35970
L30580 36030
L30580 36340
" />
<path d="M30580 36030
L30610 35970
L30670 35940
L30750 35940
L30810 35970
L30840 36030
L30840 36340
" />
<path d="M31210 36340
L31150 36310
L31120 36290
L31090 36230
L31090 36060
L31120 36000
L31150 35970
L31210 35940
L31290 35940
L31350 35970
L31380 36000
L31410 36060
L31410 36230
L31380 36290
L31350 36310
L31290 36340
L31210 36340
" />
<path d="M31920 36340
L31920 35740
" />
<path d="M31920 36310
L31860 36340
L31750 36340
L31690 36310
L31660 36290
L31630 36230
L31630 36060
L31660 36000
L31690 35970
L31750 35940
L31860 35940
L31920 35970
" />
<path d="M32430 36310
L32370 36340
L32260 36340
L32200 36310
L32170 36260
L32170 36030
L32200 35970
L32260 35940
L32370 35940
L32430 35970
L32460 36030
L32460 36090
L32170 36140
" />
<path d="M32710 36290
L32740 36310
L32710 36340
L32680 36310
L32710 36290
L32710 36340
" />
<path d="M32710 35970
L32740 36000
L32710 36030
L32680 36000
L32710 35970
L32710 36030
" />
<path d="M33460 36340
L33460 35740
L33610 35740
L33690 35770
L33750 35830
L33780 35890
L33810 36000
L33810 36090
L33780 36200
L33750 36260
L33690 36310
L33610 36340
L33460 36340
" />
<path d="M34410 36290
L34380 36310
L34290 36340
L34230 36340
L34150 36310
L34090 36260
L34060 36200
L34030 36090
L34030 36000
L34060 35890
L34090 35830
L34150 35770
L34230 35740
L34290 35740
L34380 35770
L34410 35800
" />
<path d="M35380 36310
L35320 36340
L35210 36340
L35150 36310
L35120 36290
L35090 36230
L35090 36060
L35120 36000
L35150 35970
L35210 35940
L35320 35940
L35380 35970
" />
<path d="M35720 36340
L35660 36310
L35630 36290
L35600 36230
L35600 36060
L35630 36000
L35660 35970
L35720 35940
L35800 35940
L35860 35970
L35890 36000
L35920 36060
L35920 36230
L35890 36290
L35860 36310
L35800 36340
L35720 36340
" />
<path d="M36430 35940
L36430 36340
" />
<path d="M36170 35940
L36170 36260
L36200 36310
L36260 36340
L36340 36340
L36400 36310
L36430 36290
" />
<path d="M36710 35940
L36710 36540
" />
<path d="M36710 35970
L36770 35940
L36880 35940
L36940 35970
L36970 36000
L37000 36060
L37000 36230
L36970 36290
L36940 36310
L36880 36340
L36770 36340
L36710 36310
" />
<path d="M37340 36340
L37280 36310
L37250 36260
L37250 35740
" />
<path d="M37560 36340
L37560 35940
" />
<path d="M37560 35740
L37530 35770
L37560 35800
L37590 35770
L37560 35740
L37560 35800
" />
<path d="M37850 35940
L37850 36340
" />
<path d="M37850 36000
L37880 35970
L37940 35940
L38020 35940
L38080 35970
L38110 36030
L38110 36340
" />
<path d="M38650 35940
L38650 36430
L38620 36490
L38590 36510
L38540 36540
L38450 36540
L38390 36510
" />
<path d="M38650 36310
L38590 36340
L38480 36340
L38420 36310
L38390 36290
L38360 36230
L38360 36060
L38390 36000
L38420 35970
L38480 35940
L38590 35940
L38650 35970
" />
<path d="M39650 36340
L39650 36030
L39620 35970
L39560 35940
L39450 35940
L39390 35970
" />
<path d="M39650 36310
L39590 36340
L39450 36340
L39390 36310
L39360 36260
L39360 36200
L39390 36140
L39450 36110
L39590 36110
L39650 36090
" />
<path d="M39930 35940
L39930 36340
" />
<path d="M39930 36000
L39960 35970
L40020 35940
L40100 35940
L40160 35970
L40190 36030
L40190 36340
" />
<path d="M40730 36340
L40730 35740
" />
<path d="M40730 36310
L40670 36340
L40560 36340
L40500 36310
L40470 36290
L40440 36230
L40440 36060
L40470 36000
L40500 35970
L40560 35940
L40670 35940
L40730 35970
" />
<path d="M41470 36110
L41930 36110
" />
<path d="M41700 36340
L41700 35890
" />
<path d="M42160 35740
L42530 35740
L42330 35970
L42410 35970
L42470 36000
L42500 36030
L42530 36090
L42530 36230
L42500 36290
L42470 36310
L42410 36340
L42240 36340
L42180 36310
L42160 36290
" />
<path d="M42900 35740
L42950 35740
L43010 35770
L43040 35800
L43070 35860
L43100 35970
L43100 36110
L43070 36230
L43040 36290
L43010 36310
L42950 36340
L42900 36340
L42840 36310
L42810 36290
L42780 36230
L42750 36110
L42750 35970
L42780 35860
L42810 35800
L42840 35770
L42900 35740
" />
<path d="M43610 36340
L43610 35740
" />
<path d="M43610 36310
L43550 36340
L43440 36340
L43380 36310
L43350 36290
L43320 36230
L43320 36060
L43350 36000
L43380 35970
L43440 35940
L43550 35940
L43610 35970
" />
<path d="M44090 36030
L44180 36060
L44210 36090
L44240 36140
L44240 36230
L44210 36290
L44180 36310
L44120 36340
L43890 36340
L43890 35740
L44090 35740
L44150 35770
L44180 35800
L44210 35860
L44210 35910
L44180 35970
L44150 36000
L44090 36030
L43890 36030
" />
<path d="M45210 35940
L45210 36430
L45180 36490
L45150 36510
L45100 36540
L45010 36540
L44950 36510
" />
<path d="M45210 36310
L45150 36340
L45040 36340
L44980 36310
L44950 36290
L44920 36230
L44920 36060
L44950 36000
L44980 35970
L45040 35940
L45150 35940
L45210 35970
" />
<path d="M45750 36340
L45750 36030
L45720 35970
L45660 35940
L45550 35940
L45490 35970
" />
<path d="M45750 36310
L45690 36340
L45550 36340
L45490 36310
L45460 36260
L45460 36200
L45490 36140
L45550 36110
L45690 36110
L45750 36090
" />
<path d="M46030 36340
L46030 35940
" />
<path d="M46030 35740
L46000 35770
L46030 35800
L46060 35770
L46030 35740
L46030 35800
" />
<path d="M46320 35940
L46320 36340
" />
<path d="M46320 36000
L46350 35970
L46410 35940
L46490 35940
L46550 35970
L46580 36030
L46580 36340
" />
<path d="M21490 37180
L21290 36900
" />
<path d="M21140 37180
L21140 36580
L21370 36580
L21430 36610
L21460 36640
L21490 36700
L21490 36780
L21460 36840
L21430 36870
L21370 36900
L21140 36900
" />
<path d="M21690 36580
L22060 36580
L21860 36810
L21940 36810
L22000 36840
L22030 36870
L22060 36930
L22060 37070
L22030 37130
L22000 37150
L21940 37180
L21770 37180
L21710 37150
L21690 37130
" />
<path d="M22920 37380
L22920 36530
" />
<path d="M24120 36610
L24060 36580
L23970 36580
L23890 36610
L23830 36670
L23800 36730
L23770 36840
L23770 36930
L23800 37040
L23830 37100
L23890 37150
L23970 37180
L24030 37180
L24120 37150
L24150 37130
L24150 36930
L24030 36930
" />
<path d="M24660 37180
L24660 36870
L24630 36810
L24570 36780
L24460 36780
L24400 36810
" />
<path d="M24660 37150
L24600 37180
L24460 37180
L24400 37150
L24370 37100
L24370 37040
L24400 36980
L24460 36950
L24600 36950
L24660 36930
" />
<path d="M24940 37180
L24940 36780
" />
<path d="M24940 36580
L24910 36610
L24940 36640
L24970 36610
L24940 36580
L24940 36640
" />
<path d="M25230 36780
L25230 37180
" />
<path d="M25230 36840
L25260 36810
L25320 36780
L25400 36780
L25460 36810
L25490 36870
L25490 37180
" />
<path d="M25770 37130
L25800 37150
L25770 37180
L25740 37150
L25770 37130
L25770 37180
" />
<path d="M25770 36810
L25800 36840
L25770 36870
L25740 36840
L25770 36810
L25770 36870
" />
<path d="M26520 37180
L26520 36580
L26720 37010
L26920 36580
L26920 37180
" />
<path d="M27470 37180
L27470 36870
L27440 36810
L27380 36780
L27270 36780
L27210 36810
" />
<path d="M27470 37150
L27410 37180
L27270 37180
L27210 37150
L27180 37100
L27180 37040
L27210 36980
L27270 36950
L27410 36950
L27470 36930
" />
<path d="M27700 37180
L28010 36780
" />
<path d="M27700 36780
L28010 37180
" />
<path d="M28700 36870
L29160 36870
" />
<path d="M29160 37040
L28700 37040
" />
<path d="M29900 36950
L30360 36950
" />
<path d="M30130 37180
L30130 36730
" />
<path d="M30960 37180
L30610 37180
" />
<path d="M30790 37180
L30790 36580
L30730 36670
L30670 36730
L30610 36750
" />
<path d="M31330 36580
L31380 36580
L31440 36610
L31470 36640
L31500 36700
L31530 36810
L31530 36950
L31500 37070
L31470 37130
L31440 37150
L31380 37180
L31330 37180
L31270 37150
L31240 37130
L31210 37070
L31180 36950
L31180 36810
L31210 36700
L31240 36640
L31270 36610
L31330 36580
" />
<path d="M32040 37180
L32040 36580
" />
<path d="M32040 37150
L31980 37180
L31870 37180
L31810 37150
L31780 37130
L31750 37070
L31750 36900
L31780 36840
L31810 36810
L31870 36780
L31980 36780
L32040 36810
" />
<path d="M32520 36870
L32610 36900
L32640 36930
L32670 36980
L32670 37070
L32640 37130
L32610 37150
L32550 37180
L32320 37180
L32320 36580
L32520 36580
L32580 36610
L32610 36640
L32640 36700
L32640 36750
L32610 36810
L32580 36840
L32520 36870
L32320 36870
" />
<path d="M33550 37410
L33530 37380
L33470 37300
L33440 37240
L33410 37150
L33380 37010
L33380 36900
L33410 36750
L33440 36670
L33470 36610
L33530 36530
L33550 36500
" />
<path d="M33780 36780
L33780 37180
" />
<path d="M33780 36840
L33810 36810
L33870 36780
L33950 36780
L34010 36810
L34040 36870
L34040 37180
" />
<path d="M34410 37180
L34350 37150
L34320 37130
L34290 37070
L34290 36900
L34320 36840
L34350 36810
L34410 36780
L34490 36780
L34550 36810
L34580 36840
L34610 36900
L34610 37070
L34580 37130
L34550 37150
L34490 37180
L34410 37180
" />
<path d="M34860 37180
L34860 36780
" />
<path d="M34860 36900
L34890 36840
L34920 36810
L34980 36780
L35030 36780
" />
<path d="M35230 37180
L35230 36780
" />
<path d="M35230 36840
L35260 36810
L35320 36780
L35400 36780
L35460 36810
L35490 36870
L35490 37180
" />
<path d="M35490 36870
L35520 36810
L35580 36780
L35660 36780
L35720 36810
L35750 36870
L35750 37180
" />
<path d="M36290 37180
L36290 36870
L36260 36810
L36200 36780
L36090 36780
L36030 36810
" />
<path d="M36290 37150
L36230 37180
L36090 37180
L36030 37150
L36000 37100
L36000 37040
L36030 36980
L36090 36950
L36230 36950
L36290 36930
" />
<path d="M36660 37180
L36600 37150
L36570 37100
L36570 36580
" />
<path d="M37340 37180
L37340 36780
" />
<path d="M37340 36840
L37370 36810
L37430 36780
L37510 36780
L37570 36810
L37600 36870
L37600 37180
" />
<path d="M37600 36870
L37630 36810
L37690 36780
L37770 36780
L37830 36810
L37860 36870
L37860 37180
" />
<path d="M38230 37180
L38170 37150
L38140 37130
L38110 37070
L38110 36900
L38140 36840
L38170 36810
L38230 36780
L38310 36780
L38370 36810
L38400 36840
L38430 36900
L38430 37070
L38400 37130
L38370 37150
L38310 37180
L38230 37180
" />
<path d="M38940 37180
L38940 36580
" />
<path d="M38940 37150
L38880 37180
L38770 37180
L38710 37150
L38680 37130
L38650 37070
L38650 36900
L38680 36840
L38710 36810
L38770 36780
L38880 36780
L38940 36810
" />
<path d="M39450 37150
L39390 37180
L39280 37180
L39220 37150
L39190 37100
L39190 36870
L39220 36810
L39280 36780
L39390 36780
L39450 36810
L39480 36870
L39480 36930
L39190 36980
" />
<path d="M39680 37410
L39700 37380
L39760 37300
L39790 37240
L39820 37150
L39850 37010
L39850 36900
L39820 36750
L39790 36670
L39760 36610
L39700 36530
L39680 36500
" />
<path d="M40680 37180
L40620 37150
L40590 37130
L40560 37070
L40560 36900
L40590 36840
L40620 36810
L40680 36780
L40760 36780
L40820 36810
L40850 36840
L40880 36900
L40880 37070
L40850 37130
L40820 37150
L40760 37180
L40680 37180
" />
<path d="M41130 37180
L41130 36780
" />
<path d="M41130 36900
L41160 36840
L41190 36810
L41250 36780
L41300 36780
" />
<path d="M41960 36950
L42420 36950
" />
<path d="M42190 37180
L42190 36730
" />
<path d="M42960 36780
L42960 37180
" />
<path d="M42820 36550
L42670 36980
L43050 36980
" />
<path d="M43390 36580
L43440 36580
L43500 36610
L43530 36640
L43560 36700
L43590 36810
L43590 36950
L43560 37070
L43530 37130
L43500 37150
L43440 37180
L43390 37180
L43330 37150
L43300 37130
L43270 37070
L43240 36950
L43240 36810
L43270 36700
L43300 36640
L43330 36610
L43390 36580
" />
<path d="M44100 37180
L44100 36580
" />
<path d="M44100 37150
L44040 37180
L43930 37180
L43870 37150
L43840 37130
L43810 37070
L43810 36900
L43840 36840
L43870 36810
L43930 36780
L44040 36780
L44100 36810
" />
<path d="M44580 36870
L44670 36900
L44700 36930
L44730 36980
L44730 37070
L44700 37130
L44670 37150
L44610 37180
L44380 37180
L44380 36580
L44580 36580
L44640 36610
L44670 36640
L44700 36700
L44700 36750
L44670 36810
L44640 36840
L44580 36870
L44380 36870
" />
<path d="M45610 37410
L45590 37380
L45530 37300
L45500 37240
L45470 37150
L45440 37010
L45440 36900
L45470 36750
L45500 36670
L45530 36610
L45590 36530
L45610 36500
" />
<path d="M45840 36780
L45840 37380
" />
<path d="M45840 36810
L45900 36780
L46010 36780
L46070 36810
L46100 36840
L46130 36900
L46130 37070
L46100 37130
L46070 37150
L46010 37180
L45900 37180
L45840 37150
" />
<path d="M46640 37180
L46640 36870
L46610 36810
L46550 36780
L46440 36780
L46380 36810
" />
<path d="M46640 37150
L46580 37180
L46440 37180
L46380 37150
L46350 37100
L46350 37040
L46380 36980
L46440 36950
L46580 36950
L46640 36930
" />
<path d="M46890 37150
L46950 37180
L47070 37180
L47120 37150
L47150 37100
L47150 37070
L47120 37010
L47070 36980
L46980 36980
L46920 36950
L46890 36900
L46890 36870
L46920 36810
L46980 36780
L47070 36780
L47120 36810
" />
<path d="M47380 37150
L47440 37180
L47560 37180
L47610 37150
L47640 37100
L47640 37070
L47610 37010
L47560 36980
L47470 36980
L47410 36950
L47380 36900
L47380 36870
L47410 36810
L47470 36780
L47560 36780
L47610 36810
" />
<path d="M47900 37180
L47900 36780
" />
<path d="M47900 36580
L47870 36610
L47900 36640
L47930 36610
L47900 36580
L47900 36640
" />
<path d="M48140 36780
L48280 37180
L48420 36780
" />
<path d="M48880 37150
L48820 37180
L48710 37180
L48650 37150
L48620 37100
L48620 36870
L48650 36810
L48710 36780
L48820 36780
L48880 36810
L48910 36870
L48910 36930
L48620 36980
" />
<path d="M49620 37180
L49620 36780
" />
<path d="M49620 36580
L49590 36610
L49620 36640
L49650 36610
L49620 36580
L49620 36640
" />
<path d="M49910 36780
L49910 37180
" />
<path d="M49910 36840
L49940 36810
L50000 36780
L50080 36780
L50140 36810
L50170 36870
L50170 37180
" />
<path d="M50450 36780
L50450 37380
" />
<path d="M50450 36810
L50510 36780
L50620 36780
L50680 36810
L50710 36840
L50740 36900
L50740 37070
L50710 37130
L50680 37150
L50620 37180
L50510 37180
L50450 37150
" />
<path d="M51250 36780
L51250 37180
" />
<path d="M50990 36780
L50990 37100
L51020 37150
L51080 37180
L51160 37180
L51220 37150
L51250 37130
" />
<path d="M51450 36780
L51680 36780
" />
<path d="M51530 36580
L51530 37100
L51560 37150
L51620 37180
L51680 37180
" />
<path d="M52330 37180
L52330 36780
" />
<path d="M52330 36840
L52360 36810
L52420 36780
L52500 36780
L52560 36810
L52590 36870
L52590 37180
" />
<path d="M52590 36870
L52620 36810
L52680 36780
L52760 36780
L52820 36810
L52850 36870
L52850 37180
" />
<path d="M53220 37180
L53160 37150
L53130 37130
L53100 37070
L53100 36900
L53130 36840
L53160 36810
L53220 36780
L53300 36780
L53360 36810
L53390 36840
L53420 36900
L53420 37070
L53390 37130
L53360 37150
L53300 37180
L53220 37180
" />
<path d="M53930 37180
L53930 36580
" />
<path d="M53930 37150
L53870 37180
L53760 37180
L53700 37150
L53670 37130
L53640 37070
L53640 36900
L53670 36840
L53700 36810
L53760 36780
L53870 36780
L53930 36810
" />
<path d="M54440 37150
L54380 37180
L54270 37180
L54210 37150
L54180 37100
L54180 36870
L54210 36810
L54270 36780
L54380 36780
L54440 36810
L54470 36870
L54470 36930
L54180 36980
" />
<path d="M54670 37410
L54690 37380
L54750 37300
L54780 37240
L54810 37150
L54840 37010
L54840 36900
L54810 36750
L54780 36670
L54750 36610
L54690 36530
L54670 36500
" />
</g>
<g style="fill:#00A000; fill-opacity:0.0; 
stroke:#00A000; stroke-width:60; stroke-opacity:1; 
stroke-linecap:round; stroke-linejoin:round;">
<path d="M40000 31000
L40000 27500
" />
<path d="M40000 27500
L41000 27500
" />
<path d="M44000 23500
L44000 24500
" />
<path d="M44000 29500
L44000 28500
" />
</g> 
</svg>
